%TF.GenerationSoftware,KiCad,Pcbnew,7.0.9*%
%TF.CreationDate,2024-04-16T22:37:01+03:00*%
%TF.ProjectId,Pistol_Camera_Driver,50697374-6f6c-45f4-9361-6d6572615f44,rev?*%
%TF.SameCoordinates,Original*%
%TF.FileFunction,Legend,Top*%
%TF.FilePolarity,Positive*%
%FSLAX46Y46*%
G04 Gerber Fmt 4.6, Leading zero omitted, Abs format (unit mm)*
G04 Created by KiCad (PCBNEW 7.0.9) date 2024-04-16 22:37:01*
%MOMM*%
%LPD*%
G01*
G04 APERTURE LIST*
%ADD10C,0.150000*%
%ADD11C,0.120000*%
G04 APERTURE END LIST*
D10*
X75884819Y-76533333D02*
X76599104Y-76533333D01*
X76599104Y-76533333D02*
X76741961Y-76580952D01*
X76741961Y-76580952D02*
X76837200Y-76676190D01*
X76837200Y-76676190D02*
X76884819Y-76819047D01*
X76884819Y-76819047D02*
X76884819Y-76914285D01*
X75884819Y-76152380D02*
X75884819Y-75485714D01*
X75884819Y-75485714D02*
X76884819Y-75914285D01*
X58266666Y-76254819D02*
X58266666Y-76969104D01*
X58266666Y-76969104D02*
X58219047Y-77111961D01*
X58219047Y-77111961D02*
X58123809Y-77207200D01*
X58123809Y-77207200D02*
X57980952Y-77254819D01*
X57980952Y-77254819D02*
X57885714Y-77254819D01*
X59266666Y-77254819D02*
X58695238Y-77254819D01*
X58980952Y-77254819D02*
X58980952Y-76254819D01*
X58980952Y-76254819D02*
X58885714Y-76397676D01*
X58885714Y-76397676D02*
X58790476Y-76492914D01*
X58790476Y-76492914D02*
X58695238Y-76540533D01*
X42190476Y-73254819D02*
X42190476Y-73969104D01*
X42190476Y-73969104D02*
X42142857Y-74111961D01*
X42142857Y-74111961D02*
X42047619Y-74207200D01*
X42047619Y-74207200D02*
X41904762Y-74254819D01*
X41904762Y-74254819D02*
X41809524Y-74254819D01*
X43190476Y-74254819D02*
X42619048Y-74254819D01*
X42904762Y-74254819D02*
X42904762Y-73254819D01*
X42904762Y-73254819D02*
X42809524Y-73397676D01*
X42809524Y-73397676D02*
X42714286Y-73492914D01*
X42714286Y-73492914D02*
X42619048Y-73540533D01*
X43571429Y-73350057D02*
X43619048Y-73302438D01*
X43619048Y-73302438D02*
X43714286Y-73254819D01*
X43714286Y-73254819D02*
X43952381Y-73254819D01*
X43952381Y-73254819D02*
X44047619Y-73302438D01*
X44047619Y-73302438D02*
X44095238Y-73350057D01*
X44095238Y-73350057D02*
X44142857Y-73445295D01*
X44142857Y-73445295D02*
X44142857Y-73540533D01*
X44142857Y-73540533D02*
X44095238Y-73683390D01*
X44095238Y-73683390D02*
X43523810Y-74254819D01*
X43523810Y-74254819D02*
X44142857Y-74254819D01*
X62061905Y-35654819D02*
X62061905Y-34654819D01*
X62633333Y-35654819D02*
X62204762Y-35083390D01*
X62633333Y-34654819D02*
X62061905Y-35226247D01*
X63585714Y-35654819D02*
X63014286Y-35654819D01*
X63300000Y-35654819D02*
X63300000Y-34654819D01*
X63300000Y-34654819D02*
X63204762Y-34797676D01*
X63204762Y-34797676D02*
X63109524Y-34892914D01*
X63109524Y-34892914D02*
X63014286Y-34940533D01*
X75884819Y-72908333D02*
X76599104Y-72908333D01*
X76599104Y-72908333D02*
X76741961Y-72955952D01*
X76741961Y-72955952D02*
X76837200Y-73051190D01*
X76837200Y-73051190D02*
X76884819Y-73194047D01*
X76884819Y-73194047D02*
X76884819Y-73289285D01*
X75884819Y-72003571D02*
X75884819Y-72194047D01*
X75884819Y-72194047D02*
X75932438Y-72289285D01*
X75932438Y-72289285D02*
X75980057Y-72336904D01*
X75980057Y-72336904D02*
X76122914Y-72432142D01*
X76122914Y-72432142D02*
X76313390Y-72479761D01*
X76313390Y-72479761D02*
X76694342Y-72479761D01*
X76694342Y-72479761D02*
X76789580Y-72432142D01*
X76789580Y-72432142D02*
X76837200Y-72384523D01*
X76837200Y-72384523D02*
X76884819Y-72289285D01*
X76884819Y-72289285D02*
X76884819Y-72098809D01*
X76884819Y-72098809D02*
X76837200Y-72003571D01*
X76837200Y-72003571D02*
X76789580Y-71955952D01*
X76789580Y-71955952D02*
X76694342Y-71908333D01*
X76694342Y-71908333D02*
X76456247Y-71908333D01*
X76456247Y-71908333D02*
X76361009Y-71955952D01*
X76361009Y-71955952D02*
X76313390Y-72003571D01*
X76313390Y-72003571D02*
X76265771Y-72098809D01*
X76265771Y-72098809D02*
X76265771Y-72289285D01*
X76265771Y-72289285D02*
X76313390Y-72384523D01*
X76313390Y-72384523D02*
X76361009Y-72432142D01*
X76361009Y-72432142D02*
X76456247Y-72479761D01*
X61790476Y-71254819D02*
X61790476Y-71969104D01*
X61790476Y-71969104D02*
X61742857Y-72111961D01*
X61742857Y-72111961D02*
X61647619Y-72207200D01*
X61647619Y-72207200D02*
X61504762Y-72254819D01*
X61504762Y-72254819D02*
X61409524Y-72254819D01*
X62790476Y-72254819D02*
X62219048Y-72254819D01*
X62504762Y-72254819D02*
X62504762Y-71254819D01*
X62504762Y-71254819D02*
X62409524Y-71397676D01*
X62409524Y-71397676D02*
X62314286Y-71492914D01*
X62314286Y-71492914D02*
X62219048Y-71540533D01*
X63742857Y-72254819D02*
X63171429Y-72254819D01*
X63457143Y-72254819D02*
X63457143Y-71254819D01*
X63457143Y-71254819D02*
X63361905Y-71397676D01*
X63361905Y-71397676D02*
X63266667Y-71492914D01*
X63266667Y-71492914D02*
X63171429Y-71540533D01*
X70790476Y-71454819D02*
X70790476Y-72169104D01*
X70790476Y-72169104D02*
X70742857Y-72311961D01*
X70742857Y-72311961D02*
X70647619Y-72407200D01*
X70647619Y-72407200D02*
X70504762Y-72454819D01*
X70504762Y-72454819D02*
X70409524Y-72454819D01*
X71790476Y-72454819D02*
X71219048Y-72454819D01*
X71504762Y-72454819D02*
X71504762Y-71454819D01*
X71504762Y-71454819D02*
X71409524Y-71597676D01*
X71409524Y-71597676D02*
X71314286Y-71692914D01*
X71314286Y-71692914D02*
X71219048Y-71740533D01*
X72409524Y-71454819D02*
X72504762Y-71454819D01*
X72504762Y-71454819D02*
X72600000Y-71502438D01*
X72600000Y-71502438D02*
X72647619Y-71550057D01*
X72647619Y-71550057D02*
X72695238Y-71645295D01*
X72695238Y-71645295D02*
X72742857Y-71835771D01*
X72742857Y-71835771D02*
X72742857Y-72073866D01*
X72742857Y-72073866D02*
X72695238Y-72264342D01*
X72695238Y-72264342D02*
X72647619Y-72359580D01*
X72647619Y-72359580D02*
X72600000Y-72407200D01*
X72600000Y-72407200D02*
X72504762Y-72454819D01*
X72504762Y-72454819D02*
X72409524Y-72454819D01*
X72409524Y-72454819D02*
X72314286Y-72407200D01*
X72314286Y-72407200D02*
X72266667Y-72359580D01*
X72266667Y-72359580D02*
X72219048Y-72264342D01*
X72219048Y-72264342D02*
X72171429Y-72073866D01*
X72171429Y-72073866D02*
X72171429Y-71835771D01*
X72171429Y-71835771D02*
X72219048Y-71645295D01*
X72219048Y-71645295D02*
X72266667Y-71550057D01*
X72266667Y-71550057D02*
X72314286Y-71502438D01*
X72314286Y-71502438D02*
X72409524Y-71454819D01*
X105033333Y-73959580D02*
X104985714Y-74007200D01*
X104985714Y-74007200D02*
X104842857Y-74054819D01*
X104842857Y-74054819D02*
X104747619Y-74054819D01*
X104747619Y-74054819D02*
X104604762Y-74007200D01*
X104604762Y-74007200D02*
X104509524Y-73911961D01*
X104509524Y-73911961D02*
X104461905Y-73816723D01*
X104461905Y-73816723D02*
X104414286Y-73626247D01*
X104414286Y-73626247D02*
X104414286Y-73483390D01*
X104414286Y-73483390D02*
X104461905Y-73292914D01*
X104461905Y-73292914D02*
X104509524Y-73197676D01*
X104509524Y-73197676D02*
X104604762Y-73102438D01*
X104604762Y-73102438D02*
X104747619Y-73054819D01*
X104747619Y-73054819D02*
X104842857Y-73054819D01*
X104842857Y-73054819D02*
X104985714Y-73102438D01*
X104985714Y-73102438D02*
X105033333Y-73150057D01*
X105890476Y-73388152D02*
X105890476Y-74054819D01*
X105652381Y-73007200D02*
X105414286Y-73721485D01*
X105414286Y-73721485D02*
X106033333Y-73721485D01*
X101233333Y-38409580D02*
X101185714Y-38457200D01*
X101185714Y-38457200D02*
X101042857Y-38504819D01*
X101042857Y-38504819D02*
X100947619Y-38504819D01*
X100947619Y-38504819D02*
X100804762Y-38457200D01*
X100804762Y-38457200D02*
X100709524Y-38361961D01*
X100709524Y-38361961D02*
X100661905Y-38266723D01*
X100661905Y-38266723D02*
X100614286Y-38076247D01*
X100614286Y-38076247D02*
X100614286Y-37933390D01*
X100614286Y-37933390D02*
X100661905Y-37742914D01*
X100661905Y-37742914D02*
X100709524Y-37647676D01*
X100709524Y-37647676D02*
X100804762Y-37552438D01*
X100804762Y-37552438D02*
X100947619Y-37504819D01*
X100947619Y-37504819D02*
X101042857Y-37504819D01*
X101042857Y-37504819D02*
X101185714Y-37552438D01*
X101185714Y-37552438D02*
X101233333Y-37600057D01*
X101709524Y-38504819D02*
X101900000Y-38504819D01*
X101900000Y-38504819D02*
X101995238Y-38457200D01*
X101995238Y-38457200D02*
X102042857Y-38409580D01*
X102042857Y-38409580D02*
X102138095Y-38266723D01*
X102138095Y-38266723D02*
X102185714Y-38076247D01*
X102185714Y-38076247D02*
X102185714Y-37695295D01*
X102185714Y-37695295D02*
X102138095Y-37600057D01*
X102138095Y-37600057D02*
X102090476Y-37552438D01*
X102090476Y-37552438D02*
X101995238Y-37504819D01*
X101995238Y-37504819D02*
X101804762Y-37504819D01*
X101804762Y-37504819D02*
X101709524Y-37552438D01*
X101709524Y-37552438D02*
X101661905Y-37600057D01*
X101661905Y-37600057D02*
X101614286Y-37695295D01*
X101614286Y-37695295D02*
X101614286Y-37933390D01*
X101614286Y-37933390D02*
X101661905Y-38028628D01*
X101661905Y-38028628D02*
X101709524Y-38076247D01*
X101709524Y-38076247D02*
X101804762Y-38123866D01*
X101804762Y-38123866D02*
X101995238Y-38123866D01*
X101995238Y-38123866D02*
X102090476Y-38076247D01*
X102090476Y-38076247D02*
X102138095Y-38028628D01*
X102138095Y-38028628D02*
X102185714Y-37933390D01*
X70357142Y-47454819D02*
X70023809Y-46978628D01*
X69785714Y-47454819D02*
X69785714Y-46454819D01*
X69785714Y-46454819D02*
X70166666Y-46454819D01*
X70166666Y-46454819D02*
X70261904Y-46502438D01*
X70261904Y-46502438D02*
X70309523Y-46550057D01*
X70309523Y-46550057D02*
X70357142Y-46645295D01*
X70357142Y-46645295D02*
X70357142Y-46788152D01*
X70357142Y-46788152D02*
X70309523Y-46883390D01*
X70309523Y-46883390D02*
X70261904Y-46931009D01*
X70261904Y-46931009D02*
X70166666Y-46978628D01*
X70166666Y-46978628D02*
X69785714Y-46978628D01*
X70738095Y-46550057D02*
X70785714Y-46502438D01*
X70785714Y-46502438D02*
X70880952Y-46454819D01*
X70880952Y-46454819D02*
X71119047Y-46454819D01*
X71119047Y-46454819D02*
X71214285Y-46502438D01*
X71214285Y-46502438D02*
X71261904Y-46550057D01*
X71261904Y-46550057D02*
X71309523Y-46645295D01*
X71309523Y-46645295D02*
X71309523Y-46740533D01*
X71309523Y-46740533D02*
X71261904Y-46883390D01*
X71261904Y-46883390D02*
X70690476Y-47454819D01*
X70690476Y-47454819D02*
X71309523Y-47454819D01*
X72166666Y-46788152D02*
X72166666Y-47454819D01*
X71928571Y-46407200D02*
X71690476Y-47121485D01*
X71690476Y-47121485D02*
X72309523Y-47121485D01*
X28990476Y-41854819D02*
X28990476Y-42569104D01*
X28990476Y-42569104D02*
X28942857Y-42711961D01*
X28942857Y-42711961D02*
X28847619Y-42807200D01*
X28847619Y-42807200D02*
X28704762Y-42854819D01*
X28704762Y-42854819D02*
X28609524Y-42854819D01*
X29990476Y-42854819D02*
X29419048Y-42854819D01*
X29704762Y-42854819D02*
X29704762Y-41854819D01*
X29704762Y-41854819D02*
X29609524Y-41997676D01*
X29609524Y-41997676D02*
X29514286Y-42092914D01*
X29514286Y-42092914D02*
X29419048Y-42140533D01*
X30323810Y-41854819D02*
X30990476Y-41854819D01*
X30990476Y-41854819D02*
X30561905Y-42854819D01*
X29590476Y-70829819D02*
X29590476Y-71544104D01*
X29590476Y-71544104D02*
X29542857Y-71686961D01*
X29542857Y-71686961D02*
X29447619Y-71782200D01*
X29447619Y-71782200D02*
X29304762Y-71829819D01*
X29304762Y-71829819D02*
X29209524Y-71829819D01*
X30590476Y-71829819D02*
X30019048Y-71829819D01*
X30304762Y-71829819D02*
X30304762Y-70829819D01*
X30304762Y-70829819D02*
X30209524Y-70972676D01*
X30209524Y-70972676D02*
X30114286Y-71067914D01*
X30114286Y-71067914D02*
X30019048Y-71115533D01*
X31447619Y-70829819D02*
X31257143Y-70829819D01*
X31257143Y-70829819D02*
X31161905Y-70877438D01*
X31161905Y-70877438D02*
X31114286Y-70925057D01*
X31114286Y-70925057D02*
X31019048Y-71067914D01*
X31019048Y-71067914D02*
X30971429Y-71258390D01*
X30971429Y-71258390D02*
X30971429Y-71639342D01*
X30971429Y-71639342D02*
X31019048Y-71734580D01*
X31019048Y-71734580D02*
X31066667Y-71782200D01*
X31066667Y-71782200D02*
X31161905Y-71829819D01*
X31161905Y-71829819D02*
X31352381Y-71829819D01*
X31352381Y-71829819D02*
X31447619Y-71782200D01*
X31447619Y-71782200D02*
X31495238Y-71734580D01*
X31495238Y-71734580D02*
X31542857Y-71639342D01*
X31542857Y-71639342D02*
X31542857Y-71401247D01*
X31542857Y-71401247D02*
X31495238Y-71306009D01*
X31495238Y-71306009D02*
X31447619Y-71258390D01*
X31447619Y-71258390D02*
X31352381Y-71210771D01*
X31352381Y-71210771D02*
X31161905Y-71210771D01*
X31161905Y-71210771D02*
X31066667Y-71258390D01*
X31066667Y-71258390D02*
X31019048Y-71306009D01*
X31019048Y-71306009D02*
X30971429Y-71401247D01*
X74504761Y-41150057D02*
X74409523Y-41102438D01*
X74409523Y-41102438D02*
X74314285Y-41007200D01*
X74314285Y-41007200D02*
X74171428Y-40864342D01*
X74171428Y-40864342D02*
X74076190Y-40816723D01*
X74076190Y-40816723D02*
X73980952Y-40816723D01*
X74028571Y-41054819D02*
X73933333Y-41007200D01*
X73933333Y-41007200D02*
X73838095Y-40911961D01*
X73838095Y-40911961D02*
X73790476Y-40721485D01*
X73790476Y-40721485D02*
X73790476Y-40388152D01*
X73790476Y-40388152D02*
X73838095Y-40197676D01*
X73838095Y-40197676D02*
X73933333Y-40102438D01*
X73933333Y-40102438D02*
X74028571Y-40054819D01*
X74028571Y-40054819D02*
X74219047Y-40054819D01*
X74219047Y-40054819D02*
X74314285Y-40102438D01*
X74314285Y-40102438D02*
X74409523Y-40197676D01*
X74409523Y-40197676D02*
X74457142Y-40388152D01*
X74457142Y-40388152D02*
X74457142Y-40721485D01*
X74457142Y-40721485D02*
X74409523Y-40911961D01*
X74409523Y-40911961D02*
X74314285Y-41007200D01*
X74314285Y-41007200D02*
X74219047Y-41054819D01*
X74219047Y-41054819D02*
X74028571Y-41054819D01*
X75409523Y-41054819D02*
X74838095Y-41054819D01*
X75123809Y-41054819D02*
X75123809Y-40054819D01*
X75123809Y-40054819D02*
X75028571Y-40197676D01*
X75028571Y-40197676D02*
X74933333Y-40292914D01*
X74933333Y-40292914D02*
X74838095Y-40340533D01*
X46266666Y-37254819D02*
X46266666Y-37969104D01*
X46266666Y-37969104D02*
X46219047Y-38111961D01*
X46219047Y-38111961D02*
X46123809Y-38207200D01*
X46123809Y-38207200D02*
X45980952Y-38254819D01*
X45980952Y-38254819D02*
X45885714Y-38254819D01*
X46695238Y-37350057D02*
X46742857Y-37302438D01*
X46742857Y-37302438D02*
X46838095Y-37254819D01*
X46838095Y-37254819D02*
X47076190Y-37254819D01*
X47076190Y-37254819D02*
X47171428Y-37302438D01*
X47171428Y-37302438D02*
X47219047Y-37350057D01*
X47219047Y-37350057D02*
X47266666Y-37445295D01*
X47266666Y-37445295D02*
X47266666Y-37540533D01*
X47266666Y-37540533D02*
X47219047Y-37683390D01*
X47219047Y-37683390D02*
X46647619Y-38254819D01*
X46647619Y-38254819D02*
X47266666Y-38254819D01*
X96066666Y-76454819D02*
X96066666Y-77169104D01*
X96066666Y-77169104D02*
X96019047Y-77311961D01*
X96019047Y-77311961D02*
X95923809Y-77407200D01*
X95923809Y-77407200D02*
X95780952Y-77454819D01*
X95780952Y-77454819D02*
X95685714Y-77454819D01*
X96685714Y-76883390D02*
X96590476Y-76835771D01*
X96590476Y-76835771D02*
X96542857Y-76788152D01*
X96542857Y-76788152D02*
X96495238Y-76692914D01*
X96495238Y-76692914D02*
X96495238Y-76645295D01*
X96495238Y-76645295D02*
X96542857Y-76550057D01*
X96542857Y-76550057D02*
X96590476Y-76502438D01*
X96590476Y-76502438D02*
X96685714Y-76454819D01*
X96685714Y-76454819D02*
X96876190Y-76454819D01*
X96876190Y-76454819D02*
X96971428Y-76502438D01*
X96971428Y-76502438D02*
X97019047Y-76550057D01*
X97019047Y-76550057D02*
X97066666Y-76645295D01*
X97066666Y-76645295D02*
X97066666Y-76692914D01*
X97066666Y-76692914D02*
X97019047Y-76788152D01*
X97019047Y-76788152D02*
X96971428Y-76835771D01*
X96971428Y-76835771D02*
X96876190Y-76883390D01*
X96876190Y-76883390D02*
X96685714Y-76883390D01*
X96685714Y-76883390D02*
X96590476Y-76931009D01*
X96590476Y-76931009D02*
X96542857Y-76978628D01*
X96542857Y-76978628D02*
X96495238Y-77073866D01*
X96495238Y-77073866D02*
X96495238Y-77264342D01*
X96495238Y-77264342D02*
X96542857Y-77359580D01*
X96542857Y-77359580D02*
X96590476Y-77407200D01*
X96590476Y-77407200D02*
X96685714Y-77454819D01*
X96685714Y-77454819D02*
X96876190Y-77454819D01*
X96876190Y-77454819D02*
X96971428Y-77407200D01*
X96971428Y-77407200D02*
X97019047Y-77359580D01*
X97019047Y-77359580D02*
X97066666Y-77264342D01*
X97066666Y-77264342D02*
X97066666Y-77073866D01*
X97066666Y-77073866D02*
X97019047Y-76978628D01*
X97019047Y-76978628D02*
X96971428Y-76931009D01*
X96971428Y-76931009D02*
X96876190Y-76883390D01*
X50461905Y-33454819D02*
X50461905Y-32454819D01*
X50461905Y-32454819D02*
X50700000Y-32454819D01*
X50700000Y-32454819D02*
X50842857Y-32502438D01*
X50842857Y-32502438D02*
X50938095Y-32597676D01*
X50938095Y-32597676D02*
X50985714Y-32692914D01*
X50985714Y-32692914D02*
X51033333Y-32883390D01*
X51033333Y-32883390D02*
X51033333Y-33026247D01*
X51033333Y-33026247D02*
X50985714Y-33216723D01*
X50985714Y-33216723D02*
X50938095Y-33311961D01*
X50938095Y-33311961D02*
X50842857Y-33407200D01*
X50842857Y-33407200D02*
X50700000Y-33454819D01*
X50700000Y-33454819D02*
X50461905Y-33454819D01*
X51890476Y-32788152D02*
X51890476Y-33454819D01*
X51652381Y-32407200D02*
X51414286Y-33121485D01*
X51414286Y-33121485D02*
X52033333Y-33121485D01*
X31448095Y-44654819D02*
X31448095Y-45464342D01*
X31448095Y-45464342D02*
X31495714Y-45559580D01*
X31495714Y-45559580D02*
X31543333Y-45607200D01*
X31543333Y-45607200D02*
X31638571Y-45654819D01*
X31638571Y-45654819D02*
X31829047Y-45654819D01*
X31829047Y-45654819D02*
X31924285Y-45607200D01*
X31924285Y-45607200D02*
X31971904Y-45559580D01*
X31971904Y-45559580D02*
X32019523Y-45464342D01*
X32019523Y-45464342D02*
X32019523Y-44654819D01*
X33019523Y-45654819D02*
X32448095Y-45654819D01*
X32733809Y-45654819D02*
X32733809Y-44654819D01*
X32733809Y-44654819D02*
X32638571Y-44797676D01*
X32638571Y-44797676D02*
X32543333Y-44892914D01*
X32543333Y-44892914D02*
X32448095Y-44940533D01*
X48661905Y-36854819D02*
X48661905Y-35854819D01*
X48661905Y-35854819D02*
X48900000Y-35854819D01*
X48900000Y-35854819D02*
X49042857Y-35902438D01*
X49042857Y-35902438D02*
X49138095Y-35997676D01*
X49138095Y-35997676D02*
X49185714Y-36092914D01*
X49185714Y-36092914D02*
X49233333Y-36283390D01*
X49233333Y-36283390D02*
X49233333Y-36426247D01*
X49233333Y-36426247D02*
X49185714Y-36616723D01*
X49185714Y-36616723D02*
X49138095Y-36711961D01*
X49138095Y-36711961D02*
X49042857Y-36807200D01*
X49042857Y-36807200D02*
X48900000Y-36854819D01*
X48900000Y-36854819D02*
X48661905Y-36854819D01*
X49566667Y-35854819D02*
X50185714Y-35854819D01*
X50185714Y-35854819D02*
X49852381Y-36235771D01*
X49852381Y-36235771D02*
X49995238Y-36235771D01*
X49995238Y-36235771D02*
X50090476Y-36283390D01*
X50090476Y-36283390D02*
X50138095Y-36331009D01*
X50138095Y-36331009D02*
X50185714Y-36426247D01*
X50185714Y-36426247D02*
X50185714Y-36664342D01*
X50185714Y-36664342D02*
X50138095Y-36759580D01*
X50138095Y-36759580D02*
X50090476Y-36807200D01*
X50090476Y-36807200D02*
X49995238Y-36854819D01*
X49995238Y-36854819D02*
X49709524Y-36854819D01*
X49709524Y-36854819D02*
X49614286Y-36807200D01*
X49614286Y-36807200D02*
X49566667Y-36759580D01*
X27638095Y-47054819D02*
X27638095Y-47864342D01*
X27638095Y-47864342D02*
X27685714Y-47959580D01*
X27685714Y-47959580D02*
X27733333Y-48007200D01*
X27733333Y-48007200D02*
X27828571Y-48054819D01*
X27828571Y-48054819D02*
X28019047Y-48054819D01*
X28019047Y-48054819D02*
X28114285Y-48007200D01*
X28114285Y-48007200D02*
X28161904Y-47959580D01*
X28161904Y-47959580D02*
X28209523Y-47864342D01*
X28209523Y-47864342D02*
X28209523Y-47054819D01*
X28590476Y-47054819D02*
X29209523Y-47054819D01*
X29209523Y-47054819D02*
X28876190Y-47435771D01*
X28876190Y-47435771D02*
X29019047Y-47435771D01*
X29019047Y-47435771D02*
X29114285Y-47483390D01*
X29114285Y-47483390D02*
X29161904Y-47531009D01*
X29161904Y-47531009D02*
X29209523Y-47626247D01*
X29209523Y-47626247D02*
X29209523Y-47864342D01*
X29209523Y-47864342D02*
X29161904Y-47959580D01*
X29161904Y-47959580D02*
X29114285Y-48007200D01*
X29114285Y-48007200D02*
X29019047Y-48054819D01*
X29019047Y-48054819D02*
X28733333Y-48054819D01*
X28733333Y-48054819D02*
X28638095Y-48007200D01*
X28638095Y-48007200D02*
X28590476Y-47959580D01*
X40066666Y-37054819D02*
X40066666Y-37769104D01*
X40066666Y-37769104D02*
X40019047Y-37911961D01*
X40019047Y-37911961D02*
X39923809Y-38007200D01*
X39923809Y-38007200D02*
X39780952Y-38054819D01*
X39780952Y-38054819D02*
X39685714Y-38054819D01*
X40971428Y-37388152D02*
X40971428Y-38054819D01*
X40733333Y-37007200D02*
X40495238Y-37721485D01*
X40495238Y-37721485D02*
X41114285Y-37721485D01*
X29390476Y-75854819D02*
X29390476Y-76569104D01*
X29390476Y-76569104D02*
X29342857Y-76711961D01*
X29342857Y-76711961D02*
X29247619Y-76807200D01*
X29247619Y-76807200D02*
X29104762Y-76854819D01*
X29104762Y-76854819D02*
X29009524Y-76854819D01*
X30390476Y-76854819D02*
X29819048Y-76854819D01*
X30104762Y-76854819D02*
X30104762Y-75854819D01*
X30104762Y-75854819D02*
X30009524Y-75997676D01*
X30009524Y-75997676D02*
X29914286Y-76092914D01*
X29914286Y-76092914D02*
X29819048Y-76140533D01*
X31295238Y-75854819D02*
X30819048Y-75854819D01*
X30819048Y-75854819D02*
X30771429Y-76331009D01*
X30771429Y-76331009D02*
X30819048Y-76283390D01*
X30819048Y-76283390D02*
X30914286Y-76235771D01*
X30914286Y-76235771D02*
X31152381Y-76235771D01*
X31152381Y-76235771D02*
X31247619Y-76283390D01*
X31247619Y-76283390D02*
X31295238Y-76331009D01*
X31295238Y-76331009D02*
X31342857Y-76426247D01*
X31342857Y-76426247D02*
X31342857Y-76664342D01*
X31342857Y-76664342D02*
X31295238Y-76759580D01*
X31295238Y-76759580D02*
X31247619Y-76807200D01*
X31247619Y-76807200D02*
X31152381Y-76854819D01*
X31152381Y-76854819D02*
X30914286Y-76854819D01*
X30914286Y-76854819D02*
X30819048Y-76807200D01*
X30819048Y-76807200D02*
X30771429Y-76759580D01*
X53866666Y-70454819D02*
X53866666Y-71169104D01*
X53866666Y-71169104D02*
X53819047Y-71311961D01*
X53819047Y-71311961D02*
X53723809Y-71407200D01*
X53723809Y-71407200D02*
X53580952Y-71454819D01*
X53580952Y-71454819D02*
X53485714Y-71454819D01*
X54390476Y-71454819D02*
X54580952Y-71454819D01*
X54580952Y-71454819D02*
X54676190Y-71407200D01*
X54676190Y-71407200D02*
X54723809Y-71359580D01*
X54723809Y-71359580D02*
X54819047Y-71216723D01*
X54819047Y-71216723D02*
X54866666Y-71026247D01*
X54866666Y-71026247D02*
X54866666Y-70645295D01*
X54866666Y-70645295D02*
X54819047Y-70550057D01*
X54819047Y-70550057D02*
X54771428Y-70502438D01*
X54771428Y-70502438D02*
X54676190Y-70454819D01*
X54676190Y-70454819D02*
X54485714Y-70454819D01*
X54485714Y-70454819D02*
X54390476Y-70502438D01*
X54390476Y-70502438D02*
X54342857Y-70550057D01*
X54342857Y-70550057D02*
X54295238Y-70645295D01*
X54295238Y-70645295D02*
X54295238Y-70883390D01*
X54295238Y-70883390D02*
X54342857Y-70978628D01*
X54342857Y-70978628D02*
X54390476Y-71026247D01*
X54390476Y-71026247D02*
X54485714Y-71073866D01*
X54485714Y-71073866D02*
X54676190Y-71073866D01*
X54676190Y-71073866D02*
X54771428Y-71026247D01*
X54771428Y-71026247D02*
X54819047Y-70978628D01*
X54819047Y-70978628D02*
X54866666Y-70883390D01*
X59104761Y-72150057D02*
X59009523Y-72102438D01*
X59009523Y-72102438D02*
X58914285Y-72007200D01*
X58914285Y-72007200D02*
X58771428Y-71864342D01*
X58771428Y-71864342D02*
X58676190Y-71816723D01*
X58676190Y-71816723D02*
X58580952Y-71816723D01*
X58628571Y-72054819D02*
X58533333Y-72007200D01*
X58533333Y-72007200D02*
X58438095Y-71911961D01*
X58438095Y-71911961D02*
X58390476Y-71721485D01*
X58390476Y-71721485D02*
X58390476Y-71388152D01*
X58390476Y-71388152D02*
X58438095Y-71197676D01*
X58438095Y-71197676D02*
X58533333Y-71102438D01*
X58533333Y-71102438D02*
X58628571Y-71054819D01*
X58628571Y-71054819D02*
X58819047Y-71054819D01*
X58819047Y-71054819D02*
X58914285Y-71102438D01*
X58914285Y-71102438D02*
X59009523Y-71197676D01*
X59009523Y-71197676D02*
X59057142Y-71388152D01*
X59057142Y-71388152D02*
X59057142Y-71721485D01*
X59057142Y-71721485D02*
X59009523Y-71911961D01*
X59009523Y-71911961D02*
X58914285Y-72007200D01*
X58914285Y-72007200D02*
X58819047Y-72054819D01*
X58819047Y-72054819D02*
X58628571Y-72054819D01*
X59438095Y-71150057D02*
X59485714Y-71102438D01*
X59485714Y-71102438D02*
X59580952Y-71054819D01*
X59580952Y-71054819D02*
X59819047Y-71054819D01*
X59819047Y-71054819D02*
X59914285Y-71102438D01*
X59914285Y-71102438D02*
X59961904Y-71150057D01*
X59961904Y-71150057D02*
X60009523Y-71245295D01*
X60009523Y-71245295D02*
X60009523Y-71340533D01*
X60009523Y-71340533D02*
X59961904Y-71483390D01*
X59961904Y-71483390D02*
X59390476Y-72054819D01*
X59390476Y-72054819D02*
X60009523Y-72054819D01*
X82238095Y-46254819D02*
X82238095Y-47064342D01*
X82238095Y-47064342D02*
X82285714Y-47159580D01*
X82285714Y-47159580D02*
X82333333Y-47207200D01*
X82333333Y-47207200D02*
X82428571Y-47254819D01*
X82428571Y-47254819D02*
X82619047Y-47254819D01*
X82619047Y-47254819D02*
X82714285Y-47207200D01*
X82714285Y-47207200D02*
X82761904Y-47159580D01*
X82761904Y-47159580D02*
X82809523Y-47064342D01*
X82809523Y-47064342D02*
X82809523Y-46254819D01*
X83190476Y-46254819D02*
X83857142Y-46254819D01*
X83857142Y-46254819D02*
X83428571Y-47254819D01*
X64990476Y-36654819D02*
X64990476Y-37369104D01*
X64990476Y-37369104D02*
X64942857Y-37511961D01*
X64942857Y-37511961D02*
X64847619Y-37607200D01*
X64847619Y-37607200D02*
X64704762Y-37654819D01*
X64704762Y-37654819D02*
X64609524Y-37654819D01*
X65990476Y-37654819D02*
X65419048Y-37654819D01*
X65704762Y-37654819D02*
X65704762Y-36654819D01*
X65704762Y-36654819D02*
X65609524Y-36797676D01*
X65609524Y-36797676D02*
X65514286Y-36892914D01*
X65514286Y-36892914D02*
X65419048Y-36940533D01*
X66323810Y-36654819D02*
X66942857Y-36654819D01*
X66942857Y-36654819D02*
X66609524Y-37035771D01*
X66609524Y-37035771D02*
X66752381Y-37035771D01*
X66752381Y-37035771D02*
X66847619Y-37083390D01*
X66847619Y-37083390D02*
X66895238Y-37131009D01*
X66895238Y-37131009D02*
X66942857Y-37226247D01*
X66942857Y-37226247D02*
X66942857Y-37464342D01*
X66942857Y-37464342D02*
X66895238Y-37559580D01*
X66895238Y-37559580D02*
X66847619Y-37607200D01*
X66847619Y-37607200D02*
X66752381Y-37654819D01*
X66752381Y-37654819D02*
X66466667Y-37654819D01*
X66466667Y-37654819D02*
X66371429Y-37607200D01*
X66371429Y-37607200D02*
X66323810Y-37559580D01*
X77557142Y-46054819D02*
X77223809Y-45578628D01*
X76985714Y-46054819D02*
X76985714Y-45054819D01*
X76985714Y-45054819D02*
X77366666Y-45054819D01*
X77366666Y-45054819D02*
X77461904Y-45102438D01*
X77461904Y-45102438D02*
X77509523Y-45150057D01*
X77509523Y-45150057D02*
X77557142Y-45245295D01*
X77557142Y-45245295D02*
X77557142Y-45388152D01*
X77557142Y-45388152D02*
X77509523Y-45483390D01*
X77509523Y-45483390D02*
X77461904Y-45531009D01*
X77461904Y-45531009D02*
X77366666Y-45578628D01*
X77366666Y-45578628D02*
X76985714Y-45578628D01*
X77938095Y-45150057D02*
X77985714Y-45102438D01*
X77985714Y-45102438D02*
X78080952Y-45054819D01*
X78080952Y-45054819D02*
X78319047Y-45054819D01*
X78319047Y-45054819D02*
X78414285Y-45102438D01*
X78414285Y-45102438D02*
X78461904Y-45150057D01*
X78461904Y-45150057D02*
X78509523Y-45245295D01*
X78509523Y-45245295D02*
X78509523Y-45340533D01*
X78509523Y-45340533D02*
X78461904Y-45483390D01*
X78461904Y-45483390D02*
X77890476Y-46054819D01*
X77890476Y-46054819D02*
X78509523Y-46054819D01*
X78842857Y-45054819D02*
X79461904Y-45054819D01*
X79461904Y-45054819D02*
X79128571Y-45435771D01*
X79128571Y-45435771D02*
X79271428Y-45435771D01*
X79271428Y-45435771D02*
X79366666Y-45483390D01*
X79366666Y-45483390D02*
X79414285Y-45531009D01*
X79414285Y-45531009D02*
X79461904Y-45626247D01*
X79461904Y-45626247D02*
X79461904Y-45864342D01*
X79461904Y-45864342D02*
X79414285Y-45959580D01*
X79414285Y-45959580D02*
X79366666Y-46007200D01*
X79366666Y-46007200D02*
X79271428Y-46054819D01*
X79271428Y-46054819D02*
X78985714Y-46054819D01*
X78985714Y-46054819D02*
X78890476Y-46007200D01*
X78890476Y-46007200D02*
X78842857Y-45959580D01*
X108346666Y-56854808D02*
X108346666Y-57569093D01*
X108346666Y-57569093D02*
X108299047Y-57711950D01*
X108299047Y-57711950D02*
X108203809Y-57807189D01*
X108203809Y-57807189D02*
X108060952Y-57854808D01*
X108060952Y-57854808D02*
X107965714Y-57854808D01*
X108727619Y-56854808D02*
X109346666Y-56854808D01*
X109346666Y-56854808D02*
X109013333Y-57235760D01*
X109013333Y-57235760D02*
X109156190Y-57235760D01*
X109156190Y-57235760D02*
X109251428Y-57283379D01*
X109251428Y-57283379D02*
X109299047Y-57330998D01*
X109299047Y-57330998D02*
X109346666Y-57426236D01*
X109346666Y-57426236D02*
X109346666Y-57664331D01*
X109346666Y-57664331D02*
X109299047Y-57759569D01*
X109299047Y-57759569D02*
X109251428Y-57807189D01*
X109251428Y-57807189D02*
X109156190Y-57854808D01*
X109156190Y-57854808D02*
X108870476Y-57854808D01*
X108870476Y-57854808D02*
X108775238Y-57807189D01*
X108775238Y-57807189D02*
X108727619Y-57759569D01*
X100803809Y-59254808D02*
X100994285Y-59254808D01*
X100994285Y-59254808D02*
X101089523Y-59302427D01*
X101089523Y-59302427D02*
X101184761Y-59397665D01*
X101184761Y-59397665D02*
X101232380Y-59588141D01*
X101232380Y-59588141D02*
X101232380Y-59921474D01*
X101232380Y-59921474D02*
X101184761Y-60111950D01*
X101184761Y-60111950D02*
X101089523Y-60207189D01*
X101089523Y-60207189D02*
X100994285Y-60254808D01*
X100994285Y-60254808D02*
X100803809Y-60254808D01*
X100803809Y-60254808D02*
X100708571Y-60207189D01*
X100708571Y-60207189D02*
X100613333Y-60111950D01*
X100613333Y-60111950D02*
X100565714Y-59921474D01*
X100565714Y-59921474D02*
X100565714Y-59588141D01*
X100565714Y-59588141D02*
X100613333Y-59397665D01*
X100613333Y-59397665D02*
X100708571Y-59302427D01*
X100708571Y-59302427D02*
X100803809Y-59254808D01*
X101660952Y-60254808D02*
X101660952Y-59254808D01*
X101660952Y-59635760D02*
X101756190Y-59588141D01*
X101756190Y-59588141D02*
X101946666Y-59588141D01*
X101946666Y-59588141D02*
X102041904Y-59635760D01*
X102041904Y-59635760D02*
X102089523Y-59683379D01*
X102089523Y-59683379D02*
X102137142Y-59778617D01*
X102137142Y-59778617D02*
X102137142Y-60064331D01*
X102137142Y-60064331D02*
X102089523Y-60159569D01*
X102089523Y-60159569D02*
X102041904Y-60207189D01*
X102041904Y-60207189D02*
X101946666Y-60254808D01*
X101946666Y-60254808D02*
X101756190Y-60254808D01*
X101756190Y-60254808D02*
X101660952Y-60207189D01*
X102565714Y-59588141D02*
X102565714Y-60445284D01*
X102565714Y-60445284D02*
X102518095Y-60540522D01*
X102518095Y-60540522D02*
X102422857Y-60588141D01*
X102422857Y-60588141D02*
X102375238Y-60588141D01*
X102565714Y-59254808D02*
X102518095Y-59302427D01*
X102518095Y-59302427D02*
X102565714Y-59350046D01*
X102565714Y-59350046D02*
X102613333Y-59302427D01*
X102613333Y-59302427D02*
X102565714Y-59254808D01*
X102565714Y-59254808D02*
X102565714Y-59350046D01*
X103422856Y-60207189D02*
X103327618Y-60254808D01*
X103327618Y-60254808D02*
X103137142Y-60254808D01*
X103137142Y-60254808D02*
X103041904Y-60207189D01*
X103041904Y-60207189D02*
X102994285Y-60111950D01*
X102994285Y-60111950D02*
X102994285Y-59730998D01*
X102994285Y-59730998D02*
X103041904Y-59635760D01*
X103041904Y-59635760D02*
X103137142Y-59588141D01*
X103137142Y-59588141D02*
X103327618Y-59588141D01*
X103327618Y-59588141D02*
X103422856Y-59635760D01*
X103422856Y-59635760D02*
X103470475Y-59730998D01*
X103470475Y-59730998D02*
X103470475Y-59826236D01*
X103470475Y-59826236D02*
X102994285Y-59921474D01*
X104327618Y-60207189D02*
X104232380Y-60254808D01*
X104232380Y-60254808D02*
X104041904Y-60254808D01*
X104041904Y-60254808D02*
X103946666Y-60207189D01*
X103946666Y-60207189D02*
X103899047Y-60159569D01*
X103899047Y-60159569D02*
X103851428Y-60064331D01*
X103851428Y-60064331D02*
X103851428Y-59778617D01*
X103851428Y-59778617D02*
X103899047Y-59683379D01*
X103899047Y-59683379D02*
X103946666Y-59635760D01*
X103946666Y-59635760D02*
X104041904Y-59588141D01*
X104041904Y-59588141D02*
X104232380Y-59588141D01*
X104232380Y-59588141D02*
X104327618Y-59635760D01*
X104613333Y-59588141D02*
X104994285Y-59588141D01*
X104756190Y-59254808D02*
X104756190Y-60111950D01*
X104756190Y-60111950D02*
X104803809Y-60207189D01*
X104803809Y-60207189D02*
X104899047Y-60254808D01*
X104899047Y-60254808D02*
X104994285Y-60254808D01*
X105327619Y-60254808D02*
X105327619Y-59588141D01*
X105327619Y-59254808D02*
X105280000Y-59302427D01*
X105280000Y-59302427D02*
X105327619Y-59350046D01*
X105327619Y-59350046D02*
X105375238Y-59302427D01*
X105375238Y-59302427D02*
X105327619Y-59254808D01*
X105327619Y-59254808D02*
X105327619Y-59350046D01*
X105708571Y-59588141D02*
X105946666Y-60254808D01*
X105946666Y-60254808D02*
X106184761Y-59588141D01*
X106946666Y-60207189D02*
X106851428Y-60254808D01*
X106851428Y-60254808D02*
X106660952Y-60254808D01*
X106660952Y-60254808D02*
X106565714Y-60207189D01*
X106565714Y-60207189D02*
X106518095Y-60111950D01*
X106518095Y-60111950D02*
X106518095Y-59730998D01*
X106518095Y-59730998D02*
X106565714Y-59635760D01*
X106565714Y-59635760D02*
X106660952Y-59588141D01*
X106660952Y-59588141D02*
X106851428Y-59588141D01*
X106851428Y-59588141D02*
X106946666Y-59635760D01*
X106946666Y-59635760D02*
X106994285Y-59730998D01*
X106994285Y-59730998D02*
X106994285Y-59826236D01*
X106994285Y-59826236D02*
X106518095Y-59921474D01*
X36390476Y-36054819D02*
X36390476Y-36769104D01*
X36390476Y-36769104D02*
X36342857Y-36911961D01*
X36342857Y-36911961D02*
X36247619Y-37007200D01*
X36247619Y-37007200D02*
X36104762Y-37054819D01*
X36104762Y-37054819D02*
X36009524Y-37054819D01*
X37390476Y-37054819D02*
X36819048Y-37054819D01*
X37104762Y-37054819D02*
X37104762Y-36054819D01*
X37104762Y-36054819D02*
X37009524Y-36197676D01*
X37009524Y-36197676D02*
X36914286Y-36292914D01*
X36914286Y-36292914D02*
X36819048Y-36340533D01*
X38247619Y-36388152D02*
X38247619Y-37054819D01*
X38009524Y-36007200D02*
X37771429Y-36721485D01*
X37771429Y-36721485D02*
X38390476Y-36721485D01*
X46266666Y-45254819D02*
X46266666Y-45969104D01*
X46266666Y-45969104D02*
X46219047Y-46111961D01*
X46219047Y-46111961D02*
X46123809Y-46207200D01*
X46123809Y-46207200D02*
X45980952Y-46254819D01*
X45980952Y-46254819D02*
X45885714Y-46254819D01*
X47219047Y-45254819D02*
X46742857Y-45254819D01*
X46742857Y-45254819D02*
X46695238Y-45731009D01*
X46695238Y-45731009D02*
X46742857Y-45683390D01*
X46742857Y-45683390D02*
X46838095Y-45635771D01*
X46838095Y-45635771D02*
X47076190Y-45635771D01*
X47076190Y-45635771D02*
X47171428Y-45683390D01*
X47171428Y-45683390D02*
X47219047Y-45731009D01*
X47219047Y-45731009D02*
X47266666Y-45826247D01*
X47266666Y-45826247D02*
X47266666Y-46064342D01*
X47266666Y-46064342D02*
X47219047Y-46159580D01*
X47219047Y-46159580D02*
X47171428Y-46207200D01*
X47171428Y-46207200D02*
X47076190Y-46254819D01*
X47076190Y-46254819D02*
X46838095Y-46254819D01*
X46838095Y-46254819D02*
X46742857Y-46207200D01*
X46742857Y-46207200D02*
X46695238Y-46159580D01*
X62547618Y-46254819D02*
X62547618Y-46969104D01*
X62547618Y-46969104D02*
X62499999Y-47111961D01*
X62499999Y-47111961D02*
X62404761Y-47207200D01*
X62404761Y-47207200D02*
X62261904Y-47254819D01*
X62261904Y-47254819D02*
X62166666Y-47254819D01*
X63166666Y-47254819D02*
X63071428Y-47207200D01*
X63071428Y-47207200D02*
X63023809Y-47159580D01*
X63023809Y-47159580D02*
X62976190Y-47064342D01*
X62976190Y-47064342D02*
X62976190Y-46778628D01*
X62976190Y-46778628D02*
X63023809Y-46683390D01*
X63023809Y-46683390D02*
X63071428Y-46635771D01*
X63071428Y-46635771D02*
X63166666Y-46588152D01*
X63166666Y-46588152D02*
X63309523Y-46588152D01*
X63309523Y-46588152D02*
X63404761Y-46635771D01*
X63404761Y-46635771D02*
X63452380Y-46683390D01*
X63452380Y-46683390D02*
X63499999Y-46778628D01*
X63499999Y-46778628D02*
X63499999Y-47064342D01*
X63499999Y-47064342D02*
X63452380Y-47159580D01*
X63452380Y-47159580D02*
X63404761Y-47207200D01*
X63404761Y-47207200D02*
X63309523Y-47254819D01*
X63309523Y-47254819D02*
X63166666Y-47254819D01*
X63833333Y-46588152D02*
X64071428Y-47254819D01*
X64309523Y-46588152D02*
X64071428Y-47254819D01*
X64071428Y-47254819D02*
X63976190Y-47492914D01*
X63976190Y-47492914D02*
X63928571Y-47540533D01*
X63928571Y-47540533D02*
X63833333Y-47588152D01*
X64642857Y-47207200D02*
X64738095Y-47254819D01*
X64738095Y-47254819D02*
X64928571Y-47254819D01*
X64928571Y-47254819D02*
X65023809Y-47207200D01*
X65023809Y-47207200D02*
X65071428Y-47111961D01*
X65071428Y-47111961D02*
X65071428Y-47064342D01*
X65071428Y-47064342D02*
X65023809Y-46969104D01*
X65023809Y-46969104D02*
X64928571Y-46921485D01*
X64928571Y-46921485D02*
X64785714Y-46921485D01*
X64785714Y-46921485D02*
X64690476Y-46873866D01*
X64690476Y-46873866D02*
X64642857Y-46778628D01*
X64642857Y-46778628D02*
X64642857Y-46731009D01*
X64642857Y-46731009D02*
X64690476Y-46635771D01*
X64690476Y-46635771D02*
X64785714Y-46588152D01*
X64785714Y-46588152D02*
X64928571Y-46588152D01*
X64928571Y-46588152D02*
X65023809Y-46635771D01*
X65357143Y-46588152D02*
X65738095Y-46588152D01*
X65500000Y-46254819D02*
X65500000Y-47111961D01*
X65500000Y-47111961D02*
X65547619Y-47207200D01*
X65547619Y-47207200D02*
X65642857Y-47254819D01*
X65642857Y-47254819D02*
X65738095Y-47254819D01*
X66071429Y-47254819D02*
X66071429Y-46588152D01*
X66071429Y-46254819D02*
X66023810Y-46302438D01*
X66023810Y-46302438D02*
X66071429Y-46350057D01*
X66071429Y-46350057D02*
X66119048Y-46302438D01*
X66119048Y-46302438D02*
X66071429Y-46254819D01*
X66071429Y-46254819D02*
X66071429Y-46350057D01*
X66976190Y-47207200D02*
X66880952Y-47254819D01*
X66880952Y-47254819D02*
X66690476Y-47254819D01*
X66690476Y-47254819D02*
X66595238Y-47207200D01*
X66595238Y-47207200D02*
X66547619Y-47159580D01*
X66547619Y-47159580D02*
X66500000Y-47064342D01*
X66500000Y-47064342D02*
X66500000Y-46778628D01*
X66500000Y-46778628D02*
X66547619Y-46683390D01*
X66547619Y-46683390D02*
X66595238Y-46635771D01*
X66595238Y-46635771D02*
X66690476Y-46588152D01*
X66690476Y-46588152D02*
X66880952Y-46588152D01*
X66880952Y-46588152D02*
X66976190Y-46635771D01*
X67404762Y-47254819D02*
X67404762Y-46254819D01*
X67500000Y-46873866D02*
X67785714Y-47254819D01*
X67785714Y-46588152D02*
X67404762Y-46969104D01*
D11*
%TO.C,J7*%
X80470000Y-77530000D02*
X85610000Y-77530000D01*
X80470000Y-77530000D02*
X80470000Y-74870000D01*
X85610000Y-77530000D02*
X85610000Y-74870000D01*
X77870000Y-76200000D02*
X77870000Y-74870000D01*
X77870000Y-74870000D02*
X79200000Y-74870000D01*
X80470000Y-74870000D02*
X85610000Y-74870000D01*
%TO.C,J1*%
X54070000Y-74530000D02*
X54070000Y-77130000D01*
X54070000Y-74530000D02*
X56730000Y-74530000D01*
X54070000Y-77130000D02*
X56730000Y-77130000D01*
X55400000Y-71930000D02*
X56730000Y-71930000D01*
X56730000Y-71930000D02*
X56730000Y-73260000D01*
X56730000Y-74530000D02*
X56730000Y-77130000D01*
%TO.C,J12*%
X45470000Y-77130000D02*
X53150000Y-77130000D01*
X45470000Y-77130000D02*
X45470000Y-74470000D01*
X53150000Y-77130000D02*
X53150000Y-74470000D01*
X42870000Y-75800000D02*
X42870000Y-74470000D01*
X42870000Y-74470000D02*
X44200000Y-74470000D01*
X45470000Y-74470000D02*
X53150000Y-74470000D01*
%TO.C,K1*%
X53750000Y-42840000D02*
X53750000Y-42140000D01*
X54550000Y-42840000D02*
X53750000Y-42840000D01*
X53850000Y-42740000D02*
X53850000Y-36440000D01*
X54550000Y-42740000D02*
X53850000Y-42740000D01*
X57750000Y-42740000D02*
X55750000Y-42740000D01*
X59950000Y-42740000D02*
X58950000Y-42740000D01*
X62150000Y-42740000D02*
X61150000Y-42740000D01*
X63350000Y-42740000D02*
X64050000Y-42740000D01*
X54550000Y-39940000D02*
X55750000Y-39940000D01*
X55150000Y-39940000D02*
X55150000Y-41040000D01*
X55350000Y-39940000D02*
X54950000Y-39240000D01*
X55750000Y-39940000D02*
X55750000Y-39240000D01*
X54550000Y-39240000D02*
X54550000Y-39940000D01*
X55150000Y-39240000D02*
X55150000Y-38140000D01*
X55750000Y-39240000D02*
X54550000Y-39240000D01*
X53850000Y-36440000D02*
X54550000Y-36440000D01*
X55750000Y-36440000D02*
X57750000Y-36440000D01*
X58950000Y-36440000D02*
X59950000Y-36440000D01*
X61150000Y-36440000D02*
X62150000Y-36440000D01*
X63350000Y-36440000D02*
X64050000Y-36440000D01*
X64050000Y-36440000D02*
X64050000Y-42740000D01*
%TO.C,J6*%
X80470000Y-73905000D02*
X85610000Y-73905000D01*
X80470000Y-73905000D02*
X80470000Y-71245000D01*
X85610000Y-73905000D02*
X85610000Y-71245000D01*
X77870000Y-72575000D02*
X77870000Y-71245000D01*
X77870000Y-71245000D02*
X79200000Y-71245000D01*
X80470000Y-71245000D02*
X85610000Y-71245000D01*
%TO.C,J11*%
X63470000Y-74270000D02*
X63470000Y-76870000D01*
X63470000Y-74270000D02*
X66130000Y-74270000D01*
X63470000Y-76870000D02*
X66130000Y-76870000D01*
X64800000Y-71670000D02*
X66130000Y-71670000D01*
X66130000Y-71670000D02*
X66130000Y-73000000D01*
X66130000Y-74270000D02*
X66130000Y-76870000D01*
%TO.C,J10*%
X67070000Y-74270000D02*
X67070000Y-76870000D01*
X67070000Y-74270000D02*
X69730000Y-74270000D01*
X67070000Y-76870000D02*
X69730000Y-76870000D01*
X68400000Y-71670000D02*
X69730000Y-71670000D01*
X69730000Y-71670000D02*
X69730000Y-73000000D01*
X69730000Y-74270000D02*
X69730000Y-76870000D01*
%TO.C,C4*%
X102689000Y-70274748D02*
X102689000Y-70904748D01*
X103004000Y-70589748D02*
X102374000Y-70589748D01*
X104080000Y-73774989D02*
X97620000Y-73774989D01*
X104080000Y-73814989D02*
X97620000Y-73814989D01*
X104080000Y-73854989D02*
X97620000Y-73854989D01*
X104078000Y-73894989D02*
X97622000Y-73894989D01*
X104077000Y-73934989D02*
X97623000Y-73934989D01*
X104074000Y-73974989D02*
X97626000Y-73974989D01*
X104072000Y-74014989D02*
X101890000Y-74014989D01*
X99810000Y-74014989D02*
X97628000Y-74014989D01*
X104068000Y-74054989D02*
X101890000Y-74054989D01*
X99810000Y-74054989D02*
X97632000Y-74054989D01*
X104065000Y-74094989D02*
X101890000Y-74094989D01*
X99810000Y-74094989D02*
X97635000Y-74094989D01*
X104061000Y-74134989D02*
X101890000Y-74134989D01*
X99810000Y-74134989D02*
X97639000Y-74134989D01*
X104056000Y-74174989D02*
X101890000Y-74174989D01*
X99810000Y-74174989D02*
X97644000Y-74174989D01*
X104051000Y-74214989D02*
X101890000Y-74214989D01*
X99810000Y-74214989D02*
X97649000Y-74214989D01*
X104045000Y-74254989D02*
X101890000Y-74254989D01*
X99810000Y-74254989D02*
X97655000Y-74254989D01*
X104039000Y-74294989D02*
X101890000Y-74294989D01*
X99810000Y-74294989D02*
X97661000Y-74294989D01*
X104032000Y-74334989D02*
X101890000Y-74334989D01*
X99810000Y-74334989D02*
X97668000Y-74334989D01*
X104025000Y-74374989D02*
X101890000Y-74374989D01*
X99810000Y-74374989D02*
X97675000Y-74374989D01*
X104017000Y-74414989D02*
X101890000Y-74414989D01*
X99810000Y-74414989D02*
X97683000Y-74414989D01*
X104009000Y-74454989D02*
X101890000Y-74454989D01*
X99810000Y-74454989D02*
X97691000Y-74454989D01*
X104000000Y-74495989D02*
X101890000Y-74495989D01*
X99810000Y-74495989D02*
X97700000Y-74495989D01*
X103991000Y-74535989D02*
X101890000Y-74535989D01*
X99810000Y-74535989D02*
X97709000Y-74535989D01*
X103981000Y-74575989D02*
X101890000Y-74575989D01*
X99810000Y-74575989D02*
X97719000Y-74575989D01*
X103971000Y-74615989D02*
X101890000Y-74615989D01*
X99810000Y-74615989D02*
X97729000Y-74615989D01*
X103960000Y-74655989D02*
X101890000Y-74655989D01*
X99810000Y-74655989D02*
X97740000Y-74655989D01*
X103948000Y-74695989D02*
X101890000Y-74695989D01*
X99810000Y-74695989D02*
X97752000Y-74695989D01*
X103936000Y-74735989D02*
X101890000Y-74735989D01*
X99810000Y-74735989D02*
X97764000Y-74735989D01*
X103924000Y-74775989D02*
X101890000Y-74775989D01*
X99810000Y-74775989D02*
X97776000Y-74775989D01*
X103911000Y-74815989D02*
X101890000Y-74815989D01*
X99810000Y-74815989D02*
X97789000Y-74815989D01*
X103897000Y-74855989D02*
X101890000Y-74855989D01*
X99810000Y-74855989D02*
X97803000Y-74855989D01*
X103883000Y-74895989D02*
X101890000Y-74895989D01*
X99810000Y-74895989D02*
X97817000Y-74895989D01*
X103868000Y-74935989D02*
X101890000Y-74935989D01*
X99810000Y-74935989D02*
X97832000Y-74935989D01*
X103852000Y-74975989D02*
X101890000Y-74975989D01*
X99810000Y-74975989D02*
X97848000Y-74975989D01*
X103836000Y-75015989D02*
X101890000Y-75015989D01*
X99810000Y-75015989D02*
X97864000Y-75015989D01*
X103820000Y-75055989D02*
X101890000Y-75055989D01*
X99810000Y-75055989D02*
X97880000Y-75055989D01*
X103802000Y-75095989D02*
X101890000Y-75095989D01*
X99810000Y-75095989D02*
X97898000Y-75095989D01*
X103784000Y-75135989D02*
X101890000Y-75135989D01*
X99810000Y-75135989D02*
X97916000Y-75135989D01*
X103766000Y-75175989D02*
X101890000Y-75175989D01*
X99810000Y-75175989D02*
X97934000Y-75175989D01*
X103746000Y-75215989D02*
X101890000Y-75215989D01*
X99810000Y-75215989D02*
X97954000Y-75215989D01*
X103726000Y-75255989D02*
X101890000Y-75255989D01*
X99810000Y-75255989D02*
X97974000Y-75255989D01*
X103706000Y-75295989D02*
X101890000Y-75295989D01*
X99810000Y-75295989D02*
X97994000Y-75295989D01*
X103684000Y-75335989D02*
X101890000Y-75335989D01*
X99810000Y-75335989D02*
X98016000Y-75335989D01*
X103662000Y-75375989D02*
X101890000Y-75375989D01*
X99810000Y-75375989D02*
X98038000Y-75375989D01*
X103640000Y-75415989D02*
X101890000Y-75415989D01*
X99810000Y-75415989D02*
X98060000Y-75415989D01*
X103616000Y-75455989D02*
X101890000Y-75455989D01*
X99810000Y-75455989D02*
X98084000Y-75455989D01*
X103592000Y-75495989D02*
X101890000Y-75495989D01*
X99810000Y-75495989D02*
X98108000Y-75495989D01*
X103566000Y-75535989D02*
X101890000Y-75535989D01*
X99810000Y-75535989D02*
X98134000Y-75535989D01*
X103540000Y-75575989D02*
X101890000Y-75575989D01*
X99810000Y-75575989D02*
X98160000Y-75575989D01*
X103514000Y-75615989D02*
X101890000Y-75615989D01*
X99810000Y-75615989D02*
X98186000Y-75615989D01*
X103486000Y-75655989D02*
X101890000Y-75655989D01*
X99810000Y-75655989D02*
X98214000Y-75655989D01*
X103457000Y-75695989D02*
X101890000Y-75695989D01*
X99810000Y-75695989D02*
X98243000Y-75695989D01*
X103428000Y-75735989D02*
X101890000Y-75735989D01*
X99810000Y-75735989D02*
X98272000Y-75735989D01*
X103398000Y-75775989D02*
X101890000Y-75775989D01*
X99810000Y-75775989D02*
X98302000Y-75775989D01*
X103366000Y-75815989D02*
X101890000Y-75815989D01*
X99810000Y-75815989D02*
X98334000Y-75815989D01*
X103334000Y-75855989D02*
X101890000Y-75855989D01*
X99810000Y-75855989D02*
X98366000Y-75855989D01*
X103300000Y-75895989D02*
X101890000Y-75895989D01*
X99810000Y-75895989D02*
X98400000Y-75895989D01*
X103266000Y-75935989D02*
X101890000Y-75935989D01*
X99810000Y-75935989D02*
X98434000Y-75935989D01*
X103230000Y-75975989D02*
X101890000Y-75975989D01*
X99810000Y-75975989D02*
X98470000Y-75975989D01*
X103193000Y-76015989D02*
X101890000Y-76015989D01*
X99810000Y-76015989D02*
X98507000Y-76015989D01*
X103155000Y-76055989D02*
X101890000Y-76055989D01*
X99810000Y-76055989D02*
X98545000Y-76055989D01*
X103115000Y-76095989D02*
X98585000Y-76095989D01*
X103074000Y-76135989D02*
X98626000Y-76135989D01*
X103032000Y-76175989D02*
X98668000Y-76175989D01*
X102987000Y-76215989D02*
X98713000Y-76215989D01*
X102942000Y-76255989D02*
X98758000Y-76255989D01*
X102894000Y-76295989D02*
X98806000Y-76295989D01*
X102845000Y-76335989D02*
X98855000Y-76335989D01*
X102794000Y-76375989D02*
X98906000Y-76375989D01*
X102740000Y-76415989D02*
X98960000Y-76415989D01*
X102684000Y-76455989D02*
X99016000Y-76455989D01*
X102626000Y-76495989D02*
X99074000Y-76495989D01*
X102564000Y-76535989D02*
X99136000Y-76535989D01*
X102500000Y-76575989D02*
X99200000Y-76575989D01*
X102431000Y-76615989D02*
X99269000Y-76615989D01*
X102359000Y-76655989D02*
X99341000Y-76655989D01*
X102282000Y-76695989D02*
X99418000Y-76695989D01*
X102200000Y-76735989D02*
X99500000Y-76735989D01*
X102112000Y-76775989D02*
X99588000Y-76775989D01*
X102015000Y-76815989D02*
X99685000Y-76815989D01*
X101909000Y-76855989D02*
X99791000Y-76855989D01*
X101790000Y-76895989D02*
X99910000Y-76895989D01*
X101652000Y-76935989D02*
X100048000Y-76935989D01*
X101483000Y-76975989D02*
X100217000Y-76975989D01*
X101252000Y-77015989D02*
X100448000Y-77015989D01*
X104120000Y-73774989D02*
G75*
G03*
X104120000Y-73774989I-3270000J0D01*
G01*
%TO.C,C9*%
X102650241Y-43639000D02*
X102020241Y-43639000D01*
X102335241Y-43954000D02*
X102335241Y-43324000D01*
X99150000Y-45030000D02*
X99150000Y-38570000D01*
X99110000Y-45030000D02*
X99110000Y-38570000D01*
X99070000Y-45030000D02*
X99070000Y-38570000D01*
X99030000Y-45028000D02*
X99030000Y-38572000D01*
X98990000Y-45027000D02*
X98990000Y-38573000D01*
X98950000Y-45024000D02*
X98950000Y-38576000D01*
X98910000Y-45022000D02*
X98910000Y-42840000D01*
X98910000Y-40760000D02*
X98910000Y-38578000D01*
X98870000Y-45018000D02*
X98870000Y-42840000D01*
X98870000Y-40760000D02*
X98870000Y-38582000D01*
X98830000Y-45015000D02*
X98830000Y-42840000D01*
X98830000Y-40760000D02*
X98830000Y-38585000D01*
X98790000Y-45011000D02*
X98790000Y-42840000D01*
X98790000Y-40760000D02*
X98790000Y-38589000D01*
X98750000Y-45006000D02*
X98750000Y-42840000D01*
X98750000Y-40760000D02*
X98750000Y-38594000D01*
X98710000Y-45001000D02*
X98710000Y-42840000D01*
X98710000Y-40760000D02*
X98710000Y-38599000D01*
X98670000Y-44995000D02*
X98670000Y-42840000D01*
X98670000Y-40760000D02*
X98670000Y-38605000D01*
X98630000Y-44989000D02*
X98630000Y-42840000D01*
X98630000Y-40760000D02*
X98630000Y-38611000D01*
X98590000Y-44982000D02*
X98590000Y-42840000D01*
X98590000Y-40760000D02*
X98590000Y-38618000D01*
X98550000Y-44975000D02*
X98550000Y-42840000D01*
X98550000Y-40760000D02*
X98550000Y-38625000D01*
X98510000Y-44967000D02*
X98510000Y-42840000D01*
X98510000Y-40760000D02*
X98510000Y-38633000D01*
X98470000Y-44959000D02*
X98470000Y-42840000D01*
X98470000Y-40760000D02*
X98470000Y-38641000D01*
X98429000Y-44950000D02*
X98429000Y-42840000D01*
X98429000Y-40760000D02*
X98429000Y-38650000D01*
X98389000Y-44941000D02*
X98389000Y-42840000D01*
X98389000Y-40760000D02*
X98389000Y-38659000D01*
X98349000Y-44931000D02*
X98349000Y-42840000D01*
X98349000Y-40760000D02*
X98349000Y-38669000D01*
X98309000Y-44921000D02*
X98309000Y-42840000D01*
X98309000Y-40760000D02*
X98309000Y-38679000D01*
X98269000Y-44910000D02*
X98269000Y-42840000D01*
X98269000Y-40760000D02*
X98269000Y-38690000D01*
X98229000Y-44898000D02*
X98229000Y-42840000D01*
X98229000Y-40760000D02*
X98229000Y-38702000D01*
X98189000Y-44886000D02*
X98189000Y-42840000D01*
X98189000Y-40760000D02*
X98189000Y-38714000D01*
X98149000Y-44874000D02*
X98149000Y-42840000D01*
X98149000Y-40760000D02*
X98149000Y-38726000D01*
X98109000Y-44861000D02*
X98109000Y-42840000D01*
X98109000Y-40760000D02*
X98109000Y-38739000D01*
X98069000Y-44847000D02*
X98069000Y-42840000D01*
X98069000Y-40760000D02*
X98069000Y-38753000D01*
X98029000Y-44833000D02*
X98029000Y-42840000D01*
X98029000Y-40760000D02*
X98029000Y-38767000D01*
X97989000Y-44818000D02*
X97989000Y-42840000D01*
X97989000Y-40760000D02*
X97989000Y-38782000D01*
X97949000Y-44802000D02*
X97949000Y-42840000D01*
X97949000Y-40760000D02*
X97949000Y-38798000D01*
X97909000Y-44786000D02*
X97909000Y-42840000D01*
X97909000Y-40760000D02*
X97909000Y-38814000D01*
X97869000Y-44770000D02*
X97869000Y-42840000D01*
X97869000Y-40760000D02*
X97869000Y-38830000D01*
X97829000Y-44752000D02*
X97829000Y-42840000D01*
X97829000Y-40760000D02*
X97829000Y-38848000D01*
X97789000Y-44734000D02*
X97789000Y-42840000D01*
X97789000Y-40760000D02*
X97789000Y-38866000D01*
X97749000Y-44716000D02*
X97749000Y-42840000D01*
X97749000Y-40760000D02*
X97749000Y-38884000D01*
X97709000Y-44696000D02*
X97709000Y-42840000D01*
X97709000Y-40760000D02*
X97709000Y-38904000D01*
X97669000Y-44676000D02*
X97669000Y-42840000D01*
X97669000Y-40760000D02*
X97669000Y-38924000D01*
X97629000Y-44656000D02*
X97629000Y-42840000D01*
X97629000Y-40760000D02*
X97629000Y-38944000D01*
X97589000Y-44634000D02*
X97589000Y-42840000D01*
X97589000Y-40760000D02*
X97589000Y-38966000D01*
X97549000Y-44612000D02*
X97549000Y-42840000D01*
X97549000Y-40760000D02*
X97549000Y-38988000D01*
X97509000Y-44590000D02*
X97509000Y-42840000D01*
X97509000Y-40760000D02*
X97509000Y-39010000D01*
X97469000Y-44566000D02*
X97469000Y-42840000D01*
X97469000Y-40760000D02*
X97469000Y-39034000D01*
X97429000Y-44542000D02*
X97429000Y-42840000D01*
X97429000Y-40760000D02*
X97429000Y-39058000D01*
X97389000Y-44516000D02*
X97389000Y-42840000D01*
X97389000Y-40760000D02*
X97389000Y-39084000D01*
X97349000Y-44490000D02*
X97349000Y-42840000D01*
X97349000Y-40760000D02*
X97349000Y-39110000D01*
X97309000Y-44464000D02*
X97309000Y-42840000D01*
X97309000Y-40760000D02*
X97309000Y-39136000D01*
X97269000Y-44436000D02*
X97269000Y-42840000D01*
X97269000Y-40760000D02*
X97269000Y-39164000D01*
X97229000Y-44407000D02*
X97229000Y-42840000D01*
X97229000Y-40760000D02*
X97229000Y-39193000D01*
X97189000Y-44378000D02*
X97189000Y-42840000D01*
X97189000Y-40760000D02*
X97189000Y-39222000D01*
X97149000Y-44348000D02*
X97149000Y-42840000D01*
X97149000Y-40760000D02*
X97149000Y-39252000D01*
X97109000Y-44316000D02*
X97109000Y-42840000D01*
X97109000Y-40760000D02*
X97109000Y-39284000D01*
X97069000Y-44284000D02*
X97069000Y-42840000D01*
X97069000Y-40760000D02*
X97069000Y-39316000D01*
X97029000Y-44250000D02*
X97029000Y-42840000D01*
X97029000Y-40760000D02*
X97029000Y-39350000D01*
X96989000Y-44216000D02*
X96989000Y-42840000D01*
X96989000Y-40760000D02*
X96989000Y-39384000D01*
X96949000Y-44180000D02*
X96949000Y-42840000D01*
X96949000Y-40760000D02*
X96949000Y-39420000D01*
X96909000Y-44143000D02*
X96909000Y-42840000D01*
X96909000Y-40760000D02*
X96909000Y-39457000D01*
X96869000Y-44105000D02*
X96869000Y-42840000D01*
X96869000Y-40760000D02*
X96869000Y-39495000D01*
X96829000Y-44065000D02*
X96829000Y-39535000D01*
X96789000Y-44024000D02*
X96789000Y-39576000D01*
X96749000Y-43982000D02*
X96749000Y-39618000D01*
X96709000Y-43937000D02*
X96709000Y-39663000D01*
X96669000Y-43892000D02*
X96669000Y-39708000D01*
X96629000Y-43844000D02*
X96629000Y-39756000D01*
X96589000Y-43795000D02*
X96589000Y-39805000D01*
X96549000Y-43744000D02*
X96549000Y-39856000D01*
X96509000Y-43690000D02*
X96509000Y-39910000D01*
X96469000Y-43634000D02*
X96469000Y-39966000D01*
X96429000Y-43576000D02*
X96429000Y-40024000D01*
X96389000Y-43514000D02*
X96389000Y-40086000D01*
X96349000Y-43450000D02*
X96349000Y-40150000D01*
X96309000Y-43381000D02*
X96309000Y-40219000D01*
X96269000Y-43309000D02*
X96269000Y-40291000D01*
X96229000Y-43232000D02*
X96229000Y-40368000D01*
X96189000Y-43150000D02*
X96189000Y-40450000D01*
X96149000Y-43062000D02*
X96149000Y-40538000D01*
X96109000Y-42965000D02*
X96109000Y-40635000D01*
X96069000Y-42859000D02*
X96069000Y-40741000D01*
X96029000Y-42740000D02*
X96029000Y-40860000D01*
X95989000Y-42602000D02*
X95989000Y-40998000D01*
X95949000Y-42433000D02*
X95949000Y-41167000D01*
X95909000Y-42202000D02*
X95909000Y-41398000D01*
X102420000Y-41800000D02*
G75*
G03*
X102420000Y-41800000I-3270000J0D01*
G01*
%TO.C,R24*%
X72877500Y-46654724D02*
X72877500Y-46145276D01*
X73922500Y-46654724D02*
X73922500Y-46145276D01*
%TO.C,J17*%
X34330000Y-39810000D02*
X34330000Y-32130000D01*
X34330000Y-39810000D02*
X31670000Y-39810000D01*
X34330000Y-32130000D02*
X31670000Y-32130000D01*
X33000000Y-42410000D02*
X31670000Y-42410000D01*
X31670000Y-42410000D02*
X31670000Y-41080000D01*
X31670000Y-39810000D02*
X31670000Y-32130000D01*
%TO.C,J16*%
X34270000Y-73505000D02*
X41950000Y-73505000D01*
X34270000Y-73505000D02*
X34270000Y-70845000D01*
X41950000Y-73505000D02*
X41950000Y-70845000D01*
X31670000Y-72175000D02*
X31670000Y-70845000D01*
X31670000Y-70845000D02*
X33000000Y-70845000D01*
X34270000Y-70845000D02*
X41950000Y-70845000D01*
%TO.C,Q1*%
X73900000Y-43760000D02*
X75300000Y-43760000D01*
X75300000Y-41440000D02*
X73400000Y-41440000D01*
%TO.C,J2*%
X44270000Y-41670000D02*
X44270000Y-44270000D01*
X44270000Y-41670000D02*
X46930000Y-41670000D01*
X44270000Y-44270000D02*
X46930000Y-44270000D01*
X45600000Y-39070000D02*
X46930000Y-39070000D01*
X46930000Y-39070000D02*
X46930000Y-40400000D01*
X46930000Y-41670000D02*
X46930000Y-44270000D01*
%TO.C,J8*%
X92930000Y-74670000D02*
X90330000Y-74670000D01*
X92930000Y-74670000D02*
X92930000Y-77330000D01*
X90330000Y-74670000D02*
X90330000Y-77330000D01*
X95530000Y-76000000D02*
X95530000Y-77330000D01*
X95530000Y-77330000D02*
X94200000Y-77330000D01*
X92930000Y-77330000D02*
X90330000Y-77330000D01*
%TO.C,D4*%
X52400000Y-32550000D02*
X52400000Y-35850000D01*
X52400000Y-32550000D02*
X57800000Y-32550000D01*
X52400000Y-35850000D02*
X57800000Y-35850000D01*
%TO.C,U1*%
X43580000Y-47820000D02*
X43580000Y-43179000D01*
X43580000Y-47820000D02*
X33340000Y-47820000D01*
X43580000Y-46310000D02*
X33340000Y-46310000D01*
X43580000Y-43179000D02*
X33340000Y-43179000D01*
X40310000Y-47820000D02*
X40310000Y-46310000D01*
X36609000Y-47820000D02*
X36609000Y-46310000D01*
X33340000Y-47820000D02*
X33340000Y-43179000D01*
%TO.C,D3*%
X49950000Y-43200000D02*
X53250000Y-43200000D01*
X49950000Y-43200000D02*
X49950000Y-37800000D01*
X53250000Y-43200000D02*
X53250000Y-37800000D01*
%TO.C,U3*%
X26345000Y-48875000D02*
X26345000Y-55801667D01*
X26345000Y-55801667D02*
X26705000Y-55801667D01*
X26345000Y-62728333D02*
X26345000Y-69654999D01*
X26345000Y-69654999D02*
X77205000Y-69655000D01*
X26705000Y-55801667D02*
X26705000Y-62728333D01*
X26705000Y-62728333D02*
X26345000Y-62728333D01*
X77205000Y-48875001D02*
X26345000Y-48875000D01*
X77205000Y-69655000D02*
X77205000Y-48875001D01*
%TO.C,J4*%
X40580000Y-38895000D02*
X37980000Y-38895000D01*
X40580000Y-38895000D02*
X40580000Y-41555000D01*
X37980000Y-38895000D02*
X37980000Y-41555000D01*
X43180000Y-40225000D02*
X43180000Y-41555000D01*
X43180000Y-41555000D02*
X41850000Y-41555000D01*
X40580000Y-41555000D02*
X37980000Y-41555000D01*
%TO.C,J15*%
X34270000Y-77130000D02*
X41950000Y-77130000D01*
X34270000Y-77130000D02*
X34270000Y-74470000D01*
X41950000Y-77130000D02*
X41950000Y-74470000D01*
X31670000Y-75800000D02*
X31670000Y-74470000D01*
X31670000Y-74470000D02*
X33000000Y-74470000D01*
X34270000Y-74470000D02*
X41950000Y-74470000D01*
%TO.C,J9*%
X45470000Y-73530000D02*
X53150000Y-73530000D01*
X45470000Y-73530000D02*
X45470000Y-70870000D01*
X53150000Y-73530000D02*
X53150000Y-70870000D01*
X42870000Y-72200000D02*
X42870000Y-70870000D01*
X42870000Y-70870000D02*
X44200000Y-70870000D01*
X45470000Y-70870000D02*
X53150000Y-70870000D01*
%TO.C,Q2*%
X59200000Y-72440000D02*
X57525000Y-72440000D01*
X59200000Y-72440000D02*
X59850000Y-72440000D01*
X59200000Y-75560000D02*
X58550000Y-75560000D01*
X59200000Y-75560000D02*
X59850000Y-75560000D01*
%TO.C,U7*%
X88080000Y-47770000D02*
X77920000Y-47770000D01*
X77920000Y-47770000D02*
X77920000Y-70630000D01*
X77920000Y-70630000D02*
X88080000Y-70630000D01*
X88080000Y-70630000D02*
X88080000Y-47770000D01*
%TO.C,J13*%
X68705000Y-39790000D02*
X68705000Y-38460000D01*
X68705000Y-39790000D02*
X68135000Y-39790000D01*
X68705000Y-38460000D02*
X67682530Y-38460000D01*
X67375000Y-41185000D02*
X66045000Y-41185000D01*
X67067470Y-38460000D02*
X66045000Y-38460000D01*
X66615000Y-39790000D02*
X66045000Y-39790000D01*
X66045000Y-41185000D02*
X66045000Y-40425000D01*
X66045000Y-39790000D02*
X66045000Y-38460000D01*
%TO.C,R23*%
X75477500Y-46654724D02*
X75477500Y-46145276D01*
X76522500Y-46654724D02*
X76522500Y-46145276D01*
%TO.C,J3*%
X105895000Y-55594989D02*
X96945000Y-55594989D01*
X105895000Y-55594989D02*
X105895000Y-56164989D01*
X96945000Y-55594989D02*
X96945000Y-56617459D01*
X107290000Y-56924989D02*
X107290000Y-58254989D01*
X96945000Y-57232519D02*
X96945000Y-58254989D01*
X105895000Y-57684989D02*
X105895000Y-58254989D01*
X107290000Y-58254989D02*
X106530000Y-58254989D01*
X105895000Y-58254989D02*
X96945000Y-58254989D01*
%TO.C,J14*%
X38270000Y-35305000D02*
X45950000Y-35305000D01*
X38270000Y-35305000D02*
X38270000Y-32645000D01*
X45950000Y-35305000D02*
X45950000Y-32645000D01*
X35670000Y-33975000D02*
X35670000Y-32645000D01*
X35670000Y-32645000D02*
X37000000Y-32645000D01*
X38270000Y-32645000D02*
X45950000Y-32645000D01*
%TO.C,J5*%
X51270000Y-46530000D02*
X61490000Y-46530000D01*
X51270000Y-46530000D02*
X51270000Y-43870000D01*
X61490000Y-46530000D02*
X61490000Y-43870000D01*
X48670000Y-45200000D02*
X48670000Y-43870000D01*
X48670000Y-43870000D02*
X50000000Y-43870000D01*
X51270000Y-43870000D02*
X61490000Y-43870000D01*
%TD*%
M02*
