%TF.GenerationSoftware,KiCad,Pcbnew,(6.0.2)*%
%TF.CreationDate,2024-02-06T23:57:52+03:00*%
%TF.ProjectId,Pistol_Camera_Driver,50697374-6f6c-45f4-9361-6d6572615f44,rev?*%
%TF.SameCoordinates,Original*%
%TF.FileFunction,Legend,Bot*%
%TF.FilePolarity,Positive*%
%FSLAX46Y46*%
G04 Gerber Fmt 4.6, Leading zero omitted, Abs format (unit mm)*
G04 Created by KiCad (PCBNEW (6.0.2)) date 2024-02-06 23:57:52*
%MOMM*%
%LPD*%
G01*
G04 APERTURE LIST*
%ADD10C,0.120000*%
%ADD11C,0.150000*%
G04 APERTURE END LIST*
D10*
X95200000Y-71450000D02*
X95200000Y-72850000D01*
X92200000Y-65450000D02*
X94400000Y-65450000D01*
X94400000Y-65450000D02*
X94800000Y-65050000D01*
X96600000Y-70850000D02*
X95200000Y-71450000D01*
D11*
%TO.C,C12*%
X107642857Y-43807142D02*
X107690476Y-43854761D01*
X107833333Y-43902380D01*
X107928571Y-43902380D01*
X108071428Y-43854761D01*
X108166666Y-43759523D01*
X108214285Y-43664285D01*
X108261904Y-43473809D01*
X108261904Y-43330952D01*
X108214285Y-43140476D01*
X108166666Y-43045238D01*
X108071428Y-42950000D01*
X107928571Y-42902380D01*
X107833333Y-42902380D01*
X107690476Y-42950000D01*
X107642857Y-42997619D01*
X106690476Y-43902380D02*
X107261904Y-43902380D01*
X106976190Y-43902380D02*
X106976190Y-42902380D01*
X107071428Y-43045238D01*
X107166666Y-43140476D01*
X107261904Y-43188095D01*
X106309523Y-42997619D02*
X106261904Y-42950000D01*
X106166666Y-42902380D01*
X105928571Y-42902380D01*
X105833333Y-42950000D01*
X105785714Y-42997619D01*
X105738095Y-43092857D01*
X105738095Y-43188095D01*
X105785714Y-43330952D01*
X106357142Y-43902380D01*
X105738095Y-43902380D01*
%TO.C,R12*%
X92242857Y-47252380D02*
X92576190Y-46776190D01*
X92814285Y-47252380D02*
X92814285Y-46252380D01*
X92433333Y-46252380D01*
X92338095Y-46300000D01*
X92290476Y-46347619D01*
X92242857Y-46442857D01*
X92242857Y-46585714D01*
X92290476Y-46680952D01*
X92338095Y-46728571D01*
X92433333Y-46776190D01*
X92814285Y-46776190D01*
X91290476Y-47252380D02*
X91861904Y-47252380D01*
X91576190Y-47252380D02*
X91576190Y-46252380D01*
X91671428Y-46395238D01*
X91766666Y-46490476D01*
X91861904Y-46538095D01*
X90909523Y-46347619D02*
X90861904Y-46300000D01*
X90766666Y-46252380D01*
X90528571Y-46252380D01*
X90433333Y-46300000D01*
X90385714Y-46347619D01*
X90338095Y-46442857D01*
X90338095Y-46538095D01*
X90385714Y-46680952D01*
X90957142Y-47252380D01*
X90338095Y-47252380D01*
%TO.C,R13*%
X105342857Y-59002380D02*
X105676190Y-58526190D01*
X105914285Y-59002380D02*
X105914285Y-58002380D01*
X105533333Y-58002380D01*
X105438095Y-58050000D01*
X105390476Y-58097619D01*
X105342857Y-58192857D01*
X105342857Y-58335714D01*
X105390476Y-58430952D01*
X105438095Y-58478571D01*
X105533333Y-58526190D01*
X105914285Y-58526190D01*
X104390476Y-59002380D02*
X104961904Y-59002380D01*
X104676190Y-59002380D02*
X104676190Y-58002380D01*
X104771428Y-58145238D01*
X104866666Y-58240476D01*
X104961904Y-58288095D01*
X104057142Y-58002380D02*
X103438095Y-58002380D01*
X103771428Y-58383333D01*
X103628571Y-58383333D01*
X103533333Y-58430952D01*
X103485714Y-58478571D01*
X103438095Y-58573809D01*
X103438095Y-58811904D01*
X103485714Y-58907142D01*
X103533333Y-58954761D01*
X103628571Y-59002380D01*
X103914285Y-59002380D01*
X104009523Y-58954761D01*
X104057142Y-58907142D01*
%TO.C,R16*%
X109642857Y-53452380D02*
X109976190Y-52976190D01*
X110214285Y-53452380D02*
X110214285Y-52452380D01*
X109833333Y-52452380D01*
X109738095Y-52500000D01*
X109690476Y-52547619D01*
X109642857Y-52642857D01*
X109642857Y-52785714D01*
X109690476Y-52880952D01*
X109738095Y-52928571D01*
X109833333Y-52976190D01*
X110214285Y-52976190D01*
X108690476Y-53452380D02*
X109261904Y-53452380D01*
X108976190Y-53452380D02*
X108976190Y-52452380D01*
X109071428Y-52595238D01*
X109166666Y-52690476D01*
X109261904Y-52738095D01*
X107833333Y-52452380D02*
X108023809Y-52452380D01*
X108119047Y-52500000D01*
X108166666Y-52547619D01*
X108261904Y-52690476D01*
X108309523Y-52880952D01*
X108309523Y-53261904D01*
X108261904Y-53357142D01*
X108214285Y-53404761D01*
X108119047Y-53452380D01*
X107928571Y-53452380D01*
X107833333Y-53404761D01*
X107785714Y-53357142D01*
X107738095Y-53261904D01*
X107738095Y-53023809D01*
X107785714Y-52928571D01*
X107833333Y-52880952D01*
X107928571Y-52833333D01*
X108119047Y-52833333D01*
X108214285Y-52880952D01*
X108261904Y-52928571D01*
X108309523Y-53023809D01*
%TO.C,C7*%
X105366666Y-71007142D02*
X105414285Y-71054761D01*
X105557142Y-71102380D01*
X105652380Y-71102380D01*
X105795238Y-71054761D01*
X105890476Y-70959523D01*
X105938095Y-70864285D01*
X105985714Y-70673809D01*
X105985714Y-70530952D01*
X105938095Y-70340476D01*
X105890476Y-70245238D01*
X105795238Y-70150000D01*
X105652380Y-70102380D01*
X105557142Y-70102380D01*
X105414285Y-70150000D01*
X105366666Y-70197619D01*
X105033333Y-70102380D02*
X104366666Y-70102380D01*
X104795238Y-71102380D01*
%TO.C,U2*%
X89961904Y-37852380D02*
X89961904Y-38661904D01*
X89914285Y-38757142D01*
X89866666Y-38804761D01*
X89771428Y-38852380D01*
X89580952Y-38852380D01*
X89485714Y-38804761D01*
X89438095Y-38757142D01*
X89390476Y-38661904D01*
X89390476Y-37852380D01*
X88961904Y-37947619D02*
X88914285Y-37900000D01*
X88819047Y-37852380D01*
X88580952Y-37852380D01*
X88485714Y-37900000D01*
X88438095Y-37947619D01*
X88390476Y-38042857D01*
X88390476Y-38138095D01*
X88438095Y-38280952D01*
X89009523Y-38852380D01*
X88390476Y-38852380D01*
%TO.C,R20*%
X81952380Y-52857142D02*
X81476190Y-52523809D01*
X81952380Y-52285714D02*
X80952380Y-52285714D01*
X80952380Y-52666666D01*
X81000000Y-52761904D01*
X81047619Y-52809523D01*
X81142857Y-52857142D01*
X81285714Y-52857142D01*
X81380952Y-52809523D01*
X81428571Y-52761904D01*
X81476190Y-52666666D01*
X81476190Y-52285714D01*
X81047619Y-53238095D02*
X81000000Y-53285714D01*
X80952380Y-53380952D01*
X80952380Y-53619047D01*
X81000000Y-53714285D01*
X81047619Y-53761904D01*
X81142857Y-53809523D01*
X81238095Y-53809523D01*
X81380952Y-53761904D01*
X81952380Y-53190476D01*
X81952380Y-53809523D01*
X80952380Y-54428571D02*
X80952380Y-54523809D01*
X81000000Y-54619047D01*
X81047619Y-54666666D01*
X81142857Y-54714285D01*
X81333333Y-54761904D01*
X81571428Y-54761904D01*
X81761904Y-54714285D01*
X81857142Y-54666666D01*
X81904761Y-54619047D01*
X81952380Y-54523809D01*
X81952380Y-54428571D01*
X81904761Y-54333333D01*
X81857142Y-54285714D01*
X81761904Y-54238095D01*
X81571428Y-54190476D01*
X81333333Y-54190476D01*
X81142857Y-54238095D01*
X81047619Y-54285714D01*
X81000000Y-54333333D01*
X80952380Y-54428571D01*
%TO.C,R8*%
X90566666Y-41652380D02*
X90900000Y-41176190D01*
X91138095Y-41652380D02*
X91138095Y-40652380D01*
X90757142Y-40652380D01*
X90661904Y-40700000D01*
X90614285Y-40747619D01*
X90566666Y-40842857D01*
X90566666Y-40985714D01*
X90614285Y-41080952D01*
X90661904Y-41128571D01*
X90757142Y-41176190D01*
X91138095Y-41176190D01*
X89995238Y-41080952D02*
X90090476Y-41033333D01*
X90138095Y-40985714D01*
X90185714Y-40890476D01*
X90185714Y-40842857D01*
X90138095Y-40747619D01*
X90090476Y-40700000D01*
X89995238Y-40652380D01*
X89804761Y-40652380D01*
X89709523Y-40700000D01*
X89661904Y-40747619D01*
X89614285Y-40842857D01*
X89614285Y-40890476D01*
X89661904Y-40985714D01*
X89709523Y-41033333D01*
X89804761Y-41080952D01*
X89995238Y-41080952D01*
X90090476Y-41128571D01*
X90138095Y-41176190D01*
X90185714Y-41271428D01*
X90185714Y-41461904D01*
X90138095Y-41557142D01*
X90090476Y-41604761D01*
X89995238Y-41652380D01*
X89804761Y-41652380D01*
X89709523Y-41604761D01*
X89661904Y-41557142D01*
X89614285Y-41461904D01*
X89614285Y-41271428D01*
X89661904Y-41176190D01*
X89709523Y-41128571D01*
X89804761Y-41080952D01*
%TO.C,R15*%
X107242857Y-47652380D02*
X107576190Y-47176190D01*
X107814285Y-47652380D02*
X107814285Y-46652380D01*
X107433333Y-46652380D01*
X107338095Y-46700000D01*
X107290476Y-46747619D01*
X107242857Y-46842857D01*
X107242857Y-46985714D01*
X107290476Y-47080952D01*
X107338095Y-47128571D01*
X107433333Y-47176190D01*
X107814285Y-47176190D01*
X106290476Y-47652380D02*
X106861904Y-47652380D01*
X106576190Y-47652380D02*
X106576190Y-46652380D01*
X106671428Y-46795238D01*
X106766666Y-46890476D01*
X106861904Y-46938095D01*
X105385714Y-46652380D02*
X105861904Y-46652380D01*
X105909523Y-47128571D01*
X105861904Y-47080952D01*
X105766666Y-47033333D01*
X105528571Y-47033333D01*
X105433333Y-47080952D01*
X105385714Y-47128571D01*
X105338095Y-47223809D01*
X105338095Y-47461904D01*
X105385714Y-47557142D01*
X105433333Y-47604761D01*
X105528571Y-47652380D01*
X105766666Y-47652380D01*
X105861904Y-47604761D01*
X105909523Y-47557142D01*
%TO.C,R7*%
X42766666Y-62252380D02*
X43100000Y-61776190D01*
X43338095Y-62252380D02*
X43338095Y-61252380D01*
X42957142Y-61252380D01*
X42861904Y-61300000D01*
X42814285Y-61347619D01*
X42766666Y-61442857D01*
X42766666Y-61585714D01*
X42814285Y-61680952D01*
X42861904Y-61728571D01*
X42957142Y-61776190D01*
X43338095Y-61776190D01*
X42433333Y-61252380D02*
X41766666Y-61252380D01*
X42195238Y-62252380D01*
%TO.C,R4*%
X33766666Y-64539880D02*
X34100000Y-64063690D01*
X34338095Y-64539880D02*
X34338095Y-63539880D01*
X33957142Y-63539880D01*
X33861904Y-63587500D01*
X33814285Y-63635119D01*
X33766666Y-63730357D01*
X33766666Y-63873214D01*
X33814285Y-63968452D01*
X33861904Y-64016071D01*
X33957142Y-64063690D01*
X34338095Y-64063690D01*
X32909523Y-63873214D02*
X32909523Y-64539880D01*
X33147619Y-63492261D02*
X33385714Y-64206547D01*
X32766666Y-64206547D01*
%TO.C,R3*%
X91366666Y-65902380D02*
X91700000Y-65426190D01*
X91938095Y-65902380D02*
X91938095Y-64902380D01*
X91557142Y-64902380D01*
X91461904Y-64950000D01*
X91414285Y-64997619D01*
X91366666Y-65092857D01*
X91366666Y-65235714D01*
X91414285Y-65330952D01*
X91461904Y-65378571D01*
X91557142Y-65426190D01*
X91938095Y-65426190D01*
X91033333Y-64902380D02*
X90414285Y-64902380D01*
X90747619Y-65283333D01*
X90604761Y-65283333D01*
X90509523Y-65330952D01*
X90461904Y-65378571D01*
X90414285Y-65473809D01*
X90414285Y-65711904D01*
X90461904Y-65807142D01*
X90509523Y-65854761D01*
X90604761Y-65902380D01*
X90890476Y-65902380D01*
X90985714Y-65854761D01*
X91033333Y-65807142D01*
%TO.C,R10*%
X92242857Y-63852380D02*
X92576190Y-63376190D01*
X92814285Y-63852380D02*
X92814285Y-62852380D01*
X92433333Y-62852380D01*
X92338095Y-62900000D01*
X92290476Y-62947619D01*
X92242857Y-63042857D01*
X92242857Y-63185714D01*
X92290476Y-63280952D01*
X92338095Y-63328571D01*
X92433333Y-63376190D01*
X92814285Y-63376190D01*
X91290476Y-63852380D02*
X91861904Y-63852380D01*
X91576190Y-63852380D02*
X91576190Y-62852380D01*
X91671428Y-62995238D01*
X91766666Y-63090476D01*
X91861904Y-63138095D01*
X90671428Y-62852380D02*
X90576190Y-62852380D01*
X90480952Y-62900000D01*
X90433333Y-62947619D01*
X90385714Y-63042857D01*
X90338095Y-63233333D01*
X90338095Y-63471428D01*
X90385714Y-63661904D01*
X90433333Y-63757142D01*
X90480952Y-63804761D01*
X90576190Y-63852380D01*
X90671428Y-63852380D01*
X90766666Y-63804761D01*
X90814285Y-63757142D01*
X90861904Y-63661904D01*
X90909523Y-63471428D01*
X90909523Y-63233333D01*
X90861904Y-63042857D01*
X90814285Y-62947619D01*
X90766666Y-62900000D01*
X90671428Y-62852380D01*
%TO.C,C2*%
X33491666Y-47307142D02*
X33539285Y-47354761D01*
X33682142Y-47402380D01*
X33777380Y-47402380D01*
X33920238Y-47354761D01*
X34015476Y-47259523D01*
X34063095Y-47164285D01*
X34110714Y-46973809D01*
X34110714Y-46830952D01*
X34063095Y-46640476D01*
X34015476Y-46545238D01*
X33920238Y-46450000D01*
X33777380Y-46402380D01*
X33682142Y-46402380D01*
X33539285Y-46450000D01*
X33491666Y-46497619D01*
X33110714Y-46497619D02*
X33063095Y-46450000D01*
X32967857Y-46402380D01*
X32729761Y-46402380D01*
X32634523Y-46450000D01*
X32586904Y-46497619D01*
X32539285Y-46592857D01*
X32539285Y-46688095D01*
X32586904Y-46830952D01*
X33158333Y-47402380D01*
X32539285Y-47402380D01*
%TO.C,R9*%
X94766666Y-60052380D02*
X95100000Y-59576190D01*
X95338095Y-60052380D02*
X95338095Y-59052380D01*
X94957142Y-59052380D01*
X94861904Y-59100000D01*
X94814285Y-59147619D01*
X94766666Y-59242857D01*
X94766666Y-59385714D01*
X94814285Y-59480952D01*
X94861904Y-59528571D01*
X94957142Y-59576190D01*
X95338095Y-59576190D01*
X94290476Y-60052380D02*
X94100000Y-60052380D01*
X94004761Y-60004761D01*
X93957142Y-59957142D01*
X93861904Y-59814285D01*
X93814285Y-59623809D01*
X93814285Y-59242857D01*
X93861904Y-59147619D01*
X93909523Y-59100000D01*
X94004761Y-59052380D01*
X94195238Y-59052380D01*
X94290476Y-59100000D01*
X94338095Y-59147619D01*
X94385714Y-59242857D01*
X94385714Y-59480952D01*
X94338095Y-59576190D01*
X94290476Y-59623809D01*
X94195238Y-59671428D01*
X94004761Y-59671428D01*
X93909523Y-59623809D01*
X93861904Y-59576190D01*
X93814285Y-59480952D01*
%TO.C,C6*%
X104766666Y-74157142D02*
X104814285Y-74204761D01*
X104957142Y-74252380D01*
X105052380Y-74252380D01*
X105195238Y-74204761D01*
X105290476Y-74109523D01*
X105338095Y-74014285D01*
X105385714Y-73823809D01*
X105385714Y-73680952D01*
X105338095Y-73490476D01*
X105290476Y-73395238D01*
X105195238Y-73300000D01*
X105052380Y-73252380D01*
X104957142Y-73252380D01*
X104814285Y-73300000D01*
X104766666Y-73347619D01*
X103909523Y-73252380D02*
X104100000Y-73252380D01*
X104195238Y-73300000D01*
X104242857Y-73347619D01*
X104338095Y-73490476D01*
X104385714Y-73680952D01*
X104385714Y-74061904D01*
X104338095Y-74157142D01*
X104290476Y-74204761D01*
X104195238Y-74252380D01*
X104004761Y-74252380D01*
X103909523Y-74204761D01*
X103861904Y-74157142D01*
X103814285Y-74061904D01*
X103814285Y-73823809D01*
X103861904Y-73728571D01*
X103909523Y-73680952D01*
X104004761Y-73633333D01*
X104195238Y-73633333D01*
X104290476Y-73680952D01*
X104338095Y-73728571D01*
X104385714Y-73823809D01*
%TO.C,C11*%
X97842857Y-43707142D02*
X97890476Y-43754761D01*
X98033333Y-43802380D01*
X98128571Y-43802380D01*
X98271428Y-43754761D01*
X98366666Y-43659523D01*
X98414285Y-43564285D01*
X98461904Y-43373809D01*
X98461904Y-43230952D01*
X98414285Y-43040476D01*
X98366666Y-42945238D01*
X98271428Y-42850000D01*
X98128571Y-42802380D01*
X98033333Y-42802380D01*
X97890476Y-42850000D01*
X97842857Y-42897619D01*
X96890476Y-43802380D02*
X97461904Y-43802380D01*
X97176190Y-43802380D02*
X97176190Y-42802380D01*
X97271428Y-42945238D01*
X97366666Y-43040476D01*
X97461904Y-43088095D01*
X95938095Y-43802380D02*
X96509523Y-43802380D01*
X96223809Y-43802380D02*
X96223809Y-42802380D01*
X96319047Y-42945238D01*
X96414285Y-43040476D01*
X96509523Y-43088095D01*
%TO.C,R18*%
X96442857Y-55852380D02*
X96776190Y-55376190D01*
X97014285Y-55852380D02*
X97014285Y-54852380D01*
X96633333Y-54852380D01*
X96538095Y-54900000D01*
X96490476Y-54947619D01*
X96442857Y-55042857D01*
X96442857Y-55185714D01*
X96490476Y-55280952D01*
X96538095Y-55328571D01*
X96633333Y-55376190D01*
X97014285Y-55376190D01*
X95490476Y-55852380D02*
X96061904Y-55852380D01*
X95776190Y-55852380D02*
X95776190Y-54852380D01*
X95871428Y-54995238D01*
X95966666Y-55090476D01*
X96061904Y-55138095D01*
X94919047Y-55280952D02*
X95014285Y-55233333D01*
X95061904Y-55185714D01*
X95109523Y-55090476D01*
X95109523Y-55042857D01*
X95061904Y-54947619D01*
X95014285Y-54900000D01*
X94919047Y-54852380D01*
X94728571Y-54852380D01*
X94633333Y-54900000D01*
X94585714Y-54947619D01*
X94538095Y-55042857D01*
X94538095Y-55090476D01*
X94585714Y-55185714D01*
X94633333Y-55233333D01*
X94728571Y-55280952D01*
X94919047Y-55280952D01*
X95014285Y-55328571D01*
X95061904Y-55376190D01*
X95109523Y-55471428D01*
X95109523Y-55661904D01*
X95061904Y-55757142D01*
X95014285Y-55804761D01*
X94919047Y-55852380D01*
X94728571Y-55852380D01*
X94633333Y-55804761D01*
X94585714Y-55757142D01*
X94538095Y-55661904D01*
X94538095Y-55471428D01*
X94585714Y-55376190D01*
X94633333Y-55328571D01*
X94728571Y-55280952D01*
%TO.C,R14*%
X94442857Y-68452380D02*
X94776190Y-67976190D01*
X95014285Y-68452380D02*
X95014285Y-67452380D01*
X94633333Y-67452380D01*
X94538095Y-67500000D01*
X94490476Y-67547619D01*
X94442857Y-67642857D01*
X94442857Y-67785714D01*
X94490476Y-67880952D01*
X94538095Y-67928571D01*
X94633333Y-67976190D01*
X95014285Y-67976190D01*
X93490476Y-68452380D02*
X94061904Y-68452380D01*
X93776190Y-68452380D02*
X93776190Y-67452380D01*
X93871428Y-67595238D01*
X93966666Y-67690476D01*
X94061904Y-67738095D01*
X92633333Y-67785714D02*
X92633333Y-68452380D01*
X92871428Y-67404761D02*
X93109523Y-68119047D01*
X92490476Y-68119047D01*
%TO.C,R11*%
X99042857Y-58852380D02*
X99376190Y-58376190D01*
X99614285Y-58852380D02*
X99614285Y-57852380D01*
X99233333Y-57852380D01*
X99138095Y-57900000D01*
X99090476Y-57947619D01*
X99042857Y-58042857D01*
X99042857Y-58185714D01*
X99090476Y-58280952D01*
X99138095Y-58328571D01*
X99233333Y-58376190D01*
X99614285Y-58376190D01*
X98090476Y-58852380D02*
X98661904Y-58852380D01*
X98376190Y-58852380D02*
X98376190Y-57852380D01*
X98471428Y-57995238D01*
X98566666Y-58090476D01*
X98661904Y-58138095D01*
X97138095Y-58852380D02*
X97709523Y-58852380D01*
X97423809Y-58852380D02*
X97423809Y-57852380D01*
X97519047Y-57995238D01*
X97614285Y-58090476D01*
X97709523Y-58138095D01*
%TO.C,R2*%
X31766666Y-61652380D02*
X32100000Y-61176190D01*
X32338095Y-61652380D02*
X32338095Y-60652380D01*
X31957142Y-60652380D01*
X31861904Y-60700000D01*
X31814285Y-60747619D01*
X31766666Y-60842857D01*
X31766666Y-60985714D01*
X31814285Y-61080952D01*
X31861904Y-61128571D01*
X31957142Y-61176190D01*
X32338095Y-61176190D01*
X31385714Y-60747619D02*
X31338095Y-60700000D01*
X31242857Y-60652380D01*
X31004761Y-60652380D01*
X30909523Y-60700000D01*
X30861904Y-60747619D01*
X30814285Y-60842857D01*
X30814285Y-60938095D01*
X30861904Y-61080952D01*
X31433333Y-61652380D01*
X30814285Y-61652380D01*
%TO.C,C1*%
X43854166Y-46277142D02*
X43901785Y-46324761D01*
X44044642Y-46372380D01*
X44139880Y-46372380D01*
X44282738Y-46324761D01*
X44377976Y-46229523D01*
X44425595Y-46134285D01*
X44473214Y-45943809D01*
X44473214Y-45800952D01*
X44425595Y-45610476D01*
X44377976Y-45515238D01*
X44282738Y-45420000D01*
X44139880Y-45372380D01*
X44044642Y-45372380D01*
X43901785Y-45420000D01*
X43854166Y-45467619D01*
X42901785Y-46372380D02*
X43473214Y-46372380D01*
X43187500Y-46372380D02*
X43187500Y-45372380D01*
X43282738Y-45515238D01*
X43377976Y-45610476D01*
X43473214Y-45658095D01*
%TO.C,C10*%
X106842857Y-41007142D02*
X106890476Y-41054761D01*
X107033333Y-41102380D01*
X107128571Y-41102380D01*
X107271428Y-41054761D01*
X107366666Y-40959523D01*
X107414285Y-40864285D01*
X107461904Y-40673809D01*
X107461904Y-40530952D01*
X107414285Y-40340476D01*
X107366666Y-40245238D01*
X107271428Y-40150000D01*
X107128571Y-40102380D01*
X107033333Y-40102380D01*
X106890476Y-40150000D01*
X106842857Y-40197619D01*
X105890476Y-41102380D02*
X106461904Y-41102380D01*
X106176190Y-41102380D02*
X106176190Y-40102380D01*
X106271428Y-40245238D01*
X106366666Y-40340476D01*
X106461904Y-40388095D01*
X105271428Y-40102380D02*
X105176190Y-40102380D01*
X105080952Y-40150000D01*
X105033333Y-40197619D01*
X104985714Y-40292857D01*
X104938095Y-40483333D01*
X104938095Y-40721428D01*
X104985714Y-40911904D01*
X105033333Y-41007142D01*
X105080952Y-41054761D01*
X105176190Y-41102380D01*
X105271428Y-41102380D01*
X105366666Y-41054761D01*
X105414285Y-41007142D01*
X105461904Y-40911904D01*
X105509523Y-40721428D01*
X105509523Y-40483333D01*
X105461904Y-40292857D01*
X105414285Y-40197619D01*
X105366666Y-40150000D01*
X105271428Y-40102380D01*
%TO.C,C5*%
X91266666Y-35157142D02*
X91314285Y-35204761D01*
X91457142Y-35252380D01*
X91552380Y-35252380D01*
X91695238Y-35204761D01*
X91790476Y-35109523D01*
X91838095Y-35014285D01*
X91885714Y-34823809D01*
X91885714Y-34680952D01*
X91838095Y-34490476D01*
X91790476Y-34395238D01*
X91695238Y-34300000D01*
X91552380Y-34252380D01*
X91457142Y-34252380D01*
X91314285Y-34300000D01*
X91266666Y-34347619D01*
X90361904Y-34252380D02*
X90838095Y-34252380D01*
X90885714Y-34728571D01*
X90838095Y-34680952D01*
X90742857Y-34633333D01*
X90504761Y-34633333D01*
X90409523Y-34680952D01*
X90361904Y-34728571D01*
X90314285Y-34823809D01*
X90314285Y-35061904D01*
X90361904Y-35157142D01*
X90409523Y-35204761D01*
X90504761Y-35252380D01*
X90742857Y-35252380D01*
X90838095Y-35204761D01*
X90885714Y-35157142D01*
%TO.C,U6*%
X77711904Y-56502380D02*
X77711904Y-57311904D01*
X77664285Y-57407142D01*
X77616666Y-57454761D01*
X77521428Y-57502380D01*
X77330952Y-57502380D01*
X77235714Y-57454761D01*
X77188095Y-57407142D01*
X77140476Y-57311904D01*
X77140476Y-56502380D01*
X76235714Y-56502380D02*
X76426190Y-56502380D01*
X76521428Y-56550000D01*
X76569047Y-56597619D01*
X76664285Y-56740476D01*
X76711904Y-56930952D01*
X76711904Y-57311904D01*
X76664285Y-57407142D01*
X76616666Y-57454761D01*
X76521428Y-57502380D01*
X76330952Y-57502380D01*
X76235714Y-57454761D01*
X76188095Y-57407142D01*
X76140476Y-57311904D01*
X76140476Y-57073809D01*
X76188095Y-56978571D01*
X76235714Y-56930952D01*
X76330952Y-56883333D01*
X76521428Y-56883333D01*
X76616666Y-56930952D01*
X76664285Y-56978571D01*
X76711904Y-57073809D01*
%TO.C,R22*%
X59442857Y-64052380D02*
X59776190Y-63576190D01*
X60014285Y-64052380D02*
X60014285Y-63052380D01*
X59633333Y-63052380D01*
X59538095Y-63100000D01*
X59490476Y-63147619D01*
X59442857Y-63242857D01*
X59442857Y-63385714D01*
X59490476Y-63480952D01*
X59538095Y-63528571D01*
X59633333Y-63576190D01*
X60014285Y-63576190D01*
X59061904Y-63147619D02*
X59014285Y-63100000D01*
X58919047Y-63052380D01*
X58680952Y-63052380D01*
X58585714Y-63100000D01*
X58538095Y-63147619D01*
X58490476Y-63242857D01*
X58490476Y-63338095D01*
X58538095Y-63480952D01*
X59109523Y-64052380D01*
X58490476Y-64052380D01*
X58109523Y-63147619D02*
X58061904Y-63100000D01*
X57966666Y-63052380D01*
X57728571Y-63052380D01*
X57633333Y-63100000D01*
X57585714Y-63147619D01*
X57538095Y-63242857D01*
X57538095Y-63338095D01*
X57585714Y-63480952D01*
X58157142Y-64052380D01*
X57538095Y-64052380D01*
%TO.C,R17*%
X108042857Y-54652380D02*
X108376190Y-54176190D01*
X108614285Y-54652380D02*
X108614285Y-53652380D01*
X108233333Y-53652380D01*
X108138095Y-53700000D01*
X108090476Y-53747619D01*
X108042857Y-53842857D01*
X108042857Y-53985714D01*
X108090476Y-54080952D01*
X108138095Y-54128571D01*
X108233333Y-54176190D01*
X108614285Y-54176190D01*
X107090476Y-54652380D02*
X107661904Y-54652380D01*
X107376190Y-54652380D02*
X107376190Y-53652380D01*
X107471428Y-53795238D01*
X107566666Y-53890476D01*
X107661904Y-53938095D01*
X106757142Y-53652380D02*
X106090476Y-53652380D01*
X106519047Y-54652380D01*
%TO.C,U4*%
X106561904Y-62302380D02*
X106561904Y-63111904D01*
X106514285Y-63207142D01*
X106466666Y-63254761D01*
X106371428Y-63302380D01*
X106180952Y-63302380D01*
X106085714Y-63254761D01*
X106038095Y-63207142D01*
X105990476Y-63111904D01*
X105990476Y-62302380D01*
X105085714Y-62635714D02*
X105085714Y-63302380D01*
X105323809Y-62254761D02*
X105561904Y-62969047D01*
X104942857Y-62969047D01*
%TO.C,R21*%
X66042857Y-63652380D02*
X66376190Y-63176190D01*
X66614285Y-63652380D02*
X66614285Y-62652380D01*
X66233333Y-62652380D01*
X66138095Y-62700000D01*
X66090476Y-62747619D01*
X66042857Y-62842857D01*
X66042857Y-62985714D01*
X66090476Y-63080952D01*
X66138095Y-63128571D01*
X66233333Y-63176190D01*
X66614285Y-63176190D01*
X65661904Y-62747619D02*
X65614285Y-62700000D01*
X65519047Y-62652380D01*
X65280952Y-62652380D01*
X65185714Y-62700000D01*
X65138095Y-62747619D01*
X65090476Y-62842857D01*
X65090476Y-62938095D01*
X65138095Y-63080952D01*
X65709523Y-63652380D01*
X65090476Y-63652380D01*
X64138095Y-63652380D02*
X64709523Y-63652380D01*
X64423809Y-63652380D02*
X64423809Y-62652380D01*
X64519047Y-62795238D01*
X64614285Y-62890476D01*
X64709523Y-62938095D01*
%TO.C,R19*%
X93042857Y-44052380D02*
X93376190Y-43576190D01*
X93614285Y-44052380D02*
X93614285Y-43052380D01*
X93233333Y-43052380D01*
X93138095Y-43100000D01*
X93090476Y-43147619D01*
X93042857Y-43242857D01*
X93042857Y-43385714D01*
X93090476Y-43480952D01*
X93138095Y-43528571D01*
X93233333Y-43576190D01*
X93614285Y-43576190D01*
X92090476Y-44052380D02*
X92661904Y-44052380D01*
X92376190Y-44052380D02*
X92376190Y-43052380D01*
X92471428Y-43195238D01*
X92566666Y-43290476D01*
X92661904Y-43338095D01*
X91614285Y-44052380D02*
X91423809Y-44052380D01*
X91328571Y-44004761D01*
X91280952Y-43957142D01*
X91185714Y-43814285D01*
X91138095Y-43623809D01*
X91138095Y-43242857D01*
X91185714Y-43147619D01*
X91233333Y-43100000D01*
X91328571Y-43052380D01*
X91519047Y-43052380D01*
X91614285Y-43100000D01*
X91661904Y-43147619D01*
X91709523Y-43242857D01*
X91709523Y-43480952D01*
X91661904Y-43576190D01*
X91614285Y-43623809D01*
X91519047Y-43671428D01*
X91328571Y-43671428D01*
X91233333Y-43623809D01*
X91185714Y-43576190D01*
X91138095Y-43480952D01*
%TO.C,R1*%
X34966666Y-58652380D02*
X35300000Y-58176190D01*
X35538095Y-58652380D02*
X35538095Y-57652380D01*
X35157142Y-57652380D01*
X35061904Y-57700000D01*
X35014285Y-57747619D01*
X34966666Y-57842857D01*
X34966666Y-57985714D01*
X35014285Y-58080952D01*
X35061904Y-58128571D01*
X35157142Y-58176190D01*
X35538095Y-58176190D01*
X34014285Y-58652380D02*
X34585714Y-58652380D01*
X34300000Y-58652380D02*
X34300000Y-57652380D01*
X34395238Y-57795238D01*
X34490476Y-57890476D01*
X34585714Y-57938095D01*
%TO.C,U5*%
X95761904Y-48452380D02*
X95761904Y-49261904D01*
X95714285Y-49357142D01*
X95666666Y-49404761D01*
X95571428Y-49452380D01*
X95380952Y-49452380D01*
X95285714Y-49404761D01*
X95238095Y-49357142D01*
X95190476Y-49261904D01*
X95190476Y-48452380D01*
X94238095Y-48452380D02*
X94714285Y-48452380D01*
X94761904Y-48928571D01*
X94714285Y-48880952D01*
X94619047Y-48833333D01*
X94380952Y-48833333D01*
X94285714Y-48880952D01*
X94238095Y-48928571D01*
X94190476Y-49023809D01*
X94190476Y-49261904D01*
X94238095Y-49357142D01*
X94285714Y-49404761D01*
X94380952Y-49452380D01*
X94619047Y-49452380D01*
X94714285Y-49404761D01*
X94761904Y-49357142D01*
%TO.C,C8*%
X95316666Y-74007142D02*
X95364285Y-74054761D01*
X95507142Y-74102380D01*
X95602380Y-74102380D01*
X95745238Y-74054761D01*
X95840476Y-73959523D01*
X95888095Y-73864285D01*
X95935714Y-73673809D01*
X95935714Y-73530952D01*
X95888095Y-73340476D01*
X95840476Y-73245238D01*
X95745238Y-73150000D01*
X95602380Y-73102380D01*
X95507142Y-73102380D01*
X95364285Y-73150000D01*
X95316666Y-73197619D01*
X94745238Y-73530952D02*
X94840476Y-73483333D01*
X94888095Y-73435714D01*
X94935714Y-73340476D01*
X94935714Y-73292857D01*
X94888095Y-73197619D01*
X94840476Y-73150000D01*
X94745238Y-73102380D01*
X94554761Y-73102380D01*
X94459523Y-73150000D01*
X94411904Y-73197619D01*
X94364285Y-73292857D01*
X94364285Y-73340476D01*
X94411904Y-73435714D01*
X94459523Y-73483333D01*
X94554761Y-73530952D01*
X94745238Y-73530952D01*
X94840476Y-73578571D01*
X94888095Y-73626190D01*
X94935714Y-73721428D01*
X94935714Y-73911904D01*
X94888095Y-74007142D01*
X94840476Y-74054761D01*
X94745238Y-74102380D01*
X94554761Y-74102380D01*
X94459523Y-74054761D01*
X94411904Y-74007142D01*
X94364285Y-73911904D01*
X94364285Y-73721428D01*
X94411904Y-73626190D01*
X94459523Y-73578571D01*
X94554761Y-73530952D01*
%TO.C,R6*%
X40166666Y-61252380D02*
X40500000Y-60776190D01*
X40738095Y-61252380D02*
X40738095Y-60252380D01*
X40357142Y-60252380D01*
X40261904Y-60300000D01*
X40214285Y-60347619D01*
X40166666Y-60442857D01*
X40166666Y-60585714D01*
X40214285Y-60680952D01*
X40261904Y-60728571D01*
X40357142Y-60776190D01*
X40738095Y-60776190D01*
X39309523Y-60252380D02*
X39500000Y-60252380D01*
X39595238Y-60300000D01*
X39642857Y-60347619D01*
X39738095Y-60490476D01*
X39785714Y-60680952D01*
X39785714Y-61061904D01*
X39738095Y-61157142D01*
X39690476Y-61204761D01*
X39595238Y-61252380D01*
X39404761Y-61252380D01*
X39309523Y-61204761D01*
X39261904Y-61157142D01*
X39214285Y-61061904D01*
X39214285Y-60823809D01*
X39261904Y-60728571D01*
X39309523Y-60680952D01*
X39404761Y-60633333D01*
X39595238Y-60633333D01*
X39690476Y-60680952D01*
X39738095Y-60728571D01*
X39785714Y-60823809D01*
%TO.C,R5*%
X37366666Y-61652380D02*
X37700000Y-61176190D01*
X37938095Y-61652380D02*
X37938095Y-60652380D01*
X37557142Y-60652380D01*
X37461904Y-60700000D01*
X37414285Y-60747619D01*
X37366666Y-60842857D01*
X37366666Y-60985714D01*
X37414285Y-61080952D01*
X37461904Y-61128571D01*
X37557142Y-61176190D01*
X37938095Y-61176190D01*
X36461904Y-60652380D02*
X36938095Y-60652380D01*
X36985714Y-61128571D01*
X36938095Y-61080952D01*
X36842857Y-61033333D01*
X36604761Y-61033333D01*
X36509523Y-61080952D01*
X36461904Y-61128571D01*
X36414285Y-61223809D01*
X36414285Y-61461904D01*
X36461904Y-61557142D01*
X36509523Y-61604761D01*
X36604761Y-61652380D01*
X36842857Y-61652380D01*
X36938095Y-61604761D01*
X36985714Y-61557142D01*
%TO.C,C3*%
X74616666Y-40157142D02*
X74664285Y-40204761D01*
X74807142Y-40252380D01*
X74902380Y-40252380D01*
X75045238Y-40204761D01*
X75140476Y-40109523D01*
X75188095Y-40014285D01*
X75235714Y-39823809D01*
X75235714Y-39680952D01*
X75188095Y-39490476D01*
X75140476Y-39395238D01*
X75045238Y-39300000D01*
X74902380Y-39252380D01*
X74807142Y-39252380D01*
X74664285Y-39300000D01*
X74616666Y-39347619D01*
X74283333Y-39252380D02*
X73664285Y-39252380D01*
X73997619Y-39633333D01*
X73854761Y-39633333D01*
X73759523Y-39680952D01*
X73711904Y-39728571D01*
X73664285Y-39823809D01*
X73664285Y-40061904D01*
X73711904Y-40157142D01*
X73759523Y-40204761D01*
X73854761Y-40252380D01*
X74140476Y-40252380D01*
X74235714Y-40204761D01*
X74283333Y-40157142D01*
D10*
%TO.C,C12*%
X103466233Y-42940000D02*
X103758767Y-42940000D01*
X103466233Y-43960000D02*
X103758767Y-43960000D01*
%TO.C,R12*%
X88877500Y-46657776D02*
X88877500Y-47167224D01*
X89922500Y-46657776D02*
X89922500Y-47167224D01*
%TO.C,R13*%
X102892224Y-59427500D02*
X102382776Y-59427500D01*
X102892224Y-60472500D02*
X102382776Y-60472500D01*
%TO.C,R16*%
X106927500Y-50582765D02*
X106927500Y-51092213D01*
X107972500Y-50582765D02*
X107972500Y-51092213D01*
%TO.C,C7*%
X101696267Y-70040000D02*
X101403733Y-70040000D01*
X101696267Y-71060000D02*
X101403733Y-71060000D01*
%TO.C,U2*%
X87975000Y-41400000D02*
X87975000Y-42900000D01*
X79385000Y-42900000D02*
X79385000Y-44000000D01*
X77575000Y-41400000D02*
X77575000Y-42900000D01*
X77575000Y-42900000D02*
X79385000Y-42900000D01*
X87975000Y-42900000D02*
X86165000Y-42900000D01*
X86165000Y-42900000D02*
X86165000Y-48025000D01*
%TO.C,R20*%
X82477500Y-53542224D02*
X82477500Y-53032776D01*
X83522500Y-53542224D02*
X83522500Y-53032776D01*
%TO.C,R8*%
X89922500Y-43145276D02*
X89922500Y-43654724D01*
X88877500Y-43145276D02*
X88877500Y-43654724D01*
%TO.C,R15*%
X106222500Y-50495276D02*
X106222500Y-51004724D01*
X105177500Y-50495276D02*
X105177500Y-51004724D01*
%TO.C,R7*%
X42277500Y-63945276D02*
X42277500Y-64454724D01*
X43322500Y-63945276D02*
X43322500Y-64454724D01*
%TO.C,R4*%
X34677500Y-63832776D02*
X34677500Y-64342224D01*
X35722500Y-63832776D02*
X35722500Y-64342224D01*
%TO.C,R3*%
X95972500Y-63804724D02*
X95972500Y-63295276D01*
X94927500Y-63804724D02*
X94927500Y-63295276D01*
%TO.C,R10*%
X93277500Y-63804724D02*
X93277500Y-63295276D01*
X94322500Y-63804724D02*
X94322500Y-63295276D01*
%TO.C,C2*%
X35791233Y-47340000D02*
X36083767Y-47340000D01*
X35791233Y-46320000D02*
X36083767Y-46320000D01*
%TO.C,R9*%
X94357776Y-60527500D02*
X94867224Y-60527500D01*
X94357776Y-61572500D02*
X94867224Y-61572500D01*
%TO.C,C6*%
X103310000Y-74883767D02*
X103310000Y-74591233D01*
X102290000Y-74883767D02*
X102290000Y-74591233D01*
%TO.C,C11*%
X100103733Y-43860000D02*
X100396267Y-43860000D01*
X100103733Y-42840000D02*
X100396267Y-42840000D01*
%TO.C,R18*%
X98657776Y-54127500D02*
X99167224Y-54127500D01*
X98657776Y-55172500D02*
X99167224Y-55172500D01*
%TO.C,R14*%
X94007776Y-65927500D02*
X94517224Y-65927500D01*
X94007776Y-66972500D02*
X94517224Y-66972500D01*
%TO.C,R11*%
X97795276Y-59127500D02*
X98304724Y-59127500D01*
X97795276Y-60172500D02*
X98304724Y-60172500D01*
%TO.C,R2*%
X32877500Y-61142224D02*
X32877500Y-60632776D01*
X33922500Y-61142224D02*
X33922500Y-60632776D01*
%TO.C,C1*%
X40483767Y-46290000D02*
X40191233Y-46290000D01*
X40483767Y-47310000D02*
X40191233Y-47310000D01*
%TO.C,C10*%
X102903733Y-41040000D02*
X103196267Y-41040000D01*
X102903733Y-42060000D02*
X103196267Y-42060000D01*
%TO.C,C5*%
X89910000Y-36008767D02*
X89910000Y-35716233D01*
X88890000Y-36008767D02*
X88890000Y-35716233D01*
%TO.C,U6*%
X79500000Y-55390000D02*
X81300000Y-55390000D01*
X81300000Y-58610000D02*
X78350000Y-58610000D01*
%TO.C,R22*%
X61522500Y-63967224D02*
X61522500Y-63457776D01*
X60477500Y-63967224D02*
X60477500Y-63457776D01*
%TO.C,R17*%
X103654724Y-54372500D02*
X103145276Y-54372500D01*
X103654724Y-53327500D02*
X103145276Y-53327500D01*
%TO.C,U4*%
X97175000Y-61525000D02*
X96375000Y-62325000D01*
X96375000Y-69675000D02*
X104825000Y-69675000D01*
X96375000Y-62325000D02*
X96375000Y-69675000D01*
X104825000Y-61525000D02*
X97175000Y-61525000D01*
X104825000Y-69675000D02*
X104825000Y-61525000D01*
%TO.C,R21*%
X62677500Y-64054724D02*
X62677500Y-63545276D01*
X63722500Y-64054724D02*
X63722500Y-63545276D01*
%TO.C,R19*%
X94972500Y-44267213D02*
X94972500Y-43757765D01*
X93927500Y-44267213D02*
X93927500Y-43757765D01*
%TO.C,R1*%
X34877500Y-60854724D02*
X34877500Y-60345276D01*
X35922500Y-60854724D02*
X35922500Y-60345276D01*
%TO.C,U5*%
X104325000Y-52275000D02*
X105125000Y-51475000D01*
X105125000Y-51475000D02*
X105125000Y-44125000D01*
X105125000Y-44125000D02*
X96675000Y-44125000D01*
X96675000Y-52275000D02*
X104325000Y-52275000D01*
X96675000Y-44125000D02*
X96675000Y-52275000D01*
%TO.C,C8*%
X98346267Y-71010000D02*
X98053733Y-71010000D01*
X98346267Y-69990000D02*
X98053733Y-69990000D01*
%TO.C,R6*%
X39877500Y-63857776D02*
X39877500Y-64367224D01*
X40922500Y-63857776D02*
X40922500Y-64367224D01*
%TO.C,R5*%
X37277500Y-63857776D02*
X37277500Y-64367224D01*
X38322500Y-63857776D02*
X38322500Y-64367224D01*
%TO.C,C3*%
X76710000Y-41746267D02*
X76710000Y-41453733D01*
X75690000Y-41746267D02*
X75690000Y-41453733D01*
%TD*%
M02*
