M48
; DRILL file {KiCad (6.0.2)} date Tue Feb  6 23:57:45 2024
; FORMAT={-:-/ absolute / metric / decimal}
; #@! TF.CreationDate,2024-02-06T23:57:45+03:00
; #@! TF.GenerationSoftware,Kicad,Pcbnew,(6.0.2)
; #@! TF.FileFunction,Plated,1,2,PTH
FMAT,2
METRIC
; #@! TA.AperFunction,Plated,PTH,ViaDrill
T1C0.400
; #@! TA.AperFunction,Plated,PTH,ComponentDrill
T2C0.700
; #@! TA.AperFunction,Plated,PTH,ComponentDrill
T3C0.762
; #@! TA.AperFunction,Plated,PTH,ComponentDrill
T4C0.800
; #@! TA.AperFunction,Plated,PTH,ComponentDrill
T5C1.000
; #@! TA.AperFunction,Plated,PTH,ComponentDrill
T6C1.100
%
G90
G05
T1
X25.4Y-56.8
X25.6Y-39.6
X25.6Y-41.4
X25.6Y-44.2
X25.6Y-70.8
X26.2Y-32.6
X26.4Y-61.6
X27.2Y-42.6
X27.8Y-38.4
X28.8Y-65.6
X28.9Y-71.45
X29.0Y-55.0
X29.0Y-58.189
X29.0Y-62.0
X29.2Y-32.6
X30.0Y-44.4
X30.0Y-45.6
X30.4Y-74.75
X30.593Y-42.367
X31.0Y-56.6
X31.4Y-48.2
X31.4Y-59.4
X31.4Y-62.4
X31.45Y-65.6
X31.6Y-35.555
X31.6Y-52.6
X31.6Y-70.2
X31.849Y-37.0
X32.8Y-63.4
X33.0Y-58.6
X33.8Y-42.53
X33.8Y-45.4
X34.0Y-37.2
X34.0Y-48.4
X34.0Y-52.6
X34.0Y-65.6
X34.0Y-70.2
X34.2Y-74.0
X34.4Y-35.409
X34.6Y-33.4
X36.0Y-55.4
X36.225Y-58.575
X36.6Y-48.4
X36.6Y-56.6
X36.6Y-70.2
X37.0Y-74.0
X37.4Y-43.0
X37.4Y-45.8
X37.8Y-58.0
X38.0Y-38.4
X38.2Y-42.0
X38.4Y-46.4
X38.8Y-70.6
X39.2Y-53.0
X39.2Y-73.8
X39.4Y-42.0
X39.6Y-43.0
X39.8Y-38.2
X40.8Y-33.2
X40.8Y-35.0
X40.8Y-55.0
X40.8Y-61.8
X42.2Y-38.4
X42.2Y-74.8
X42.6Y-56.4
X42.8Y-71.0
X43.2Y-46.8
X43.396Y-33.198
X43.4Y-34.8
X44.0Y-42.2
X44.194Y-48.4
X44.2Y-44.4
X44.2Y-52.4
X44.2Y-65.6
X44.4Y-63.0
X45.0Y-74.0
X45.8Y-46.8
X45.8Y-55.6
X46.6Y-32.4
X46.6Y-65.6
X46.6Y-70.3
X46.8Y-48.4
X46.8Y-42.0
X46.8Y-52.4
X47.0Y-44.2
X47.4Y-61.8
X47.8Y-46.4
X48.0Y-44.4
X48.0Y-74.0
X48.6Y-38.4
X48.6Y-40.2
X49.0Y-35.6
X49.0Y-42.4
X49.2Y-54.4
X50.2Y-34.6
X50.2Y-61.6
X50.6Y-74.0
X51.4Y-46.4
X51.6Y-55.8
X51.8Y-65.8
X52.8Y-39.8
X53.0Y-63.6
X53.6Y-46.2
X53.8Y-76.8
X54.0Y-38.6
X54.0Y-41.0
X54.0Y-74.8
X54.4Y-54.4
X54.4Y-65.6
X55.2Y-61.6
X55.8Y-35.6
X56.6Y-56.0
X56.8Y-40.6
X56.8Y-52.8
X56.8Y-65.6
X56.8Y-70.4
X56.8Y-74.8
X57.0Y-48.2
X57.0Y-77.0
X58.2Y-38.6
X59.0Y-62.0
X59.4Y-70.25
X59.45Y-52.8
X59.45Y-65.6
X59.5Y-48.1
X60.0Y-75.2
X60.194Y-40.588
X60.4Y-34.6
X60.4Y-55.8
X60.6Y-58.2
X61.0Y-39.725
X61.0Y-61.6
X61.8Y-73.0
X62.0Y-52.6
X62.05Y-48.0
X62.175Y-64.625
X62.2Y-76.8
X62.4Y-44.2
X63.0Y-55.2
X63.2Y-61.6
X64.2Y-71.0
X64.4Y-46.0
X64.4Y-53.2
X64.4Y-65.8
X64.5Y-48.0
X64.8Y-34.8
X64.8Y-62.0
X65.0Y-42.2
X66.0Y-74.4
X66.0Y-76.6
X66.8Y-42.44
X66.8Y-44.4
X66.95Y-48.15
X67.0Y-53.4
X67.0Y-62.2
X67.0Y-65.6
X67.4Y-35.8
X68.2Y-46.0
X69.4Y-42.2
X69.4Y-44.4
X69.6Y-48.2
X69.6Y-52.6
X69.6Y-65.8
X69.6Y-70.0
X70.0Y-74.6
X70.6Y-33.0
X70.8Y-46.0
X71.0Y-54.0
X71.0Y-63.8
X71.6Y-38.2
X71.969Y-44.431
X72.0Y-48.15
X72.141Y-70.033
X72.15Y-65.95
X72.2Y-52.6
X72.4Y-39.8
X73.2Y-63.8
X74.6Y-48.2
X74.6Y-54.2
X74.6Y-65.8
X74.8Y-46.4
X75.8Y-33.4
X76.0Y-63.8
X76.2Y-38.4
X76.6Y-56.4
X77.4Y-58.0
X77.4Y-74.0
X77.4Y-76.8
X77.8Y-47.2
X77.8Y-51.8
X77.8Y-66.8
X78.05Y-49.0
X78.2Y-32.6
X78.2Y-36.6
X78.2Y-40.4
X78.8Y-42.2
X79.2Y-63.8
X79.8Y-53.6
X80.4Y-34.6
X80.4Y-51.4
X80.4Y-76.8
X80.6Y-38.6
X80.6Y-49.0
X80.8Y-65.8
X81.0Y-69.8
X81.0Y-74.2
X81.8Y-53.6
X81.8Y-59.711
X82.05Y-76.85
X82.6Y-42.6
X82.8Y-32.6
X82.8Y-36.6
X82.8Y-40.4
X82.8Y-66.2
X83.0Y-63.8
X83.4Y-45.6
X84.2Y-77.0
X84.4Y-52.6
X84.8Y-74.2
X85.2Y-34.6
X85.2Y-38.6
X85.2Y-61.4
X85.2Y-63.4
X85.6Y-67.2
X86.0Y-53.7
X86.571Y-42.163
X87.4Y-32.6
X87.4Y-36.8
X87.4Y-40.4
X87.4Y-47.4
X87.6Y-43.6
X88.6Y-69.6
X88.775Y-33.6
X89.0Y-41.2
X89.4Y-58.0
X89.9Y-76.8
X90.2Y-66.0
X90.4Y-33.6
X90.6Y-35.8
X91.0Y-61.2
X91.0Y-72.2
X91.4Y-54.2
X91.8Y-57.8
X91.8Y-62.6
X92.2Y-64.4
X92.8Y-52.4
X92.8Y-67.8
X92.8Y-74.0
X93.0Y-35.0
X93.0Y-54.4
X93.0Y-75.6
X93.6Y-51.6
X94.2Y-40.6
X94.2Y-70.0
X94.4Y-50.6
X94.8Y-33.4
X94.8Y-36.8
X94.8Y-58.0
X94.989Y-41.906
X95.15Y-51.85
X95.6Y-43.05
X95.6Y-69.8
X95.65Y-53.5
X95.8Y-67.8
X96.005Y-71.145
X96.2Y-48.1
X96.2Y-49.8
X96.308Y-61.933
X96.4Y-41.4
X96.4Y-46.6
X96.4Y-52.4
X96.6Y-35.0
X96.6Y-75.8
X96.8Y-54.25
X97.0Y-40.4
X97.15Y-58.25
X97.4Y-64.6
X97.4Y-66.6
X97.8Y-47.25
X97.8Y-49.05
X98.5Y-53.45
X98.6Y-40.6
X98.6Y-65.6
X98.8Y-33.4
X98.8Y-36.8
X98.8Y-75.2
X99.0Y-48.0
X99.8Y-64.6
X99.8Y-66.6
X100.025Y-58.1
X100.025Y-59.2
X100.2Y-47.25
X100.25Y-49.15
X100.6Y-65.6
X100.8Y-35.0
X101.0Y-76.8
X101.55Y-48.25
X101.8Y-64.6
X101.8Y-66.6
X102.5Y-58.1
X102.6Y-49.15
X102.65Y-72.45
X102.7Y-47.2
X102.8Y-65.6
X103.05Y-42.55
X103.1Y-55.3
X103.25Y-58.85
X103.5Y-48.15
X103.6Y-33.4
X103.6Y-36.8
X103.8Y-64.6
X103.8Y-66.6
X103.8Y-76.8
X103.813Y-61.45
X103.853Y-70.636
X104.1Y-40.5
X104.2Y-75.0
X104.35Y-47.2
X104.35Y-49.0
X104.75Y-61.95
X105.15Y-59.55
X105.2Y-38.6
X105.2Y-41.6
X105.4Y-42.6
X105.4Y-55.3
X105.4Y-69.25
X105.4Y-75.9
X105.6Y-63.8
X105.6Y-65.6
X105.6Y-67.4
X105.65Y-54.15
X105.8Y-46.0
X105.8Y-48.4
X105.95Y-60.75
X106.2Y-35.0
X106.6Y-44.6
X107.0Y-72.0
X107.2Y-53.2
X107.2Y-55.4
X107.6Y-46.0
X107.6Y-48.6
X108.2Y-41.0
X108.6Y-56.2
X108.6Y-59.2
X108.6Y-62.0
X108.6Y-65.4
X108.6Y-69.0
X109.965Y-33.359
T2
X55.15Y-37.06
X55.15Y-42.14
X58.35Y-37.06
X58.35Y-42.14
X60.55Y-37.06
X60.55Y-42.14
X62.75Y-37.06
X62.75Y-42.14
X67.375Y-39.155
X67.375Y-40.425
X97.64Y-56.925
X98.91Y-56.925
X100.18Y-56.925
X101.45Y-56.925
X102.72Y-56.925
X103.99Y-56.925
X105.26Y-56.925
X106.53Y-56.925
T3
X79.19Y-50.31
X79.19Y-68.09
X81.73Y-50.31
X86.81Y-50.31
X86.81Y-68.09
T4
X97.9Y-41.8
X100.4Y-41.8
X100.85Y-72.525
X100.85Y-75.025
T5
X27.645Y-50.375
X27.645Y-68.155
X30.185Y-50.375
X30.185Y-68.155
X32.725Y-50.375
X32.725Y-68.155
X33.0Y-33.46
X33.0Y-36.0
X33.0Y-38.54
X33.0Y-41.08
X33.0Y-72.2
X33.0Y-75.8
X35.265Y-50.375
X35.265Y-68.155
X35.54Y-72.2
X35.54Y-75.8
X37.0Y-33.975
X37.805Y-50.375
X37.805Y-68.155
X38.08Y-72.2
X38.08Y-75.8
X39.31Y-40.225
X39.54Y-33.975
X40.345Y-50.375
X40.345Y-68.155
X40.62Y-72.2
X40.62Y-75.8
X41.85Y-40.225
X42.08Y-33.975
X42.885Y-50.375
X42.885Y-68.155
X44.2Y-72.2
X44.2Y-75.8
X44.62Y-33.975
X45.425Y-50.375
X45.425Y-68.155
X45.6Y-40.4
X45.6Y-42.94
X46.74Y-72.2
X46.74Y-75.8
X47.965Y-50.375
X47.965Y-68.155
X49.28Y-72.2
X49.28Y-75.8
X50.0Y-45.2
X50.505Y-50.375
X50.505Y-68.155
X51.82Y-72.2
X51.82Y-75.8
X52.54Y-45.2
X53.045Y-50.375
X53.045Y-68.155
X55.08Y-45.2
X55.4Y-73.26
X55.4Y-75.8
X55.585Y-50.375
X55.585Y-68.155
X57.62Y-45.2
X58.125Y-50.375
X58.125Y-68.155
X60.16Y-45.2
X60.665Y-50.375
X60.665Y-68.155
X63.205Y-50.375
X63.205Y-68.155
X64.8Y-73.0
X64.8Y-75.54
X65.745Y-50.375
X65.745Y-68.155
X68.285Y-50.375
X68.285Y-68.155
X68.4Y-73.0
X68.4Y-75.54
X70.825Y-50.375
X70.825Y-68.155
X73.365Y-50.375
X73.365Y-68.155
X75.905Y-50.375
X75.905Y-68.155
X79.2Y-72.8
X79.2Y-75.34
X83.0Y-72.8
X83.0Y-75.34
X87.46Y-74.8
X90.0Y-74.8
T6
X35.92Y-44.55
X38.46Y-44.55
X41.0Y-44.55
T0
M30
