%TF.GenerationSoftware,KiCad,Pcbnew,(6.0.2)*%
%TF.CreationDate,2024-02-06T19:16:59+03:00*%
%TF.ProjectId,Pistol_Camera_Driver,50697374-6f6c-45f4-9361-6d6572615f44,rev?*%
%TF.SameCoordinates,Original*%
%TF.FileFunction,Soldermask,Top*%
%TF.FilePolarity,Negative*%
%FSLAX46Y46*%
G04 Gerber Fmt 4.6, Leading zero omitted, Abs format (unit mm)*
G04 Created by KiCad (PCBNEW (6.0.2)) date 2024-02-06 19:16:59*
%MOMM*%
%LPD*%
G01*
G04 APERTURE LIST*
G04 Aperture macros list*
%AMRoundRect*
0 Rectangle with rounded corners*
0 $1 Rounding radius*
0 $2 $3 $4 $5 $6 $7 $8 $9 X,Y pos of 4 corners*
0 Add a 4 corners polygon primitive as box body*
4,1,4,$2,$3,$4,$5,$6,$7,$8,$9,$2,$3,0*
0 Add four circle primitives for the rounded corners*
1,1,$1+$1,$2,$3*
1,1,$1+$1,$4,$5*
1,1,$1+$1,$6,$7*
1,1,$1+$1,$8,$9*
0 Add four rect primitives between the rounded corners*
20,1,$1+$1,$2,$3,$4,$5,0*
20,1,$1+$1,$4,$5,$6,$7,0*
20,1,$1+$1,$6,$7,$8,$9,0*
20,1,$1+$1,$8,$9,$2,$3,0*%
G04 Aperture macros list end*
%ADD10R,1.700000X1.700000*%
%ADD11O,1.700000X1.700000*%
%ADD12C,1.400000*%
%ADD13C,3.200000*%
%ADD14R,1.600000X1.600000*%
%ADD15C,1.600000*%
%ADD16RoundRect,0.237500X0.237500X-0.250000X0.237500X0.250000X-0.237500X0.250000X-0.237500X-0.250000X0*%
%ADD17R,1.500000X0.400000*%
%ADD18R,2.500000X1.800000*%
%ADD19R,1.905000X2.000000*%
%ADD20O,1.905000X2.000000*%
%ADD21R,1.800000X2.500000*%
%ADD22O,1.600000X4.000000*%
%ADD23RoundRect,0.150000X-0.587500X-0.150000X0.587500X-0.150000X0.587500X0.150000X-0.587500X0.150000X0*%
%ADD24C,1.524000*%
%ADD25R,1.000000X1.000000*%
%ADD26O,1.000000X1.000000*%
G04 APERTURE END LIST*
D10*
%TO.C,J7*%
X83000000Y-72800000D03*
D11*
X83000000Y-75340000D03*
%TD*%
D10*
%TO.C,J1*%
X55400000Y-73260000D03*
D11*
X55400000Y-75800000D03*
%TD*%
D10*
%TO.C,J12*%
X44200000Y-75800000D03*
D11*
X46740000Y-75800000D03*
X49280000Y-75800000D03*
X51820000Y-75800000D03*
%TD*%
D12*
%TO.C,K1*%
X55150000Y-42140000D03*
X58350000Y-42140000D03*
X60550000Y-42140000D03*
X62750000Y-42140000D03*
X62750000Y-37060000D03*
X60550000Y-37060000D03*
X58350000Y-37060000D03*
X55150000Y-37060000D03*
%TD*%
D10*
%TO.C,J6*%
X79200000Y-72800000D03*
D11*
X79200000Y-75340000D03*
%TD*%
D13*
%TO.C,REF\u002A\u002A*%
X73645000Y-74650000D03*
%TD*%
D10*
%TO.C,J11*%
X64800000Y-73000000D03*
D11*
X64800000Y-75540000D03*
%TD*%
D13*
%TO.C,REF\u002A\u002A*%
X73645000Y-35650000D03*
%TD*%
D10*
%TO.C,J10*%
X68400000Y-73000000D03*
D11*
X68400000Y-75540000D03*
%TD*%
D14*
%TO.C,C4*%
X100850000Y-72524989D03*
D15*
X100850000Y-75024989D03*
%TD*%
D14*
%TO.C,C9*%
X100400000Y-41800000D03*
D15*
X97900000Y-41800000D03*
%TD*%
D16*
%TO.C,R24*%
X73400000Y-47312500D03*
X73400000Y-45487500D03*
%TD*%
D10*
%TO.C,J16*%
X33000000Y-72200000D03*
D11*
X35540000Y-72200000D03*
X38080000Y-72200000D03*
X40620000Y-72200000D03*
%TD*%
D17*
%TO.C,Q1*%
X73270000Y-41950000D03*
X73270000Y-42600000D03*
X73270000Y-43250000D03*
X75930000Y-43250000D03*
X75930000Y-42600000D03*
X75930000Y-41950000D03*
%TD*%
D10*
%TO.C,J2*%
X43825000Y-40350000D03*
D11*
X43825000Y-42890000D03*
%TD*%
D10*
%TO.C,J8*%
X90000000Y-74800000D03*
D11*
X87460000Y-74800000D03*
%TD*%
D18*
%TO.C,D4*%
X53800000Y-34200000D03*
X57800000Y-34200000D03*
%TD*%
D19*
%TO.C,U1*%
X38990000Y-44550000D03*
D20*
X36450000Y-44550000D03*
X33910000Y-44550000D03*
%TD*%
D21*
%TO.C,D3*%
X51600000Y-41800000D03*
X51600000Y-37800000D03*
%TD*%
D22*
%TO.C,U3*%
X27645000Y-68155000D03*
X30185000Y-68155000D03*
X32725000Y-68155000D03*
X35265000Y-68155000D03*
X37805000Y-68155000D03*
X40345000Y-68155000D03*
X42885000Y-68155000D03*
X45425000Y-68155000D03*
X47965000Y-68155000D03*
X50505000Y-68155000D03*
X53045000Y-68155000D03*
X55585000Y-68155000D03*
X58125000Y-68155000D03*
X60665000Y-68155000D03*
X63205000Y-68155000D03*
X65745000Y-68155000D03*
X68285000Y-68155000D03*
X70825000Y-68155000D03*
X73365000Y-68155000D03*
X75905000Y-68155000D03*
X75905000Y-50375000D03*
X73365000Y-50375000D03*
X70825000Y-50375000D03*
X68285000Y-50375000D03*
X65745000Y-50375000D03*
X63205000Y-50375000D03*
X60665000Y-50375000D03*
X58125000Y-50375000D03*
X55585000Y-50375000D03*
X53045000Y-50375000D03*
X50505000Y-50375000D03*
X47965000Y-50375000D03*
X45425000Y-50375000D03*
X42885000Y-50375000D03*
X40345000Y-50375000D03*
X37805000Y-50375000D03*
X35265000Y-50375000D03*
X32725000Y-50375000D03*
X30185000Y-50375000D03*
X27645000Y-50375000D03*
%TD*%
D13*
%TO.C,REF\u002A\u002A*%
X27645000Y-35650000D03*
%TD*%
D10*
%TO.C,J4*%
X38750000Y-40225000D03*
D11*
X36210000Y-40225000D03*
%TD*%
D10*
%TO.C,J15*%
X33000000Y-75800000D03*
D11*
X35540000Y-75800000D03*
X38080000Y-75800000D03*
X40620000Y-75800000D03*
%TD*%
D13*
%TO.C,REF\u002A\u002A*%
X109645000Y-74650000D03*
%TD*%
D10*
%TO.C,J9*%
X44200000Y-72200000D03*
D11*
X46740000Y-72200000D03*
X49280000Y-72200000D03*
X51820000Y-72200000D03*
%TD*%
D23*
%TO.C,Q2*%
X58262500Y-73050000D03*
X58262500Y-74950000D03*
X60137500Y-74000000D03*
%TD*%
D24*
%TO.C,U7*%
X86810000Y-50310000D03*
X81730000Y-50310000D03*
X79190000Y-50310000D03*
X79190000Y-68090000D03*
X86810000Y-68090000D03*
%TD*%
D13*
%TO.C,REF\u002A\u002A*%
X27645000Y-74650000D03*
%TD*%
D25*
%TO.C,J13*%
X67375000Y-40425000D03*
D26*
X67375000Y-39155000D03*
%TD*%
D16*
%TO.C,R23*%
X76000000Y-47312500D03*
X76000000Y-45487500D03*
%TD*%
D25*
%TO.C,J3*%
X106530000Y-56924989D03*
D26*
X105260000Y-56924989D03*
X103990000Y-56924989D03*
X102720000Y-56924989D03*
X101450000Y-56924989D03*
X100180000Y-56924989D03*
X98910000Y-56924989D03*
X97640000Y-56924989D03*
%TD*%
D10*
%TO.C,J14*%
X33200000Y-33800000D03*
D11*
X35740000Y-33800000D03*
X38280000Y-33800000D03*
X40820000Y-33800000D03*
%TD*%
D10*
%TO.C,J5*%
X50000000Y-45200000D03*
D11*
X52540000Y-45200000D03*
X55080000Y-45200000D03*
X57620000Y-45200000D03*
X60160000Y-45200000D03*
%TD*%
D13*
%TO.C,REF\u002A\u002A*%
X109645000Y-35650000D03*
%TD*%
M02*
