%TF.GenerationSoftware,KiCad,Pcbnew,7.0.9*%
%TF.CreationDate,2024-04-16T22:37:01+03:00*%
%TF.ProjectId,Pistol_Camera_Driver,50697374-6f6c-45f4-9361-6d6572615f44,rev?*%
%TF.SameCoordinates,Original*%
%TF.FileFunction,Legend,Bot*%
%TF.FilePolarity,Positive*%
%FSLAX46Y46*%
G04 Gerber Fmt 4.6, Leading zero omitted, Abs format (unit mm)*
G04 Created by KiCad (PCBNEW 7.0.9) date 2024-04-16 22:37:01*
%MOMM*%
%LPD*%
G01*
G04 APERTURE LIST*
%ADD10C,0.120000*%
%ADD11C,0.150000*%
G04 APERTURE END LIST*
D10*
X95200000Y-71450000D02*
X95200000Y-72850000D01*
X92200000Y-65450000D02*
X94400000Y-65450000D01*
X94400000Y-65450000D02*
X94800000Y-65050000D01*
X96600000Y-70850000D02*
X95200000Y-71450000D01*
D11*
X28105357Y-54529580D02*
X28152976Y-54577200D01*
X28152976Y-54577200D02*
X28295833Y-54624819D01*
X28295833Y-54624819D02*
X28391071Y-54624819D01*
X28391071Y-54624819D02*
X28533928Y-54577200D01*
X28533928Y-54577200D02*
X28629166Y-54481961D01*
X28629166Y-54481961D02*
X28676785Y-54386723D01*
X28676785Y-54386723D02*
X28724404Y-54196247D01*
X28724404Y-54196247D02*
X28724404Y-54053390D01*
X28724404Y-54053390D02*
X28676785Y-53862914D01*
X28676785Y-53862914D02*
X28629166Y-53767676D01*
X28629166Y-53767676D02*
X28533928Y-53672438D01*
X28533928Y-53672438D02*
X28391071Y-53624819D01*
X28391071Y-53624819D02*
X28295833Y-53624819D01*
X28295833Y-53624819D02*
X28152976Y-53672438D01*
X28152976Y-53672438D02*
X28105357Y-53720057D01*
X27152976Y-54624819D02*
X27724404Y-54624819D01*
X27438690Y-54624819D02*
X27438690Y-53624819D01*
X27438690Y-53624819D02*
X27533928Y-53767676D01*
X27533928Y-53767676D02*
X27629166Y-53862914D01*
X27629166Y-53862914D02*
X27724404Y-53910533D01*
X26819642Y-53624819D02*
X26200595Y-53624819D01*
X26200595Y-53624819D02*
X26533928Y-54005771D01*
X26533928Y-54005771D02*
X26391071Y-54005771D01*
X26391071Y-54005771D02*
X26295833Y-54053390D01*
X26295833Y-54053390D02*
X26248214Y-54101009D01*
X26248214Y-54101009D02*
X26200595Y-54196247D01*
X26200595Y-54196247D02*
X26200595Y-54434342D01*
X26200595Y-54434342D02*
X26248214Y-54529580D01*
X26248214Y-54529580D02*
X26295833Y-54577200D01*
X26295833Y-54577200D02*
X26391071Y-54624819D01*
X26391071Y-54624819D02*
X26676785Y-54624819D01*
X26676785Y-54624819D02*
X26772023Y-54577200D01*
X26772023Y-54577200D02*
X26819642Y-54529580D01*
X107642857Y-43809580D02*
X107690476Y-43857200D01*
X107690476Y-43857200D02*
X107833333Y-43904819D01*
X107833333Y-43904819D02*
X107928571Y-43904819D01*
X107928571Y-43904819D02*
X108071428Y-43857200D01*
X108071428Y-43857200D02*
X108166666Y-43761961D01*
X108166666Y-43761961D02*
X108214285Y-43666723D01*
X108214285Y-43666723D02*
X108261904Y-43476247D01*
X108261904Y-43476247D02*
X108261904Y-43333390D01*
X108261904Y-43333390D02*
X108214285Y-43142914D01*
X108214285Y-43142914D02*
X108166666Y-43047676D01*
X108166666Y-43047676D02*
X108071428Y-42952438D01*
X108071428Y-42952438D02*
X107928571Y-42904819D01*
X107928571Y-42904819D02*
X107833333Y-42904819D01*
X107833333Y-42904819D02*
X107690476Y-42952438D01*
X107690476Y-42952438D02*
X107642857Y-43000057D01*
X106690476Y-43904819D02*
X107261904Y-43904819D01*
X106976190Y-43904819D02*
X106976190Y-42904819D01*
X106976190Y-42904819D02*
X107071428Y-43047676D01*
X107071428Y-43047676D02*
X107166666Y-43142914D01*
X107166666Y-43142914D02*
X107261904Y-43190533D01*
X106309523Y-43000057D02*
X106261904Y-42952438D01*
X106261904Y-42952438D02*
X106166666Y-42904819D01*
X106166666Y-42904819D02*
X105928571Y-42904819D01*
X105928571Y-42904819D02*
X105833333Y-42952438D01*
X105833333Y-42952438D02*
X105785714Y-43000057D01*
X105785714Y-43000057D02*
X105738095Y-43095295D01*
X105738095Y-43095295D02*
X105738095Y-43190533D01*
X105738095Y-43190533D02*
X105785714Y-43333390D01*
X105785714Y-43333390D02*
X106357142Y-43904819D01*
X106357142Y-43904819D02*
X105738095Y-43904819D01*
X31242857Y-73054819D02*
X31576190Y-72578628D01*
X31814285Y-73054819D02*
X31814285Y-72054819D01*
X31814285Y-72054819D02*
X31433333Y-72054819D01*
X31433333Y-72054819D02*
X31338095Y-72102438D01*
X31338095Y-72102438D02*
X31290476Y-72150057D01*
X31290476Y-72150057D02*
X31242857Y-72245295D01*
X31242857Y-72245295D02*
X31242857Y-72388152D01*
X31242857Y-72388152D02*
X31290476Y-72483390D01*
X31290476Y-72483390D02*
X31338095Y-72531009D01*
X31338095Y-72531009D02*
X31433333Y-72578628D01*
X31433333Y-72578628D02*
X31814285Y-72578628D01*
X30909523Y-72054819D02*
X30290476Y-72054819D01*
X30290476Y-72054819D02*
X30623809Y-72435771D01*
X30623809Y-72435771D02*
X30480952Y-72435771D01*
X30480952Y-72435771D02*
X30385714Y-72483390D01*
X30385714Y-72483390D02*
X30338095Y-72531009D01*
X30338095Y-72531009D02*
X30290476Y-72626247D01*
X30290476Y-72626247D02*
X30290476Y-72864342D01*
X30290476Y-72864342D02*
X30338095Y-72959580D01*
X30338095Y-72959580D02*
X30385714Y-73007200D01*
X30385714Y-73007200D02*
X30480952Y-73054819D01*
X30480952Y-73054819D02*
X30766666Y-73054819D01*
X30766666Y-73054819D02*
X30861904Y-73007200D01*
X30861904Y-73007200D02*
X30909523Y-72959580D01*
X29909523Y-72150057D02*
X29861904Y-72102438D01*
X29861904Y-72102438D02*
X29766666Y-72054819D01*
X29766666Y-72054819D02*
X29528571Y-72054819D01*
X29528571Y-72054819D02*
X29433333Y-72102438D01*
X29433333Y-72102438D02*
X29385714Y-72150057D01*
X29385714Y-72150057D02*
X29338095Y-72245295D01*
X29338095Y-72245295D02*
X29338095Y-72340533D01*
X29338095Y-72340533D02*
X29385714Y-72483390D01*
X29385714Y-72483390D02*
X29957142Y-73054819D01*
X29957142Y-73054819D02*
X29338095Y-73054819D01*
X92242857Y-47254819D02*
X92576190Y-46778628D01*
X92814285Y-47254819D02*
X92814285Y-46254819D01*
X92814285Y-46254819D02*
X92433333Y-46254819D01*
X92433333Y-46254819D02*
X92338095Y-46302438D01*
X92338095Y-46302438D02*
X92290476Y-46350057D01*
X92290476Y-46350057D02*
X92242857Y-46445295D01*
X92242857Y-46445295D02*
X92242857Y-46588152D01*
X92242857Y-46588152D02*
X92290476Y-46683390D01*
X92290476Y-46683390D02*
X92338095Y-46731009D01*
X92338095Y-46731009D02*
X92433333Y-46778628D01*
X92433333Y-46778628D02*
X92814285Y-46778628D01*
X91290476Y-47254819D02*
X91861904Y-47254819D01*
X91576190Y-47254819D02*
X91576190Y-46254819D01*
X91576190Y-46254819D02*
X91671428Y-46397676D01*
X91671428Y-46397676D02*
X91766666Y-46492914D01*
X91766666Y-46492914D02*
X91861904Y-46540533D01*
X90909523Y-46350057D02*
X90861904Y-46302438D01*
X90861904Y-46302438D02*
X90766666Y-46254819D01*
X90766666Y-46254819D02*
X90528571Y-46254819D01*
X90528571Y-46254819D02*
X90433333Y-46302438D01*
X90433333Y-46302438D02*
X90385714Y-46350057D01*
X90385714Y-46350057D02*
X90338095Y-46445295D01*
X90338095Y-46445295D02*
X90338095Y-46540533D01*
X90338095Y-46540533D02*
X90385714Y-46683390D01*
X90385714Y-46683390D02*
X90957142Y-47254819D01*
X90957142Y-47254819D02*
X90338095Y-47254819D01*
X105342857Y-59004819D02*
X105676190Y-58528628D01*
X105914285Y-59004819D02*
X105914285Y-58004819D01*
X105914285Y-58004819D02*
X105533333Y-58004819D01*
X105533333Y-58004819D02*
X105438095Y-58052438D01*
X105438095Y-58052438D02*
X105390476Y-58100057D01*
X105390476Y-58100057D02*
X105342857Y-58195295D01*
X105342857Y-58195295D02*
X105342857Y-58338152D01*
X105342857Y-58338152D02*
X105390476Y-58433390D01*
X105390476Y-58433390D02*
X105438095Y-58481009D01*
X105438095Y-58481009D02*
X105533333Y-58528628D01*
X105533333Y-58528628D02*
X105914285Y-58528628D01*
X104390476Y-59004819D02*
X104961904Y-59004819D01*
X104676190Y-59004819D02*
X104676190Y-58004819D01*
X104676190Y-58004819D02*
X104771428Y-58147676D01*
X104771428Y-58147676D02*
X104866666Y-58242914D01*
X104866666Y-58242914D02*
X104961904Y-58290533D01*
X104057142Y-58004819D02*
X103438095Y-58004819D01*
X103438095Y-58004819D02*
X103771428Y-58385771D01*
X103771428Y-58385771D02*
X103628571Y-58385771D01*
X103628571Y-58385771D02*
X103533333Y-58433390D01*
X103533333Y-58433390D02*
X103485714Y-58481009D01*
X103485714Y-58481009D02*
X103438095Y-58576247D01*
X103438095Y-58576247D02*
X103438095Y-58814342D01*
X103438095Y-58814342D02*
X103485714Y-58909580D01*
X103485714Y-58909580D02*
X103533333Y-58957200D01*
X103533333Y-58957200D02*
X103628571Y-59004819D01*
X103628571Y-59004819D02*
X103914285Y-59004819D01*
X103914285Y-59004819D02*
X104009523Y-58957200D01*
X104009523Y-58957200D02*
X104057142Y-58909580D01*
X78366666Y-74654819D02*
X78699999Y-74178628D01*
X78938094Y-74654819D02*
X78938094Y-73654819D01*
X78938094Y-73654819D02*
X78557142Y-73654819D01*
X78557142Y-73654819D02*
X78461904Y-73702438D01*
X78461904Y-73702438D02*
X78414285Y-73750057D01*
X78414285Y-73750057D02*
X78366666Y-73845295D01*
X78366666Y-73845295D02*
X78366666Y-73988152D01*
X78366666Y-73988152D02*
X78414285Y-74083390D01*
X78414285Y-74083390D02*
X78461904Y-74131009D01*
X78461904Y-74131009D02*
X78557142Y-74178628D01*
X78557142Y-74178628D02*
X78938094Y-74178628D01*
X77985713Y-73750057D02*
X77938094Y-73702438D01*
X77938094Y-73702438D02*
X77842856Y-73654819D01*
X77842856Y-73654819D02*
X77604761Y-73654819D01*
X77604761Y-73654819D02*
X77509523Y-73702438D01*
X77509523Y-73702438D02*
X77461904Y-73750057D01*
X77461904Y-73750057D02*
X77414285Y-73845295D01*
X77414285Y-73845295D02*
X77414285Y-73940533D01*
X77414285Y-73940533D02*
X77461904Y-74083390D01*
X77461904Y-74083390D02*
X78033332Y-74654819D01*
X78033332Y-74654819D02*
X77414285Y-74654819D01*
X109642857Y-53454819D02*
X109976190Y-52978628D01*
X110214285Y-53454819D02*
X110214285Y-52454819D01*
X110214285Y-52454819D02*
X109833333Y-52454819D01*
X109833333Y-52454819D02*
X109738095Y-52502438D01*
X109738095Y-52502438D02*
X109690476Y-52550057D01*
X109690476Y-52550057D02*
X109642857Y-52645295D01*
X109642857Y-52645295D02*
X109642857Y-52788152D01*
X109642857Y-52788152D02*
X109690476Y-52883390D01*
X109690476Y-52883390D02*
X109738095Y-52931009D01*
X109738095Y-52931009D02*
X109833333Y-52978628D01*
X109833333Y-52978628D02*
X110214285Y-52978628D01*
X108690476Y-53454819D02*
X109261904Y-53454819D01*
X108976190Y-53454819D02*
X108976190Y-52454819D01*
X108976190Y-52454819D02*
X109071428Y-52597676D01*
X109071428Y-52597676D02*
X109166666Y-52692914D01*
X109166666Y-52692914D02*
X109261904Y-52740533D01*
X107833333Y-52454819D02*
X108023809Y-52454819D01*
X108023809Y-52454819D02*
X108119047Y-52502438D01*
X108119047Y-52502438D02*
X108166666Y-52550057D01*
X108166666Y-52550057D02*
X108261904Y-52692914D01*
X108261904Y-52692914D02*
X108309523Y-52883390D01*
X108309523Y-52883390D02*
X108309523Y-53264342D01*
X108309523Y-53264342D02*
X108261904Y-53359580D01*
X108261904Y-53359580D02*
X108214285Y-53407200D01*
X108214285Y-53407200D02*
X108119047Y-53454819D01*
X108119047Y-53454819D02*
X107928571Y-53454819D01*
X107928571Y-53454819D02*
X107833333Y-53407200D01*
X107833333Y-53407200D02*
X107785714Y-53359580D01*
X107785714Y-53359580D02*
X107738095Y-53264342D01*
X107738095Y-53264342D02*
X107738095Y-53026247D01*
X107738095Y-53026247D02*
X107785714Y-52931009D01*
X107785714Y-52931009D02*
X107833333Y-52883390D01*
X107833333Y-52883390D02*
X107928571Y-52835771D01*
X107928571Y-52835771D02*
X108119047Y-52835771D01*
X108119047Y-52835771D02*
X108214285Y-52883390D01*
X108214285Y-52883390D02*
X108261904Y-52931009D01*
X108261904Y-52931009D02*
X108309523Y-53026247D01*
X105366666Y-71009580D02*
X105414285Y-71057200D01*
X105414285Y-71057200D02*
X105557142Y-71104819D01*
X105557142Y-71104819D02*
X105652380Y-71104819D01*
X105652380Y-71104819D02*
X105795237Y-71057200D01*
X105795237Y-71057200D02*
X105890475Y-70961961D01*
X105890475Y-70961961D02*
X105938094Y-70866723D01*
X105938094Y-70866723D02*
X105985713Y-70676247D01*
X105985713Y-70676247D02*
X105985713Y-70533390D01*
X105985713Y-70533390D02*
X105938094Y-70342914D01*
X105938094Y-70342914D02*
X105890475Y-70247676D01*
X105890475Y-70247676D02*
X105795237Y-70152438D01*
X105795237Y-70152438D02*
X105652380Y-70104819D01*
X105652380Y-70104819D02*
X105557142Y-70104819D01*
X105557142Y-70104819D02*
X105414285Y-70152438D01*
X105414285Y-70152438D02*
X105366666Y-70200057D01*
X105033332Y-70104819D02*
X104366666Y-70104819D01*
X104366666Y-70104819D02*
X104795237Y-71104819D01*
X89961904Y-37854819D02*
X89961904Y-38664342D01*
X89961904Y-38664342D02*
X89914285Y-38759580D01*
X89914285Y-38759580D02*
X89866666Y-38807200D01*
X89866666Y-38807200D02*
X89771428Y-38854819D01*
X89771428Y-38854819D02*
X89580952Y-38854819D01*
X89580952Y-38854819D02*
X89485714Y-38807200D01*
X89485714Y-38807200D02*
X89438095Y-38759580D01*
X89438095Y-38759580D02*
X89390476Y-38664342D01*
X89390476Y-38664342D02*
X89390476Y-37854819D01*
X88961904Y-37950057D02*
X88914285Y-37902438D01*
X88914285Y-37902438D02*
X88819047Y-37854819D01*
X88819047Y-37854819D02*
X88580952Y-37854819D01*
X88580952Y-37854819D02*
X88485714Y-37902438D01*
X88485714Y-37902438D02*
X88438095Y-37950057D01*
X88438095Y-37950057D02*
X88390476Y-38045295D01*
X88390476Y-38045295D02*
X88390476Y-38140533D01*
X88390476Y-38140533D02*
X88438095Y-38283390D01*
X88438095Y-38283390D02*
X89009523Y-38854819D01*
X89009523Y-38854819D02*
X88390476Y-38854819D01*
X86242857Y-53054819D02*
X86576190Y-52578628D01*
X86814285Y-53054819D02*
X86814285Y-52054819D01*
X86814285Y-52054819D02*
X86433333Y-52054819D01*
X86433333Y-52054819D02*
X86338095Y-52102438D01*
X86338095Y-52102438D02*
X86290476Y-52150057D01*
X86290476Y-52150057D02*
X86242857Y-52245295D01*
X86242857Y-52245295D02*
X86242857Y-52388152D01*
X86242857Y-52388152D02*
X86290476Y-52483390D01*
X86290476Y-52483390D02*
X86338095Y-52531009D01*
X86338095Y-52531009D02*
X86433333Y-52578628D01*
X86433333Y-52578628D02*
X86814285Y-52578628D01*
X85861904Y-52150057D02*
X85814285Y-52102438D01*
X85814285Y-52102438D02*
X85719047Y-52054819D01*
X85719047Y-52054819D02*
X85480952Y-52054819D01*
X85480952Y-52054819D02*
X85385714Y-52102438D01*
X85385714Y-52102438D02*
X85338095Y-52150057D01*
X85338095Y-52150057D02*
X85290476Y-52245295D01*
X85290476Y-52245295D02*
X85290476Y-52340533D01*
X85290476Y-52340533D02*
X85338095Y-52483390D01*
X85338095Y-52483390D02*
X85909523Y-53054819D01*
X85909523Y-53054819D02*
X85290476Y-53054819D01*
X84671428Y-52054819D02*
X84576190Y-52054819D01*
X84576190Y-52054819D02*
X84480952Y-52102438D01*
X84480952Y-52102438D02*
X84433333Y-52150057D01*
X84433333Y-52150057D02*
X84385714Y-52245295D01*
X84385714Y-52245295D02*
X84338095Y-52435771D01*
X84338095Y-52435771D02*
X84338095Y-52673866D01*
X84338095Y-52673866D02*
X84385714Y-52864342D01*
X84385714Y-52864342D02*
X84433333Y-52959580D01*
X84433333Y-52959580D02*
X84480952Y-53007200D01*
X84480952Y-53007200D02*
X84576190Y-53054819D01*
X84576190Y-53054819D02*
X84671428Y-53054819D01*
X84671428Y-53054819D02*
X84766666Y-53007200D01*
X84766666Y-53007200D02*
X84814285Y-52959580D01*
X84814285Y-52959580D02*
X84861904Y-52864342D01*
X84861904Y-52864342D02*
X84909523Y-52673866D01*
X84909523Y-52673866D02*
X84909523Y-52435771D01*
X84909523Y-52435771D02*
X84861904Y-52245295D01*
X84861904Y-52245295D02*
X84814285Y-52150057D01*
X84814285Y-52150057D02*
X84766666Y-52102438D01*
X84766666Y-52102438D02*
X84671428Y-52054819D01*
X90566666Y-41654819D02*
X90899999Y-41178628D01*
X91138094Y-41654819D02*
X91138094Y-40654819D01*
X91138094Y-40654819D02*
X90757142Y-40654819D01*
X90757142Y-40654819D02*
X90661904Y-40702438D01*
X90661904Y-40702438D02*
X90614285Y-40750057D01*
X90614285Y-40750057D02*
X90566666Y-40845295D01*
X90566666Y-40845295D02*
X90566666Y-40988152D01*
X90566666Y-40988152D02*
X90614285Y-41083390D01*
X90614285Y-41083390D02*
X90661904Y-41131009D01*
X90661904Y-41131009D02*
X90757142Y-41178628D01*
X90757142Y-41178628D02*
X91138094Y-41178628D01*
X89995237Y-41083390D02*
X90090475Y-41035771D01*
X90090475Y-41035771D02*
X90138094Y-40988152D01*
X90138094Y-40988152D02*
X90185713Y-40892914D01*
X90185713Y-40892914D02*
X90185713Y-40845295D01*
X90185713Y-40845295D02*
X90138094Y-40750057D01*
X90138094Y-40750057D02*
X90090475Y-40702438D01*
X90090475Y-40702438D02*
X89995237Y-40654819D01*
X89995237Y-40654819D02*
X89804761Y-40654819D01*
X89804761Y-40654819D02*
X89709523Y-40702438D01*
X89709523Y-40702438D02*
X89661904Y-40750057D01*
X89661904Y-40750057D02*
X89614285Y-40845295D01*
X89614285Y-40845295D02*
X89614285Y-40892914D01*
X89614285Y-40892914D02*
X89661904Y-40988152D01*
X89661904Y-40988152D02*
X89709523Y-41035771D01*
X89709523Y-41035771D02*
X89804761Y-41083390D01*
X89804761Y-41083390D02*
X89995237Y-41083390D01*
X89995237Y-41083390D02*
X90090475Y-41131009D01*
X90090475Y-41131009D02*
X90138094Y-41178628D01*
X90138094Y-41178628D02*
X90185713Y-41273866D01*
X90185713Y-41273866D02*
X90185713Y-41464342D01*
X90185713Y-41464342D02*
X90138094Y-41559580D01*
X90138094Y-41559580D02*
X90090475Y-41607200D01*
X90090475Y-41607200D02*
X89995237Y-41654819D01*
X89995237Y-41654819D02*
X89804761Y-41654819D01*
X89804761Y-41654819D02*
X89709523Y-41607200D01*
X89709523Y-41607200D02*
X89661904Y-41559580D01*
X89661904Y-41559580D02*
X89614285Y-41464342D01*
X89614285Y-41464342D02*
X89614285Y-41273866D01*
X89614285Y-41273866D02*
X89661904Y-41178628D01*
X89661904Y-41178628D02*
X89709523Y-41131009D01*
X89709523Y-41131009D02*
X89804761Y-41083390D01*
X107242857Y-47654819D02*
X107576190Y-47178628D01*
X107814285Y-47654819D02*
X107814285Y-46654819D01*
X107814285Y-46654819D02*
X107433333Y-46654819D01*
X107433333Y-46654819D02*
X107338095Y-46702438D01*
X107338095Y-46702438D02*
X107290476Y-46750057D01*
X107290476Y-46750057D02*
X107242857Y-46845295D01*
X107242857Y-46845295D02*
X107242857Y-46988152D01*
X107242857Y-46988152D02*
X107290476Y-47083390D01*
X107290476Y-47083390D02*
X107338095Y-47131009D01*
X107338095Y-47131009D02*
X107433333Y-47178628D01*
X107433333Y-47178628D02*
X107814285Y-47178628D01*
X106290476Y-47654819D02*
X106861904Y-47654819D01*
X106576190Y-47654819D02*
X106576190Y-46654819D01*
X106576190Y-46654819D02*
X106671428Y-46797676D01*
X106671428Y-46797676D02*
X106766666Y-46892914D01*
X106766666Y-46892914D02*
X106861904Y-46940533D01*
X105385714Y-46654819D02*
X105861904Y-46654819D01*
X105861904Y-46654819D02*
X105909523Y-47131009D01*
X105909523Y-47131009D02*
X105861904Y-47083390D01*
X105861904Y-47083390D02*
X105766666Y-47035771D01*
X105766666Y-47035771D02*
X105528571Y-47035771D01*
X105528571Y-47035771D02*
X105433333Y-47083390D01*
X105433333Y-47083390D02*
X105385714Y-47131009D01*
X105385714Y-47131009D02*
X105338095Y-47226247D01*
X105338095Y-47226247D02*
X105338095Y-47464342D01*
X105338095Y-47464342D02*
X105385714Y-47559580D01*
X105385714Y-47559580D02*
X105433333Y-47607200D01*
X105433333Y-47607200D02*
X105528571Y-47654819D01*
X105528571Y-47654819D02*
X105766666Y-47654819D01*
X105766666Y-47654819D02*
X105861904Y-47607200D01*
X105861904Y-47607200D02*
X105909523Y-47559580D01*
X26366666Y-61054819D02*
X26699999Y-60578628D01*
X26938094Y-61054819D02*
X26938094Y-60054819D01*
X26938094Y-60054819D02*
X26557142Y-60054819D01*
X26557142Y-60054819D02*
X26461904Y-60102438D01*
X26461904Y-60102438D02*
X26414285Y-60150057D01*
X26414285Y-60150057D02*
X26366666Y-60245295D01*
X26366666Y-60245295D02*
X26366666Y-60388152D01*
X26366666Y-60388152D02*
X26414285Y-60483390D01*
X26414285Y-60483390D02*
X26461904Y-60531009D01*
X26461904Y-60531009D02*
X26557142Y-60578628D01*
X26557142Y-60578628D02*
X26938094Y-60578628D01*
X26033332Y-60054819D02*
X25366666Y-60054819D01*
X25366666Y-60054819D02*
X25795237Y-61054819D01*
X51766666Y-71054819D02*
X52099999Y-70578628D01*
X52338094Y-71054819D02*
X52338094Y-70054819D01*
X52338094Y-70054819D02*
X51957142Y-70054819D01*
X51957142Y-70054819D02*
X51861904Y-70102438D01*
X51861904Y-70102438D02*
X51814285Y-70150057D01*
X51814285Y-70150057D02*
X51766666Y-70245295D01*
X51766666Y-70245295D02*
X51766666Y-70388152D01*
X51766666Y-70388152D02*
X51814285Y-70483390D01*
X51814285Y-70483390D02*
X51861904Y-70531009D01*
X51861904Y-70531009D02*
X51957142Y-70578628D01*
X51957142Y-70578628D02*
X52338094Y-70578628D01*
X50909523Y-70388152D02*
X50909523Y-71054819D01*
X51147618Y-70007200D02*
X51385713Y-70721485D01*
X51385713Y-70721485D02*
X50766666Y-70721485D01*
X39442857Y-65254819D02*
X39776190Y-64778628D01*
X40014285Y-65254819D02*
X40014285Y-64254819D01*
X40014285Y-64254819D02*
X39633333Y-64254819D01*
X39633333Y-64254819D02*
X39538095Y-64302438D01*
X39538095Y-64302438D02*
X39490476Y-64350057D01*
X39490476Y-64350057D02*
X39442857Y-64445295D01*
X39442857Y-64445295D02*
X39442857Y-64588152D01*
X39442857Y-64588152D02*
X39490476Y-64683390D01*
X39490476Y-64683390D02*
X39538095Y-64731009D01*
X39538095Y-64731009D02*
X39633333Y-64778628D01*
X39633333Y-64778628D02*
X40014285Y-64778628D01*
X39109523Y-64254819D02*
X38490476Y-64254819D01*
X38490476Y-64254819D02*
X38823809Y-64635771D01*
X38823809Y-64635771D02*
X38680952Y-64635771D01*
X38680952Y-64635771D02*
X38585714Y-64683390D01*
X38585714Y-64683390D02*
X38538095Y-64731009D01*
X38538095Y-64731009D02*
X38490476Y-64826247D01*
X38490476Y-64826247D02*
X38490476Y-65064342D01*
X38490476Y-65064342D02*
X38538095Y-65159580D01*
X38538095Y-65159580D02*
X38585714Y-65207200D01*
X38585714Y-65207200D02*
X38680952Y-65254819D01*
X38680952Y-65254819D02*
X38966666Y-65254819D01*
X38966666Y-65254819D02*
X39061904Y-65207200D01*
X39061904Y-65207200D02*
X39109523Y-65159580D01*
X37871428Y-64254819D02*
X37776190Y-64254819D01*
X37776190Y-64254819D02*
X37680952Y-64302438D01*
X37680952Y-64302438D02*
X37633333Y-64350057D01*
X37633333Y-64350057D02*
X37585714Y-64445295D01*
X37585714Y-64445295D02*
X37538095Y-64635771D01*
X37538095Y-64635771D02*
X37538095Y-64873866D01*
X37538095Y-64873866D02*
X37585714Y-65064342D01*
X37585714Y-65064342D02*
X37633333Y-65159580D01*
X37633333Y-65159580D02*
X37680952Y-65207200D01*
X37680952Y-65207200D02*
X37776190Y-65254819D01*
X37776190Y-65254819D02*
X37871428Y-65254819D01*
X37871428Y-65254819D02*
X37966666Y-65207200D01*
X37966666Y-65207200D02*
X38014285Y-65159580D01*
X38014285Y-65159580D02*
X38061904Y-65064342D01*
X38061904Y-65064342D02*
X38109523Y-64873866D01*
X38109523Y-64873866D02*
X38109523Y-64635771D01*
X38109523Y-64635771D02*
X38061904Y-64445295D01*
X38061904Y-64445295D02*
X38014285Y-64350057D01*
X38014285Y-64350057D02*
X37966666Y-64302438D01*
X37966666Y-64302438D02*
X37871428Y-64254819D01*
X91366666Y-65904819D02*
X91699999Y-65428628D01*
X91938094Y-65904819D02*
X91938094Y-64904819D01*
X91938094Y-64904819D02*
X91557142Y-64904819D01*
X91557142Y-64904819D02*
X91461904Y-64952438D01*
X91461904Y-64952438D02*
X91414285Y-65000057D01*
X91414285Y-65000057D02*
X91366666Y-65095295D01*
X91366666Y-65095295D02*
X91366666Y-65238152D01*
X91366666Y-65238152D02*
X91414285Y-65333390D01*
X91414285Y-65333390D02*
X91461904Y-65381009D01*
X91461904Y-65381009D02*
X91557142Y-65428628D01*
X91557142Y-65428628D02*
X91938094Y-65428628D01*
X91033332Y-64904819D02*
X90414285Y-64904819D01*
X90414285Y-64904819D02*
X90747618Y-65285771D01*
X90747618Y-65285771D02*
X90604761Y-65285771D01*
X90604761Y-65285771D02*
X90509523Y-65333390D01*
X90509523Y-65333390D02*
X90461904Y-65381009D01*
X90461904Y-65381009D02*
X90414285Y-65476247D01*
X90414285Y-65476247D02*
X90414285Y-65714342D01*
X90414285Y-65714342D02*
X90461904Y-65809580D01*
X90461904Y-65809580D02*
X90509523Y-65857200D01*
X90509523Y-65857200D02*
X90604761Y-65904819D01*
X90604761Y-65904819D02*
X90890475Y-65904819D01*
X90890475Y-65904819D02*
X90985713Y-65857200D01*
X90985713Y-65857200D02*
X91033332Y-65809580D01*
X92242857Y-63854819D02*
X92576190Y-63378628D01*
X92814285Y-63854819D02*
X92814285Y-62854819D01*
X92814285Y-62854819D02*
X92433333Y-62854819D01*
X92433333Y-62854819D02*
X92338095Y-62902438D01*
X92338095Y-62902438D02*
X92290476Y-62950057D01*
X92290476Y-62950057D02*
X92242857Y-63045295D01*
X92242857Y-63045295D02*
X92242857Y-63188152D01*
X92242857Y-63188152D02*
X92290476Y-63283390D01*
X92290476Y-63283390D02*
X92338095Y-63331009D01*
X92338095Y-63331009D02*
X92433333Y-63378628D01*
X92433333Y-63378628D02*
X92814285Y-63378628D01*
X91290476Y-63854819D02*
X91861904Y-63854819D01*
X91576190Y-63854819D02*
X91576190Y-62854819D01*
X91576190Y-62854819D02*
X91671428Y-62997676D01*
X91671428Y-62997676D02*
X91766666Y-63092914D01*
X91766666Y-63092914D02*
X91861904Y-63140533D01*
X90671428Y-62854819D02*
X90576190Y-62854819D01*
X90576190Y-62854819D02*
X90480952Y-62902438D01*
X90480952Y-62902438D02*
X90433333Y-62950057D01*
X90433333Y-62950057D02*
X90385714Y-63045295D01*
X90385714Y-63045295D02*
X90338095Y-63235771D01*
X90338095Y-63235771D02*
X90338095Y-63473866D01*
X90338095Y-63473866D02*
X90385714Y-63664342D01*
X90385714Y-63664342D02*
X90433333Y-63759580D01*
X90433333Y-63759580D02*
X90480952Y-63807200D01*
X90480952Y-63807200D02*
X90576190Y-63854819D01*
X90576190Y-63854819D02*
X90671428Y-63854819D01*
X90671428Y-63854819D02*
X90766666Y-63807200D01*
X90766666Y-63807200D02*
X90814285Y-63759580D01*
X90814285Y-63759580D02*
X90861904Y-63664342D01*
X90861904Y-63664342D02*
X90909523Y-63473866D01*
X90909523Y-63473866D02*
X90909523Y-63235771D01*
X90909523Y-63235771D02*
X90861904Y-63045295D01*
X90861904Y-63045295D02*
X90814285Y-62950057D01*
X90814285Y-62950057D02*
X90766666Y-62902438D01*
X90766666Y-62902438D02*
X90671428Y-62854819D01*
X33491666Y-47309580D02*
X33539285Y-47357200D01*
X33539285Y-47357200D02*
X33682142Y-47404819D01*
X33682142Y-47404819D02*
X33777380Y-47404819D01*
X33777380Y-47404819D02*
X33920237Y-47357200D01*
X33920237Y-47357200D02*
X34015475Y-47261961D01*
X34015475Y-47261961D02*
X34063094Y-47166723D01*
X34063094Y-47166723D02*
X34110713Y-46976247D01*
X34110713Y-46976247D02*
X34110713Y-46833390D01*
X34110713Y-46833390D02*
X34063094Y-46642914D01*
X34063094Y-46642914D02*
X34015475Y-46547676D01*
X34015475Y-46547676D02*
X33920237Y-46452438D01*
X33920237Y-46452438D02*
X33777380Y-46404819D01*
X33777380Y-46404819D02*
X33682142Y-46404819D01*
X33682142Y-46404819D02*
X33539285Y-46452438D01*
X33539285Y-46452438D02*
X33491666Y-46500057D01*
X33110713Y-46500057D02*
X33063094Y-46452438D01*
X33063094Y-46452438D02*
X32967856Y-46404819D01*
X32967856Y-46404819D02*
X32729761Y-46404819D01*
X32729761Y-46404819D02*
X32634523Y-46452438D01*
X32634523Y-46452438D02*
X32586904Y-46500057D01*
X32586904Y-46500057D02*
X32539285Y-46595295D01*
X32539285Y-46595295D02*
X32539285Y-46690533D01*
X32539285Y-46690533D02*
X32586904Y-46833390D01*
X32586904Y-46833390D02*
X33158332Y-47404819D01*
X33158332Y-47404819D02*
X32539285Y-47404819D01*
X94766666Y-60054819D02*
X95099999Y-59578628D01*
X95338094Y-60054819D02*
X95338094Y-59054819D01*
X95338094Y-59054819D02*
X94957142Y-59054819D01*
X94957142Y-59054819D02*
X94861904Y-59102438D01*
X94861904Y-59102438D02*
X94814285Y-59150057D01*
X94814285Y-59150057D02*
X94766666Y-59245295D01*
X94766666Y-59245295D02*
X94766666Y-59388152D01*
X94766666Y-59388152D02*
X94814285Y-59483390D01*
X94814285Y-59483390D02*
X94861904Y-59531009D01*
X94861904Y-59531009D02*
X94957142Y-59578628D01*
X94957142Y-59578628D02*
X95338094Y-59578628D01*
X94290475Y-60054819D02*
X94099999Y-60054819D01*
X94099999Y-60054819D02*
X94004761Y-60007200D01*
X94004761Y-60007200D02*
X93957142Y-59959580D01*
X93957142Y-59959580D02*
X93861904Y-59816723D01*
X93861904Y-59816723D02*
X93814285Y-59626247D01*
X93814285Y-59626247D02*
X93814285Y-59245295D01*
X93814285Y-59245295D02*
X93861904Y-59150057D01*
X93861904Y-59150057D02*
X93909523Y-59102438D01*
X93909523Y-59102438D02*
X94004761Y-59054819D01*
X94004761Y-59054819D02*
X94195237Y-59054819D01*
X94195237Y-59054819D02*
X94290475Y-59102438D01*
X94290475Y-59102438D02*
X94338094Y-59150057D01*
X94338094Y-59150057D02*
X94385713Y-59245295D01*
X94385713Y-59245295D02*
X94385713Y-59483390D01*
X94385713Y-59483390D02*
X94338094Y-59578628D01*
X94338094Y-59578628D02*
X94290475Y-59626247D01*
X94290475Y-59626247D02*
X94195237Y-59673866D01*
X94195237Y-59673866D02*
X94004761Y-59673866D01*
X94004761Y-59673866D02*
X93909523Y-59626247D01*
X93909523Y-59626247D02*
X93861904Y-59578628D01*
X93861904Y-59578628D02*
X93814285Y-59483390D01*
X104766666Y-74159580D02*
X104814285Y-74207200D01*
X104814285Y-74207200D02*
X104957142Y-74254819D01*
X104957142Y-74254819D02*
X105052380Y-74254819D01*
X105052380Y-74254819D02*
X105195237Y-74207200D01*
X105195237Y-74207200D02*
X105290475Y-74111961D01*
X105290475Y-74111961D02*
X105338094Y-74016723D01*
X105338094Y-74016723D02*
X105385713Y-73826247D01*
X105385713Y-73826247D02*
X105385713Y-73683390D01*
X105385713Y-73683390D02*
X105338094Y-73492914D01*
X105338094Y-73492914D02*
X105290475Y-73397676D01*
X105290475Y-73397676D02*
X105195237Y-73302438D01*
X105195237Y-73302438D02*
X105052380Y-73254819D01*
X105052380Y-73254819D02*
X104957142Y-73254819D01*
X104957142Y-73254819D02*
X104814285Y-73302438D01*
X104814285Y-73302438D02*
X104766666Y-73350057D01*
X103909523Y-73254819D02*
X104099999Y-73254819D01*
X104099999Y-73254819D02*
X104195237Y-73302438D01*
X104195237Y-73302438D02*
X104242856Y-73350057D01*
X104242856Y-73350057D02*
X104338094Y-73492914D01*
X104338094Y-73492914D02*
X104385713Y-73683390D01*
X104385713Y-73683390D02*
X104385713Y-74064342D01*
X104385713Y-74064342D02*
X104338094Y-74159580D01*
X104338094Y-74159580D02*
X104290475Y-74207200D01*
X104290475Y-74207200D02*
X104195237Y-74254819D01*
X104195237Y-74254819D02*
X104004761Y-74254819D01*
X104004761Y-74254819D02*
X103909523Y-74207200D01*
X103909523Y-74207200D02*
X103861904Y-74159580D01*
X103861904Y-74159580D02*
X103814285Y-74064342D01*
X103814285Y-74064342D02*
X103814285Y-73826247D01*
X103814285Y-73826247D02*
X103861904Y-73731009D01*
X103861904Y-73731009D02*
X103909523Y-73683390D01*
X103909523Y-73683390D02*
X104004761Y-73635771D01*
X104004761Y-73635771D02*
X104195237Y-73635771D01*
X104195237Y-73635771D02*
X104290475Y-73683390D01*
X104290475Y-73683390D02*
X104338094Y-73731009D01*
X104338094Y-73731009D02*
X104385713Y-73826247D01*
X97842857Y-43709580D02*
X97890476Y-43757200D01*
X97890476Y-43757200D02*
X98033333Y-43804819D01*
X98033333Y-43804819D02*
X98128571Y-43804819D01*
X98128571Y-43804819D02*
X98271428Y-43757200D01*
X98271428Y-43757200D02*
X98366666Y-43661961D01*
X98366666Y-43661961D02*
X98414285Y-43566723D01*
X98414285Y-43566723D02*
X98461904Y-43376247D01*
X98461904Y-43376247D02*
X98461904Y-43233390D01*
X98461904Y-43233390D02*
X98414285Y-43042914D01*
X98414285Y-43042914D02*
X98366666Y-42947676D01*
X98366666Y-42947676D02*
X98271428Y-42852438D01*
X98271428Y-42852438D02*
X98128571Y-42804819D01*
X98128571Y-42804819D02*
X98033333Y-42804819D01*
X98033333Y-42804819D02*
X97890476Y-42852438D01*
X97890476Y-42852438D02*
X97842857Y-42900057D01*
X96890476Y-43804819D02*
X97461904Y-43804819D01*
X97176190Y-43804819D02*
X97176190Y-42804819D01*
X97176190Y-42804819D02*
X97271428Y-42947676D01*
X97271428Y-42947676D02*
X97366666Y-43042914D01*
X97366666Y-43042914D02*
X97461904Y-43090533D01*
X95938095Y-43804819D02*
X96509523Y-43804819D01*
X96223809Y-43804819D02*
X96223809Y-42804819D01*
X96223809Y-42804819D02*
X96319047Y-42947676D01*
X96319047Y-42947676D02*
X96414285Y-43042914D01*
X96414285Y-43042914D02*
X96509523Y-43090533D01*
X96442857Y-55854819D02*
X96776190Y-55378628D01*
X97014285Y-55854819D02*
X97014285Y-54854819D01*
X97014285Y-54854819D02*
X96633333Y-54854819D01*
X96633333Y-54854819D02*
X96538095Y-54902438D01*
X96538095Y-54902438D02*
X96490476Y-54950057D01*
X96490476Y-54950057D02*
X96442857Y-55045295D01*
X96442857Y-55045295D02*
X96442857Y-55188152D01*
X96442857Y-55188152D02*
X96490476Y-55283390D01*
X96490476Y-55283390D02*
X96538095Y-55331009D01*
X96538095Y-55331009D02*
X96633333Y-55378628D01*
X96633333Y-55378628D02*
X97014285Y-55378628D01*
X95490476Y-55854819D02*
X96061904Y-55854819D01*
X95776190Y-55854819D02*
X95776190Y-54854819D01*
X95776190Y-54854819D02*
X95871428Y-54997676D01*
X95871428Y-54997676D02*
X95966666Y-55092914D01*
X95966666Y-55092914D02*
X96061904Y-55140533D01*
X94919047Y-55283390D02*
X95014285Y-55235771D01*
X95014285Y-55235771D02*
X95061904Y-55188152D01*
X95061904Y-55188152D02*
X95109523Y-55092914D01*
X95109523Y-55092914D02*
X95109523Y-55045295D01*
X95109523Y-55045295D02*
X95061904Y-54950057D01*
X95061904Y-54950057D02*
X95014285Y-54902438D01*
X95014285Y-54902438D02*
X94919047Y-54854819D01*
X94919047Y-54854819D02*
X94728571Y-54854819D01*
X94728571Y-54854819D02*
X94633333Y-54902438D01*
X94633333Y-54902438D02*
X94585714Y-54950057D01*
X94585714Y-54950057D02*
X94538095Y-55045295D01*
X94538095Y-55045295D02*
X94538095Y-55092914D01*
X94538095Y-55092914D02*
X94585714Y-55188152D01*
X94585714Y-55188152D02*
X94633333Y-55235771D01*
X94633333Y-55235771D02*
X94728571Y-55283390D01*
X94728571Y-55283390D02*
X94919047Y-55283390D01*
X94919047Y-55283390D02*
X95014285Y-55331009D01*
X95014285Y-55331009D02*
X95061904Y-55378628D01*
X95061904Y-55378628D02*
X95109523Y-55473866D01*
X95109523Y-55473866D02*
X95109523Y-55664342D01*
X95109523Y-55664342D02*
X95061904Y-55759580D01*
X95061904Y-55759580D02*
X95014285Y-55807200D01*
X95014285Y-55807200D02*
X94919047Y-55854819D01*
X94919047Y-55854819D02*
X94728571Y-55854819D01*
X94728571Y-55854819D02*
X94633333Y-55807200D01*
X94633333Y-55807200D02*
X94585714Y-55759580D01*
X94585714Y-55759580D02*
X94538095Y-55664342D01*
X94538095Y-55664342D02*
X94538095Y-55473866D01*
X94538095Y-55473866D02*
X94585714Y-55378628D01*
X94585714Y-55378628D02*
X94633333Y-55331009D01*
X94633333Y-55331009D02*
X94728571Y-55283390D01*
X94442857Y-68454819D02*
X94776190Y-67978628D01*
X95014285Y-68454819D02*
X95014285Y-67454819D01*
X95014285Y-67454819D02*
X94633333Y-67454819D01*
X94633333Y-67454819D02*
X94538095Y-67502438D01*
X94538095Y-67502438D02*
X94490476Y-67550057D01*
X94490476Y-67550057D02*
X94442857Y-67645295D01*
X94442857Y-67645295D02*
X94442857Y-67788152D01*
X94442857Y-67788152D02*
X94490476Y-67883390D01*
X94490476Y-67883390D02*
X94538095Y-67931009D01*
X94538095Y-67931009D02*
X94633333Y-67978628D01*
X94633333Y-67978628D02*
X95014285Y-67978628D01*
X93490476Y-68454819D02*
X94061904Y-68454819D01*
X93776190Y-68454819D02*
X93776190Y-67454819D01*
X93776190Y-67454819D02*
X93871428Y-67597676D01*
X93871428Y-67597676D02*
X93966666Y-67692914D01*
X93966666Y-67692914D02*
X94061904Y-67740533D01*
X92633333Y-67788152D02*
X92633333Y-68454819D01*
X92871428Y-67407200D02*
X93109523Y-68121485D01*
X93109523Y-68121485D02*
X92490476Y-68121485D01*
X31505357Y-54529580D02*
X31552976Y-54577200D01*
X31552976Y-54577200D02*
X31695833Y-54624819D01*
X31695833Y-54624819D02*
X31791071Y-54624819D01*
X31791071Y-54624819D02*
X31933928Y-54577200D01*
X31933928Y-54577200D02*
X32029166Y-54481961D01*
X32029166Y-54481961D02*
X32076785Y-54386723D01*
X32076785Y-54386723D02*
X32124404Y-54196247D01*
X32124404Y-54196247D02*
X32124404Y-54053390D01*
X32124404Y-54053390D02*
X32076785Y-53862914D01*
X32076785Y-53862914D02*
X32029166Y-53767676D01*
X32029166Y-53767676D02*
X31933928Y-53672438D01*
X31933928Y-53672438D02*
X31791071Y-53624819D01*
X31791071Y-53624819D02*
X31695833Y-53624819D01*
X31695833Y-53624819D02*
X31552976Y-53672438D01*
X31552976Y-53672438D02*
X31505357Y-53720057D01*
X30552976Y-54624819D02*
X31124404Y-54624819D01*
X30838690Y-54624819D02*
X30838690Y-53624819D01*
X30838690Y-53624819D02*
X30933928Y-53767676D01*
X30933928Y-53767676D02*
X31029166Y-53862914D01*
X31029166Y-53862914D02*
X31124404Y-53910533D01*
X29695833Y-53958152D02*
X29695833Y-54624819D01*
X29933928Y-53577200D02*
X30172023Y-54291485D01*
X30172023Y-54291485D02*
X29552976Y-54291485D01*
X99042857Y-58854819D02*
X99376190Y-58378628D01*
X99614285Y-58854819D02*
X99614285Y-57854819D01*
X99614285Y-57854819D02*
X99233333Y-57854819D01*
X99233333Y-57854819D02*
X99138095Y-57902438D01*
X99138095Y-57902438D02*
X99090476Y-57950057D01*
X99090476Y-57950057D02*
X99042857Y-58045295D01*
X99042857Y-58045295D02*
X99042857Y-58188152D01*
X99042857Y-58188152D02*
X99090476Y-58283390D01*
X99090476Y-58283390D02*
X99138095Y-58331009D01*
X99138095Y-58331009D02*
X99233333Y-58378628D01*
X99233333Y-58378628D02*
X99614285Y-58378628D01*
X98090476Y-58854819D02*
X98661904Y-58854819D01*
X98376190Y-58854819D02*
X98376190Y-57854819D01*
X98376190Y-57854819D02*
X98471428Y-57997676D01*
X98471428Y-57997676D02*
X98566666Y-58092914D01*
X98566666Y-58092914D02*
X98661904Y-58140533D01*
X97138095Y-58854819D02*
X97709523Y-58854819D01*
X97423809Y-58854819D02*
X97423809Y-57854819D01*
X97423809Y-57854819D02*
X97519047Y-57997676D01*
X97519047Y-57997676D02*
X97614285Y-58092914D01*
X97614285Y-58092914D02*
X97709523Y-58140533D01*
X48842857Y-71254819D02*
X49176190Y-70778628D01*
X49414285Y-71254819D02*
X49414285Y-70254819D01*
X49414285Y-70254819D02*
X49033333Y-70254819D01*
X49033333Y-70254819D02*
X48938095Y-70302438D01*
X48938095Y-70302438D02*
X48890476Y-70350057D01*
X48890476Y-70350057D02*
X48842857Y-70445295D01*
X48842857Y-70445295D02*
X48842857Y-70588152D01*
X48842857Y-70588152D02*
X48890476Y-70683390D01*
X48890476Y-70683390D02*
X48938095Y-70731009D01*
X48938095Y-70731009D02*
X49033333Y-70778628D01*
X49033333Y-70778628D02*
X49414285Y-70778628D01*
X48461904Y-70350057D02*
X48414285Y-70302438D01*
X48414285Y-70302438D02*
X48319047Y-70254819D01*
X48319047Y-70254819D02*
X48080952Y-70254819D01*
X48080952Y-70254819D02*
X47985714Y-70302438D01*
X47985714Y-70302438D02*
X47938095Y-70350057D01*
X47938095Y-70350057D02*
X47890476Y-70445295D01*
X47890476Y-70445295D02*
X47890476Y-70540533D01*
X47890476Y-70540533D02*
X47938095Y-70683390D01*
X47938095Y-70683390D02*
X48509523Y-71254819D01*
X48509523Y-71254819D02*
X47890476Y-71254819D01*
X46985714Y-70254819D02*
X47461904Y-70254819D01*
X47461904Y-70254819D02*
X47509523Y-70731009D01*
X47509523Y-70731009D02*
X47461904Y-70683390D01*
X47461904Y-70683390D02*
X47366666Y-70635771D01*
X47366666Y-70635771D02*
X47128571Y-70635771D01*
X47128571Y-70635771D02*
X47033333Y-70683390D01*
X47033333Y-70683390D02*
X46985714Y-70731009D01*
X46985714Y-70731009D02*
X46938095Y-70826247D01*
X46938095Y-70826247D02*
X46938095Y-71064342D01*
X46938095Y-71064342D02*
X46985714Y-71159580D01*
X46985714Y-71159580D02*
X47033333Y-71207200D01*
X47033333Y-71207200D02*
X47128571Y-71254819D01*
X47128571Y-71254819D02*
X47366666Y-71254819D01*
X47366666Y-71254819D02*
X47461904Y-71207200D01*
X47461904Y-71207200D02*
X47509523Y-71159580D01*
X41479166Y-57624819D02*
X41812499Y-57148628D01*
X42050594Y-57624819D02*
X42050594Y-56624819D01*
X42050594Y-56624819D02*
X41669642Y-56624819D01*
X41669642Y-56624819D02*
X41574404Y-56672438D01*
X41574404Y-56672438D02*
X41526785Y-56720057D01*
X41526785Y-56720057D02*
X41479166Y-56815295D01*
X41479166Y-56815295D02*
X41479166Y-56958152D01*
X41479166Y-56958152D02*
X41526785Y-57053390D01*
X41526785Y-57053390D02*
X41574404Y-57101009D01*
X41574404Y-57101009D02*
X41669642Y-57148628D01*
X41669642Y-57148628D02*
X42050594Y-57148628D01*
X40526785Y-57624819D02*
X41098213Y-57624819D01*
X40812499Y-57624819D02*
X40812499Y-56624819D01*
X40812499Y-56624819D02*
X40907737Y-56767676D01*
X40907737Y-56767676D02*
X41002975Y-56862914D01*
X41002975Y-56862914D02*
X41098213Y-56910533D01*
X43166666Y-46159580D02*
X43214285Y-46207200D01*
X43214285Y-46207200D02*
X43357142Y-46254819D01*
X43357142Y-46254819D02*
X43452380Y-46254819D01*
X43452380Y-46254819D02*
X43595237Y-46207200D01*
X43595237Y-46207200D02*
X43690475Y-46111961D01*
X43690475Y-46111961D02*
X43738094Y-46016723D01*
X43738094Y-46016723D02*
X43785713Y-45826247D01*
X43785713Y-45826247D02*
X43785713Y-45683390D01*
X43785713Y-45683390D02*
X43738094Y-45492914D01*
X43738094Y-45492914D02*
X43690475Y-45397676D01*
X43690475Y-45397676D02*
X43595237Y-45302438D01*
X43595237Y-45302438D02*
X43452380Y-45254819D01*
X43452380Y-45254819D02*
X43357142Y-45254819D01*
X43357142Y-45254819D02*
X43214285Y-45302438D01*
X43214285Y-45302438D02*
X43166666Y-45350057D01*
X42214285Y-46254819D02*
X42785713Y-46254819D01*
X42499999Y-46254819D02*
X42499999Y-45254819D01*
X42499999Y-45254819D02*
X42595237Y-45397676D01*
X42595237Y-45397676D02*
X42690475Y-45492914D01*
X42690475Y-45492914D02*
X42785713Y-45540533D01*
X106842857Y-41009580D02*
X106890476Y-41057200D01*
X106890476Y-41057200D02*
X107033333Y-41104819D01*
X107033333Y-41104819D02*
X107128571Y-41104819D01*
X107128571Y-41104819D02*
X107271428Y-41057200D01*
X107271428Y-41057200D02*
X107366666Y-40961961D01*
X107366666Y-40961961D02*
X107414285Y-40866723D01*
X107414285Y-40866723D02*
X107461904Y-40676247D01*
X107461904Y-40676247D02*
X107461904Y-40533390D01*
X107461904Y-40533390D02*
X107414285Y-40342914D01*
X107414285Y-40342914D02*
X107366666Y-40247676D01*
X107366666Y-40247676D02*
X107271428Y-40152438D01*
X107271428Y-40152438D02*
X107128571Y-40104819D01*
X107128571Y-40104819D02*
X107033333Y-40104819D01*
X107033333Y-40104819D02*
X106890476Y-40152438D01*
X106890476Y-40152438D02*
X106842857Y-40200057D01*
X105890476Y-41104819D02*
X106461904Y-41104819D01*
X106176190Y-41104819D02*
X106176190Y-40104819D01*
X106176190Y-40104819D02*
X106271428Y-40247676D01*
X106271428Y-40247676D02*
X106366666Y-40342914D01*
X106366666Y-40342914D02*
X106461904Y-40390533D01*
X105271428Y-40104819D02*
X105176190Y-40104819D01*
X105176190Y-40104819D02*
X105080952Y-40152438D01*
X105080952Y-40152438D02*
X105033333Y-40200057D01*
X105033333Y-40200057D02*
X104985714Y-40295295D01*
X104985714Y-40295295D02*
X104938095Y-40485771D01*
X104938095Y-40485771D02*
X104938095Y-40723866D01*
X104938095Y-40723866D02*
X104985714Y-40914342D01*
X104985714Y-40914342D02*
X105033333Y-41009580D01*
X105033333Y-41009580D02*
X105080952Y-41057200D01*
X105080952Y-41057200D02*
X105176190Y-41104819D01*
X105176190Y-41104819D02*
X105271428Y-41104819D01*
X105271428Y-41104819D02*
X105366666Y-41057200D01*
X105366666Y-41057200D02*
X105414285Y-41009580D01*
X105414285Y-41009580D02*
X105461904Y-40914342D01*
X105461904Y-40914342D02*
X105509523Y-40723866D01*
X105509523Y-40723866D02*
X105509523Y-40485771D01*
X105509523Y-40485771D02*
X105461904Y-40295295D01*
X105461904Y-40295295D02*
X105414285Y-40200057D01*
X105414285Y-40200057D02*
X105366666Y-40152438D01*
X105366666Y-40152438D02*
X105271428Y-40104819D01*
X91266666Y-35159580D02*
X91314285Y-35207200D01*
X91314285Y-35207200D02*
X91457142Y-35254819D01*
X91457142Y-35254819D02*
X91552380Y-35254819D01*
X91552380Y-35254819D02*
X91695237Y-35207200D01*
X91695237Y-35207200D02*
X91790475Y-35111961D01*
X91790475Y-35111961D02*
X91838094Y-35016723D01*
X91838094Y-35016723D02*
X91885713Y-34826247D01*
X91885713Y-34826247D02*
X91885713Y-34683390D01*
X91885713Y-34683390D02*
X91838094Y-34492914D01*
X91838094Y-34492914D02*
X91790475Y-34397676D01*
X91790475Y-34397676D02*
X91695237Y-34302438D01*
X91695237Y-34302438D02*
X91552380Y-34254819D01*
X91552380Y-34254819D02*
X91457142Y-34254819D01*
X91457142Y-34254819D02*
X91314285Y-34302438D01*
X91314285Y-34302438D02*
X91266666Y-34350057D01*
X90361904Y-34254819D02*
X90838094Y-34254819D01*
X90838094Y-34254819D02*
X90885713Y-34731009D01*
X90885713Y-34731009D02*
X90838094Y-34683390D01*
X90838094Y-34683390D02*
X90742856Y-34635771D01*
X90742856Y-34635771D02*
X90504761Y-34635771D01*
X90504761Y-34635771D02*
X90409523Y-34683390D01*
X90409523Y-34683390D02*
X90361904Y-34731009D01*
X90361904Y-34731009D02*
X90314285Y-34826247D01*
X90314285Y-34826247D02*
X90314285Y-35064342D01*
X90314285Y-35064342D02*
X90361904Y-35159580D01*
X90361904Y-35159580D02*
X90409523Y-35207200D01*
X90409523Y-35207200D02*
X90504761Y-35254819D01*
X90504761Y-35254819D02*
X90742856Y-35254819D01*
X90742856Y-35254819D02*
X90838094Y-35207200D01*
X90838094Y-35207200D02*
X90885713Y-35159580D01*
X29042857Y-65854819D02*
X29376190Y-65378628D01*
X29614285Y-65854819D02*
X29614285Y-64854819D01*
X29614285Y-64854819D02*
X29233333Y-64854819D01*
X29233333Y-64854819D02*
X29138095Y-64902438D01*
X29138095Y-64902438D02*
X29090476Y-64950057D01*
X29090476Y-64950057D02*
X29042857Y-65045295D01*
X29042857Y-65045295D02*
X29042857Y-65188152D01*
X29042857Y-65188152D02*
X29090476Y-65283390D01*
X29090476Y-65283390D02*
X29138095Y-65331009D01*
X29138095Y-65331009D02*
X29233333Y-65378628D01*
X29233333Y-65378628D02*
X29614285Y-65378628D01*
X28661904Y-64950057D02*
X28614285Y-64902438D01*
X28614285Y-64902438D02*
X28519047Y-64854819D01*
X28519047Y-64854819D02*
X28280952Y-64854819D01*
X28280952Y-64854819D02*
X28185714Y-64902438D01*
X28185714Y-64902438D02*
X28138095Y-64950057D01*
X28138095Y-64950057D02*
X28090476Y-65045295D01*
X28090476Y-65045295D02*
X28090476Y-65140533D01*
X28090476Y-65140533D02*
X28138095Y-65283390D01*
X28138095Y-65283390D02*
X28709523Y-65854819D01*
X28709523Y-65854819D02*
X28090476Y-65854819D01*
X27757142Y-64854819D02*
X27090476Y-64854819D01*
X27090476Y-64854819D02*
X27519047Y-65854819D01*
X40842857Y-71254819D02*
X41176190Y-70778628D01*
X41414285Y-71254819D02*
X41414285Y-70254819D01*
X41414285Y-70254819D02*
X41033333Y-70254819D01*
X41033333Y-70254819D02*
X40938095Y-70302438D01*
X40938095Y-70302438D02*
X40890476Y-70350057D01*
X40890476Y-70350057D02*
X40842857Y-70445295D01*
X40842857Y-70445295D02*
X40842857Y-70588152D01*
X40842857Y-70588152D02*
X40890476Y-70683390D01*
X40890476Y-70683390D02*
X40938095Y-70731009D01*
X40938095Y-70731009D02*
X41033333Y-70778628D01*
X41033333Y-70778628D02*
X41414285Y-70778628D01*
X40509523Y-70254819D02*
X39890476Y-70254819D01*
X39890476Y-70254819D02*
X40223809Y-70635771D01*
X40223809Y-70635771D02*
X40080952Y-70635771D01*
X40080952Y-70635771D02*
X39985714Y-70683390D01*
X39985714Y-70683390D02*
X39938095Y-70731009D01*
X39938095Y-70731009D02*
X39890476Y-70826247D01*
X39890476Y-70826247D02*
X39890476Y-71064342D01*
X39890476Y-71064342D02*
X39938095Y-71159580D01*
X39938095Y-71159580D02*
X39985714Y-71207200D01*
X39985714Y-71207200D02*
X40080952Y-71254819D01*
X40080952Y-71254819D02*
X40366666Y-71254819D01*
X40366666Y-71254819D02*
X40461904Y-71207200D01*
X40461904Y-71207200D02*
X40509523Y-71159580D01*
X38938095Y-71254819D02*
X39509523Y-71254819D01*
X39223809Y-71254819D02*
X39223809Y-70254819D01*
X39223809Y-70254819D02*
X39319047Y-70397676D01*
X39319047Y-70397676D02*
X39414285Y-70492914D01*
X39414285Y-70492914D02*
X39509523Y-70540533D01*
X27242857Y-71454819D02*
X27576190Y-70978628D01*
X27814285Y-71454819D02*
X27814285Y-70454819D01*
X27814285Y-70454819D02*
X27433333Y-70454819D01*
X27433333Y-70454819D02*
X27338095Y-70502438D01*
X27338095Y-70502438D02*
X27290476Y-70550057D01*
X27290476Y-70550057D02*
X27242857Y-70645295D01*
X27242857Y-70645295D02*
X27242857Y-70788152D01*
X27242857Y-70788152D02*
X27290476Y-70883390D01*
X27290476Y-70883390D02*
X27338095Y-70931009D01*
X27338095Y-70931009D02*
X27433333Y-70978628D01*
X27433333Y-70978628D02*
X27814285Y-70978628D01*
X26861904Y-70550057D02*
X26814285Y-70502438D01*
X26814285Y-70502438D02*
X26719047Y-70454819D01*
X26719047Y-70454819D02*
X26480952Y-70454819D01*
X26480952Y-70454819D02*
X26385714Y-70502438D01*
X26385714Y-70502438D02*
X26338095Y-70550057D01*
X26338095Y-70550057D02*
X26290476Y-70645295D01*
X26290476Y-70645295D02*
X26290476Y-70740533D01*
X26290476Y-70740533D02*
X26338095Y-70883390D01*
X26338095Y-70883390D02*
X26909523Y-71454819D01*
X26909523Y-71454819D02*
X26290476Y-71454819D01*
X25719047Y-70883390D02*
X25814285Y-70835771D01*
X25814285Y-70835771D02*
X25861904Y-70788152D01*
X25861904Y-70788152D02*
X25909523Y-70692914D01*
X25909523Y-70692914D02*
X25909523Y-70645295D01*
X25909523Y-70645295D02*
X25861904Y-70550057D01*
X25861904Y-70550057D02*
X25814285Y-70502438D01*
X25814285Y-70502438D02*
X25719047Y-70454819D01*
X25719047Y-70454819D02*
X25528571Y-70454819D01*
X25528571Y-70454819D02*
X25433333Y-70502438D01*
X25433333Y-70502438D02*
X25385714Y-70550057D01*
X25385714Y-70550057D02*
X25338095Y-70645295D01*
X25338095Y-70645295D02*
X25338095Y-70692914D01*
X25338095Y-70692914D02*
X25385714Y-70788152D01*
X25385714Y-70788152D02*
X25433333Y-70835771D01*
X25433333Y-70835771D02*
X25528571Y-70883390D01*
X25528571Y-70883390D02*
X25719047Y-70883390D01*
X25719047Y-70883390D02*
X25814285Y-70931009D01*
X25814285Y-70931009D02*
X25861904Y-70978628D01*
X25861904Y-70978628D02*
X25909523Y-71073866D01*
X25909523Y-71073866D02*
X25909523Y-71264342D01*
X25909523Y-71264342D02*
X25861904Y-71359580D01*
X25861904Y-71359580D02*
X25814285Y-71407200D01*
X25814285Y-71407200D02*
X25719047Y-71454819D01*
X25719047Y-71454819D02*
X25528571Y-71454819D01*
X25528571Y-71454819D02*
X25433333Y-71407200D01*
X25433333Y-71407200D02*
X25385714Y-71359580D01*
X25385714Y-71359580D02*
X25338095Y-71264342D01*
X25338095Y-71264342D02*
X25338095Y-71073866D01*
X25338095Y-71073866D02*
X25385714Y-70978628D01*
X25385714Y-70978628D02*
X25433333Y-70931009D01*
X25433333Y-70931009D02*
X25528571Y-70883390D01*
X77711904Y-56504819D02*
X77711904Y-57314342D01*
X77711904Y-57314342D02*
X77664285Y-57409580D01*
X77664285Y-57409580D02*
X77616666Y-57457200D01*
X77616666Y-57457200D02*
X77521428Y-57504819D01*
X77521428Y-57504819D02*
X77330952Y-57504819D01*
X77330952Y-57504819D02*
X77235714Y-57457200D01*
X77235714Y-57457200D02*
X77188095Y-57409580D01*
X77188095Y-57409580D02*
X77140476Y-57314342D01*
X77140476Y-57314342D02*
X77140476Y-56504819D01*
X76235714Y-56504819D02*
X76426190Y-56504819D01*
X76426190Y-56504819D02*
X76521428Y-56552438D01*
X76521428Y-56552438D02*
X76569047Y-56600057D01*
X76569047Y-56600057D02*
X76664285Y-56742914D01*
X76664285Y-56742914D02*
X76711904Y-56933390D01*
X76711904Y-56933390D02*
X76711904Y-57314342D01*
X76711904Y-57314342D02*
X76664285Y-57409580D01*
X76664285Y-57409580D02*
X76616666Y-57457200D01*
X76616666Y-57457200D02*
X76521428Y-57504819D01*
X76521428Y-57504819D02*
X76330952Y-57504819D01*
X76330952Y-57504819D02*
X76235714Y-57457200D01*
X76235714Y-57457200D02*
X76188095Y-57409580D01*
X76188095Y-57409580D02*
X76140476Y-57314342D01*
X76140476Y-57314342D02*
X76140476Y-57076247D01*
X76140476Y-57076247D02*
X76188095Y-56981009D01*
X76188095Y-56981009D02*
X76235714Y-56933390D01*
X76235714Y-56933390D02*
X76330952Y-56885771D01*
X76330952Y-56885771D02*
X76521428Y-56885771D01*
X76521428Y-56885771D02*
X76616666Y-56933390D01*
X76616666Y-56933390D02*
X76664285Y-56981009D01*
X76664285Y-56981009D02*
X76711904Y-57076247D01*
X45842857Y-71254819D02*
X46176190Y-70778628D01*
X46414285Y-71254819D02*
X46414285Y-70254819D01*
X46414285Y-70254819D02*
X46033333Y-70254819D01*
X46033333Y-70254819D02*
X45938095Y-70302438D01*
X45938095Y-70302438D02*
X45890476Y-70350057D01*
X45890476Y-70350057D02*
X45842857Y-70445295D01*
X45842857Y-70445295D02*
X45842857Y-70588152D01*
X45842857Y-70588152D02*
X45890476Y-70683390D01*
X45890476Y-70683390D02*
X45938095Y-70731009D01*
X45938095Y-70731009D02*
X46033333Y-70778628D01*
X46033333Y-70778628D02*
X46414285Y-70778628D01*
X45461904Y-70350057D02*
X45414285Y-70302438D01*
X45414285Y-70302438D02*
X45319047Y-70254819D01*
X45319047Y-70254819D02*
X45080952Y-70254819D01*
X45080952Y-70254819D02*
X44985714Y-70302438D01*
X44985714Y-70302438D02*
X44938095Y-70350057D01*
X44938095Y-70350057D02*
X44890476Y-70445295D01*
X44890476Y-70445295D02*
X44890476Y-70540533D01*
X44890476Y-70540533D02*
X44938095Y-70683390D01*
X44938095Y-70683390D02*
X45509523Y-71254819D01*
X45509523Y-71254819D02*
X44890476Y-71254819D01*
X44033333Y-70254819D02*
X44223809Y-70254819D01*
X44223809Y-70254819D02*
X44319047Y-70302438D01*
X44319047Y-70302438D02*
X44366666Y-70350057D01*
X44366666Y-70350057D02*
X44461904Y-70492914D01*
X44461904Y-70492914D02*
X44509523Y-70683390D01*
X44509523Y-70683390D02*
X44509523Y-71064342D01*
X44509523Y-71064342D02*
X44461904Y-71159580D01*
X44461904Y-71159580D02*
X44414285Y-71207200D01*
X44414285Y-71207200D02*
X44319047Y-71254819D01*
X44319047Y-71254819D02*
X44128571Y-71254819D01*
X44128571Y-71254819D02*
X44033333Y-71207200D01*
X44033333Y-71207200D02*
X43985714Y-71159580D01*
X43985714Y-71159580D02*
X43938095Y-71064342D01*
X43938095Y-71064342D02*
X43938095Y-70826247D01*
X43938095Y-70826247D02*
X43985714Y-70731009D01*
X43985714Y-70731009D02*
X44033333Y-70683390D01*
X44033333Y-70683390D02*
X44128571Y-70635771D01*
X44128571Y-70635771D02*
X44319047Y-70635771D01*
X44319047Y-70635771D02*
X44414285Y-70683390D01*
X44414285Y-70683390D02*
X44461904Y-70731009D01*
X44461904Y-70731009D02*
X44509523Y-70826247D01*
X59442857Y-64054819D02*
X59776190Y-63578628D01*
X60014285Y-64054819D02*
X60014285Y-63054819D01*
X60014285Y-63054819D02*
X59633333Y-63054819D01*
X59633333Y-63054819D02*
X59538095Y-63102438D01*
X59538095Y-63102438D02*
X59490476Y-63150057D01*
X59490476Y-63150057D02*
X59442857Y-63245295D01*
X59442857Y-63245295D02*
X59442857Y-63388152D01*
X59442857Y-63388152D02*
X59490476Y-63483390D01*
X59490476Y-63483390D02*
X59538095Y-63531009D01*
X59538095Y-63531009D02*
X59633333Y-63578628D01*
X59633333Y-63578628D02*
X60014285Y-63578628D01*
X59061904Y-63150057D02*
X59014285Y-63102438D01*
X59014285Y-63102438D02*
X58919047Y-63054819D01*
X58919047Y-63054819D02*
X58680952Y-63054819D01*
X58680952Y-63054819D02*
X58585714Y-63102438D01*
X58585714Y-63102438D02*
X58538095Y-63150057D01*
X58538095Y-63150057D02*
X58490476Y-63245295D01*
X58490476Y-63245295D02*
X58490476Y-63340533D01*
X58490476Y-63340533D02*
X58538095Y-63483390D01*
X58538095Y-63483390D02*
X59109523Y-64054819D01*
X59109523Y-64054819D02*
X58490476Y-64054819D01*
X58109523Y-63150057D02*
X58061904Y-63102438D01*
X58061904Y-63102438D02*
X57966666Y-63054819D01*
X57966666Y-63054819D02*
X57728571Y-63054819D01*
X57728571Y-63054819D02*
X57633333Y-63102438D01*
X57633333Y-63102438D02*
X57585714Y-63150057D01*
X57585714Y-63150057D02*
X57538095Y-63245295D01*
X57538095Y-63245295D02*
X57538095Y-63340533D01*
X57538095Y-63340533D02*
X57585714Y-63483390D01*
X57585714Y-63483390D02*
X58157142Y-64054819D01*
X58157142Y-64054819D02*
X57538095Y-64054819D01*
X108042857Y-54654819D02*
X108376190Y-54178628D01*
X108614285Y-54654819D02*
X108614285Y-53654819D01*
X108614285Y-53654819D02*
X108233333Y-53654819D01*
X108233333Y-53654819D02*
X108138095Y-53702438D01*
X108138095Y-53702438D02*
X108090476Y-53750057D01*
X108090476Y-53750057D02*
X108042857Y-53845295D01*
X108042857Y-53845295D02*
X108042857Y-53988152D01*
X108042857Y-53988152D02*
X108090476Y-54083390D01*
X108090476Y-54083390D02*
X108138095Y-54131009D01*
X108138095Y-54131009D02*
X108233333Y-54178628D01*
X108233333Y-54178628D02*
X108614285Y-54178628D01*
X107090476Y-54654819D02*
X107661904Y-54654819D01*
X107376190Y-54654819D02*
X107376190Y-53654819D01*
X107376190Y-53654819D02*
X107471428Y-53797676D01*
X107471428Y-53797676D02*
X107566666Y-53892914D01*
X107566666Y-53892914D02*
X107661904Y-53940533D01*
X106757142Y-53654819D02*
X106090476Y-53654819D01*
X106090476Y-53654819D02*
X106519047Y-54654819D01*
X38561904Y-56254819D02*
X38561904Y-57064342D01*
X38561904Y-57064342D02*
X38514285Y-57159580D01*
X38514285Y-57159580D02*
X38466666Y-57207200D01*
X38466666Y-57207200D02*
X38371428Y-57254819D01*
X38371428Y-57254819D02*
X38180952Y-57254819D01*
X38180952Y-57254819D02*
X38085714Y-57207200D01*
X38085714Y-57207200D02*
X38038095Y-57159580D01*
X38038095Y-57159580D02*
X37990476Y-57064342D01*
X37990476Y-57064342D02*
X37990476Y-56254819D01*
X37371428Y-56683390D02*
X37466666Y-56635771D01*
X37466666Y-56635771D02*
X37514285Y-56588152D01*
X37514285Y-56588152D02*
X37561904Y-56492914D01*
X37561904Y-56492914D02*
X37561904Y-56445295D01*
X37561904Y-56445295D02*
X37514285Y-56350057D01*
X37514285Y-56350057D02*
X37466666Y-56302438D01*
X37466666Y-56302438D02*
X37371428Y-56254819D01*
X37371428Y-56254819D02*
X37180952Y-56254819D01*
X37180952Y-56254819D02*
X37085714Y-56302438D01*
X37085714Y-56302438D02*
X37038095Y-56350057D01*
X37038095Y-56350057D02*
X36990476Y-56445295D01*
X36990476Y-56445295D02*
X36990476Y-56492914D01*
X36990476Y-56492914D02*
X37038095Y-56588152D01*
X37038095Y-56588152D02*
X37085714Y-56635771D01*
X37085714Y-56635771D02*
X37180952Y-56683390D01*
X37180952Y-56683390D02*
X37371428Y-56683390D01*
X37371428Y-56683390D02*
X37466666Y-56731009D01*
X37466666Y-56731009D02*
X37514285Y-56778628D01*
X37514285Y-56778628D02*
X37561904Y-56873866D01*
X37561904Y-56873866D02*
X37561904Y-57064342D01*
X37561904Y-57064342D02*
X37514285Y-57159580D01*
X37514285Y-57159580D02*
X37466666Y-57207200D01*
X37466666Y-57207200D02*
X37371428Y-57254819D01*
X37371428Y-57254819D02*
X37180952Y-57254819D01*
X37180952Y-57254819D02*
X37085714Y-57207200D01*
X37085714Y-57207200D02*
X37038095Y-57159580D01*
X37038095Y-57159580D02*
X36990476Y-57064342D01*
X36990476Y-57064342D02*
X36990476Y-56873866D01*
X36990476Y-56873866D02*
X37038095Y-56778628D01*
X37038095Y-56778628D02*
X37085714Y-56731009D01*
X37085714Y-56731009D02*
X37180952Y-56683390D01*
X106561904Y-62304819D02*
X106561904Y-63114342D01*
X106561904Y-63114342D02*
X106514285Y-63209580D01*
X106514285Y-63209580D02*
X106466666Y-63257200D01*
X106466666Y-63257200D02*
X106371428Y-63304819D01*
X106371428Y-63304819D02*
X106180952Y-63304819D01*
X106180952Y-63304819D02*
X106085714Y-63257200D01*
X106085714Y-63257200D02*
X106038095Y-63209580D01*
X106038095Y-63209580D02*
X105990476Y-63114342D01*
X105990476Y-63114342D02*
X105990476Y-62304819D01*
X105085714Y-62638152D02*
X105085714Y-63304819D01*
X105323809Y-62257200D02*
X105561904Y-62971485D01*
X105561904Y-62971485D02*
X104942857Y-62971485D01*
X66042857Y-64254819D02*
X66376190Y-63778628D01*
X66614285Y-64254819D02*
X66614285Y-63254819D01*
X66614285Y-63254819D02*
X66233333Y-63254819D01*
X66233333Y-63254819D02*
X66138095Y-63302438D01*
X66138095Y-63302438D02*
X66090476Y-63350057D01*
X66090476Y-63350057D02*
X66042857Y-63445295D01*
X66042857Y-63445295D02*
X66042857Y-63588152D01*
X66042857Y-63588152D02*
X66090476Y-63683390D01*
X66090476Y-63683390D02*
X66138095Y-63731009D01*
X66138095Y-63731009D02*
X66233333Y-63778628D01*
X66233333Y-63778628D02*
X66614285Y-63778628D01*
X65661904Y-63350057D02*
X65614285Y-63302438D01*
X65614285Y-63302438D02*
X65519047Y-63254819D01*
X65519047Y-63254819D02*
X65280952Y-63254819D01*
X65280952Y-63254819D02*
X65185714Y-63302438D01*
X65185714Y-63302438D02*
X65138095Y-63350057D01*
X65138095Y-63350057D02*
X65090476Y-63445295D01*
X65090476Y-63445295D02*
X65090476Y-63540533D01*
X65090476Y-63540533D02*
X65138095Y-63683390D01*
X65138095Y-63683390D02*
X65709523Y-64254819D01*
X65709523Y-64254819D02*
X65090476Y-64254819D01*
X64138095Y-64254819D02*
X64709523Y-64254819D01*
X64423809Y-64254819D02*
X64423809Y-63254819D01*
X64423809Y-63254819D02*
X64519047Y-63397676D01*
X64519047Y-63397676D02*
X64614285Y-63492914D01*
X64614285Y-63492914D02*
X64709523Y-63540533D01*
X93042857Y-44054819D02*
X93376190Y-43578628D01*
X93614285Y-44054819D02*
X93614285Y-43054819D01*
X93614285Y-43054819D02*
X93233333Y-43054819D01*
X93233333Y-43054819D02*
X93138095Y-43102438D01*
X93138095Y-43102438D02*
X93090476Y-43150057D01*
X93090476Y-43150057D02*
X93042857Y-43245295D01*
X93042857Y-43245295D02*
X93042857Y-43388152D01*
X93042857Y-43388152D02*
X93090476Y-43483390D01*
X93090476Y-43483390D02*
X93138095Y-43531009D01*
X93138095Y-43531009D02*
X93233333Y-43578628D01*
X93233333Y-43578628D02*
X93614285Y-43578628D01*
X92090476Y-44054819D02*
X92661904Y-44054819D01*
X92376190Y-44054819D02*
X92376190Y-43054819D01*
X92376190Y-43054819D02*
X92471428Y-43197676D01*
X92471428Y-43197676D02*
X92566666Y-43292914D01*
X92566666Y-43292914D02*
X92661904Y-43340533D01*
X91614285Y-44054819D02*
X91423809Y-44054819D01*
X91423809Y-44054819D02*
X91328571Y-44007200D01*
X91328571Y-44007200D02*
X91280952Y-43959580D01*
X91280952Y-43959580D02*
X91185714Y-43816723D01*
X91185714Y-43816723D02*
X91138095Y-43626247D01*
X91138095Y-43626247D02*
X91138095Y-43245295D01*
X91138095Y-43245295D02*
X91185714Y-43150057D01*
X91185714Y-43150057D02*
X91233333Y-43102438D01*
X91233333Y-43102438D02*
X91328571Y-43054819D01*
X91328571Y-43054819D02*
X91519047Y-43054819D01*
X91519047Y-43054819D02*
X91614285Y-43102438D01*
X91614285Y-43102438D02*
X91661904Y-43150057D01*
X91661904Y-43150057D02*
X91709523Y-43245295D01*
X91709523Y-43245295D02*
X91709523Y-43483390D01*
X91709523Y-43483390D02*
X91661904Y-43578628D01*
X91661904Y-43578628D02*
X91614285Y-43626247D01*
X91614285Y-43626247D02*
X91519047Y-43673866D01*
X91519047Y-43673866D02*
X91328571Y-43673866D01*
X91328571Y-43673866D02*
X91233333Y-43626247D01*
X91233333Y-43626247D02*
X91185714Y-43578628D01*
X91185714Y-43578628D02*
X91138095Y-43483390D01*
X95761904Y-48454819D02*
X95761904Y-49264342D01*
X95761904Y-49264342D02*
X95714285Y-49359580D01*
X95714285Y-49359580D02*
X95666666Y-49407200D01*
X95666666Y-49407200D02*
X95571428Y-49454819D01*
X95571428Y-49454819D02*
X95380952Y-49454819D01*
X95380952Y-49454819D02*
X95285714Y-49407200D01*
X95285714Y-49407200D02*
X95238095Y-49359580D01*
X95238095Y-49359580D02*
X95190476Y-49264342D01*
X95190476Y-49264342D02*
X95190476Y-48454819D01*
X94238095Y-48454819D02*
X94714285Y-48454819D01*
X94714285Y-48454819D02*
X94761904Y-48931009D01*
X94761904Y-48931009D02*
X94714285Y-48883390D01*
X94714285Y-48883390D02*
X94619047Y-48835771D01*
X94619047Y-48835771D02*
X94380952Y-48835771D01*
X94380952Y-48835771D02*
X94285714Y-48883390D01*
X94285714Y-48883390D02*
X94238095Y-48931009D01*
X94238095Y-48931009D02*
X94190476Y-49026247D01*
X94190476Y-49026247D02*
X94190476Y-49264342D01*
X94190476Y-49264342D02*
X94238095Y-49359580D01*
X94238095Y-49359580D02*
X94285714Y-49407200D01*
X94285714Y-49407200D02*
X94380952Y-49454819D01*
X94380952Y-49454819D02*
X94619047Y-49454819D01*
X94619047Y-49454819D02*
X94714285Y-49407200D01*
X94714285Y-49407200D02*
X94761904Y-49359580D01*
X95316666Y-74009580D02*
X95364285Y-74057200D01*
X95364285Y-74057200D02*
X95507142Y-74104819D01*
X95507142Y-74104819D02*
X95602380Y-74104819D01*
X95602380Y-74104819D02*
X95745237Y-74057200D01*
X95745237Y-74057200D02*
X95840475Y-73961961D01*
X95840475Y-73961961D02*
X95888094Y-73866723D01*
X95888094Y-73866723D02*
X95935713Y-73676247D01*
X95935713Y-73676247D02*
X95935713Y-73533390D01*
X95935713Y-73533390D02*
X95888094Y-73342914D01*
X95888094Y-73342914D02*
X95840475Y-73247676D01*
X95840475Y-73247676D02*
X95745237Y-73152438D01*
X95745237Y-73152438D02*
X95602380Y-73104819D01*
X95602380Y-73104819D02*
X95507142Y-73104819D01*
X95507142Y-73104819D02*
X95364285Y-73152438D01*
X95364285Y-73152438D02*
X95316666Y-73200057D01*
X94745237Y-73533390D02*
X94840475Y-73485771D01*
X94840475Y-73485771D02*
X94888094Y-73438152D01*
X94888094Y-73438152D02*
X94935713Y-73342914D01*
X94935713Y-73342914D02*
X94935713Y-73295295D01*
X94935713Y-73295295D02*
X94888094Y-73200057D01*
X94888094Y-73200057D02*
X94840475Y-73152438D01*
X94840475Y-73152438D02*
X94745237Y-73104819D01*
X94745237Y-73104819D02*
X94554761Y-73104819D01*
X94554761Y-73104819D02*
X94459523Y-73152438D01*
X94459523Y-73152438D02*
X94411904Y-73200057D01*
X94411904Y-73200057D02*
X94364285Y-73295295D01*
X94364285Y-73295295D02*
X94364285Y-73342914D01*
X94364285Y-73342914D02*
X94411904Y-73438152D01*
X94411904Y-73438152D02*
X94459523Y-73485771D01*
X94459523Y-73485771D02*
X94554761Y-73533390D01*
X94554761Y-73533390D02*
X94745237Y-73533390D01*
X94745237Y-73533390D02*
X94840475Y-73581009D01*
X94840475Y-73581009D02*
X94888094Y-73628628D01*
X94888094Y-73628628D02*
X94935713Y-73723866D01*
X94935713Y-73723866D02*
X94935713Y-73914342D01*
X94935713Y-73914342D02*
X94888094Y-74009580D01*
X94888094Y-74009580D02*
X94840475Y-74057200D01*
X94840475Y-74057200D02*
X94745237Y-74104819D01*
X94745237Y-74104819D02*
X94554761Y-74104819D01*
X94554761Y-74104819D02*
X94459523Y-74057200D01*
X94459523Y-74057200D02*
X94411904Y-74009580D01*
X94411904Y-74009580D02*
X94364285Y-73914342D01*
X94364285Y-73914342D02*
X94364285Y-73723866D01*
X94364285Y-73723866D02*
X94411904Y-73628628D01*
X94411904Y-73628628D02*
X94459523Y-73581009D01*
X94459523Y-73581009D02*
X94554761Y-73533390D01*
X37566666Y-55454819D02*
X37899999Y-54978628D01*
X38138094Y-55454819D02*
X38138094Y-54454819D01*
X38138094Y-54454819D02*
X37757142Y-54454819D01*
X37757142Y-54454819D02*
X37661904Y-54502438D01*
X37661904Y-54502438D02*
X37614285Y-54550057D01*
X37614285Y-54550057D02*
X37566666Y-54645295D01*
X37566666Y-54645295D02*
X37566666Y-54788152D01*
X37566666Y-54788152D02*
X37614285Y-54883390D01*
X37614285Y-54883390D02*
X37661904Y-54931009D01*
X37661904Y-54931009D02*
X37757142Y-54978628D01*
X37757142Y-54978628D02*
X38138094Y-54978628D01*
X36709523Y-54454819D02*
X36899999Y-54454819D01*
X36899999Y-54454819D02*
X36995237Y-54502438D01*
X36995237Y-54502438D02*
X37042856Y-54550057D01*
X37042856Y-54550057D02*
X37138094Y-54692914D01*
X37138094Y-54692914D02*
X37185713Y-54883390D01*
X37185713Y-54883390D02*
X37185713Y-55264342D01*
X37185713Y-55264342D02*
X37138094Y-55359580D01*
X37138094Y-55359580D02*
X37090475Y-55407200D01*
X37090475Y-55407200D02*
X36995237Y-55454819D01*
X36995237Y-55454819D02*
X36804761Y-55454819D01*
X36804761Y-55454819D02*
X36709523Y-55407200D01*
X36709523Y-55407200D02*
X36661904Y-55359580D01*
X36661904Y-55359580D02*
X36614285Y-55264342D01*
X36614285Y-55264342D02*
X36614285Y-55026247D01*
X36614285Y-55026247D02*
X36661904Y-54931009D01*
X36661904Y-54931009D02*
X36709523Y-54883390D01*
X36709523Y-54883390D02*
X36804761Y-54835771D01*
X36804761Y-54835771D02*
X36995237Y-54835771D01*
X36995237Y-54835771D02*
X37090475Y-54883390D01*
X37090475Y-54883390D02*
X37138094Y-54931009D01*
X37138094Y-54931009D02*
X37185713Y-55026247D01*
X36042857Y-71254819D02*
X36376190Y-70778628D01*
X36614285Y-71254819D02*
X36614285Y-70254819D01*
X36614285Y-70254819D02*
X36233333Y-70254819D01*
X36233333Y-70254819D02*
X36138095Y-70302438D01*
X36138095Y-70302438D02*
X36090476Y-70350057D01*
X36090476Y-70350057D02*
X36042857Y-70445295D01*
X36042857Y-70445295D02*
X36042857Y-70588152D01*
X36042857Y-70588152D02*
X36090476Y-70683390D01*
X36090476Y-70683390D02*
X36138095Y-70731009D01*
X36138095Y-70731009D02*
X36233333Y-70778628D01*
X36233333Y-70778628D02*
X36614285Y-70778628D01*
X35661904Y-70350057D02*
X35614285Y-70302438D01*
X35614285Y-70302438D02*
X35519047Y-70254819D01*
X35519047Y-70254819D02*
X35280952Y-70254819D01*
X35280952Y-70254819D02*
X35185714Y-70302438D01*
X35185714Y-70302438D02*
X35138095Y-70350057D01*
X35138095Y-70350057D02*
X35090476Y-70445295D01*
X35090476Y-70445295D02*
X35090476Y-70540533D01*
X35090476Y-70540533D02*
X35138095Y-70683390D01*
X35138095Y-70683390D02*
X35709523Y-71254819D01*
X35709523Y-71254819D02*
X35090476Y-71254819D01*
X34614285Y-71254819D02*
X34423809Y-71254819D01*
X34423809Y-71254819D02*
X34328571Y-71207200D01*
X34328571Y-71207200D02*
X34280952Y-71159580D01*
X34280952Y-71159580D02*
X34185714Y-71016723D01*
X34185714Y-71016723D02*
X34138095Y-70826247D01*
X34138095Y-70826247D02*
X34138095Y-70445295D01*
X34138095Y-70445295D02*
X34185714Y-70350057D01*
X34185714Y-70350057D02*
X34233333Y-70302438D01*
X34233333Y-70302438D02*
X34328571Y-70254819D01*
X34328571Y-70254819D02*
X34519047Y-70254819D01*
X34519047Y-70254819D02*
X34614285Y-70302438D01*
X34614285Y-70302438D02*
X34661904Y-70350057D01*
X34661904Y-70350057D02*
X34709523Y-70445295D01*
X34709523Y-70445295D02*
X34709523Y-70683390D01*
X34709523Y-70683390D02*
X34661904Y-70778628D01*
X34661904Y-70778628D02*
X34614285Y-70826247D01*
X34614285Y-70826247D02*
X34519047Y-70873866D01*
X34519047Y-70873866D02*
X34328571Y-70873866D01*
X34328571Y-70873866D02*
X34233333Y-70826247D01*
X34233333Y-70826247D02*
X34185714Y-70778628D01*
X34185714Y-70778628D02*
X34138095Y-70683390D01*
X42566666Y-77254819D02*
X42899999Y-76778628D01*
X43138094Y-77254819D02*
X43138094Y-76254819D01*
X43138094Y-76254819D02*
X42757142Y-76254819D01*
X42757142Y-76254819D02*
X42661904Y-76302438D01*
X42661904Y-76302438D02*
X42614285Y-76350057D01*
X42614285Y-76350057D02*
X42566666Y-76445295D01*
X42566666Y-76445295D02*
X42566666Y-76588152D01*
X42566666Y-76588152D02*
X42614285Y-76683390D01*
X42614285Y-76683390D02*
X42661904Y-76731009D01*
X42661904Y-76731009D02*
X42757142Y-76778628D01*
X42757142Y-76778628D02*
X43138094Y-76778628D01*
X41661904Y-76254819D02*
X42138094Y-76254819D01*
X42138094Y-76254819D02*
X42185713Y-76731009D01*
X42185713Y-76731009D02*
X42138094Y-76683390D01*
X42138094Y-76683390D02*
X42042856Y-76635771D01*
X42042856Y-76635771D02*
X41804761Y-76635771D01*
X41804761Y-76635771D02*
X41709523Y-76683390D01*
X41709523Y-76683390D02*
X41661904Y-76731009D01*
X41661904Y-76731009D02*
X41614285Y-76826247D01*
X41614285Y-76826247D02*
X41614285Y-77064342D01*
X41614285Y-77064342D02*
X41661904Y-77159580D01*
X41661904Y-77159580D02*
X41709523Y-77207200D01*
X41709523Y-77207200D02*
X41804761Y-77254819D01*
X41804761Y-77254819D02*
X42042856Y-77254819D01*
X42042856Y-77254819D02*
X42138094Y-77207200D01*
X42138094Y-77207200D02*
X42185713Y-77159580D01*
X74616666Y-40159580D02*
X74664285Y-40207200D01*
X74664285Y-40207200D02*
X74807142Y-40254819D01*
X74807142Y-40254819D02*
X74902380Y-40254819D01*
X74902380Y-40254819D02*
X75045237Y-40207200D01*
X75045237Y-40207200D02*
X75140475Y-40111961D01*
X75140475Y-40111961D02*
X75188094Y-40016723D01*
X75188094Y-40016723D02*
X75235713Y-39826247D01*
X75235713Y-39826247D02*
X75235713Y-39683390D01*
X75235713Y-39683390D02*
X75188094Y-39492914D01*
X75188094Y-39492914D02*
X75140475Y-39397676D01*
X75140475Y-39397676D02*
X75045237Y-39302438D01*
X75045237Y-39302438D02*
X74902380Y-39254819D01*
X74902380Y-39254819D02*
X74807142Y-39254819D01*
X74807142Y-39254819D02*
X74664285Y-39302438D01*
X74664285Y-39302438D02*
X74616666Y-39350057D01*
X74283332Y-39254819D02*
X73664285Y-39254819D01*
X73664285Y-39254819D02*
X73997618Y-39635771D01*
X73997618Y-39635771D02*
X73854761Y-39635771D01*
X73854761Y-39635771D02*
X73759523Y-39683390D01*
X73759523Y-39683390D02*
X73711904Y-39731009D01*
X73711904Y-39731009D02*
X73664285Y-39826247D01*
X73664285Y-39826247D02*
X73664285Y-40064342D01*
X73664285Y-40064342D02*
X73711904Y-40159580D01*
X73711904Y-40159580D02*
X73759523Y-40207200D01*
X73759523Y-40207200D02*
X73854761Y-40254819D01*
X73854761Y-40254819D02*
X74140475Y-40254819D01*
X74140475Y-40254819D02*
X74235713Y-40207200D01*
X74235713Y-40207200D02*
X74283332Y-40159580D01*
D10*
%TO.C,C13*%
X27608767Y-56110000D02*
X27316233Y-56110000D01*
X27608767Y-55090000D02*
X27316233Y-55090000D01*
%TO.C,C12*%
X103466233Y-42940000D02*
X103758767Y-42940000D01*
X103466233Y-43960000D02*
X103758767Y-43960000D01*
%TO.C,R32*%
X33054724Y-74522500D02*
X32545276Y-74522500D01*
X33054724Y-73477500D02*
X32545276Y-73477500D01*
%TO.C,R12*%
X89922500Y-46657776D02*
X89922500Y-47167224D01*
X88877500Y-46657776D02*
X88877500Y-47167224D01*
%TO.C,R13*%
X102892224Y-60472500D02*
X102382776Y-60472500D01*
X102892224Y-59427500D02*
X102382776Y-59427500D01*
%TO.C,R2*%
X80457776Y-73877500D02*
X80967224Y-73877500D01*
X80457776Y-74922500D02*
X80967224Y-74922500D01*
%TO.C,R16*%
X107972500Y-50582765D02*
X107972500Y-51092213D01*
X106927500Y-50582765D02*
X106927500Y-51092213D01*
%TO.C,C7*%
X101696267Y-71060000D02*
X101403733Y-71060000D01*
X101696267Y-70040000D02*
X101403733Y-70040000D01*
%TO.C,U2*%
X77575000Y-42900000D02*
X79385000Y-42900000D01*
X79385000Y-42900000D02*
X79385000Y-44000000D01*
X86165000Y-42900000D02*
X86165000Y-48025000D01*
X87975000Y-42900000D02*
X86165000Y-42900000D01*
X77575000Y-41400000D02*
X77575000Y-42900000D01*
X87975000Y-41400000D02*
X87975000Y-42900000D01*
%TO.C,R20*%
X82677500Y-53542224D02*
X82677500Y-53032776D01*
X83722500Y-53542224D02*
X83722500Y-53032776D01*
%TO.C,R8*%
X89922500Y-43145276D02*
X89922500Y-43654724D01*
X88877500Y-43145276D02*
X88877500Y-43654724D01*
%TO.C,R15*%
X106222500Y-50495276D02*
X106222500Y-51004724D01*
X105177500Y-50495276D02*
X105177500Y-51004724D01*
%TO.C,R7*%
X26922500Y-57832776D02*
X26922500Y-58342224D01*
X25877500Y-57832776D02*
X25877500Y-58342224D01*
%TO.C,R4*%
X52254724Y-74522500D02*
X51745276Y-74522500D01*
X52254724Y-73477500D02*
X51745276Y-73477500D01*
%TO.C,R30*%
X39054724Y-63722500D02*
X38545276Y-63722500D01*
X39054724Y-62677500D02*
X38545276Y-62677500D01*
%TO.C,R3*%
X94927500Y-63804724D02*
X94927500Y-63295276D01*
X95972500Y-63804724D02*
X95972500Y-63295276D01*
%TO.C,R10*%
X93277500Y-63804724D02*
X93277500Y-63295276D01*
X94322500Y-63804724D02*
X94322500Y-63295276D01*
%TO.C,C2*%
X35791233Y-46320000D02*
X36083767Y-46320000D01*
X35791233Y-47340000D02*
X36083767Y-47340000D01*
%TO.C,R9*%
X94357776Y-60527500D02*
X94867224Y-60527500D01*
X94357776Y-61572500D02*
X94867224Y-61572500D01*
%TO.C,C6*%
X102290000Y-74883767D02*
X102290000Y-74591233D01*
X103310000Y-74883767D02*
X103310000Y-74591233D01*
%TO.C,C11*%
X100103733Y-42840000D02*
X100396267Y-42840000D01*
X100103733Y-43860000D02*
X100396267Y-43860000D01*
%TO.C,R18*%
X98657776Y-54127500D02*
X99167224Y-54127500D01*
X98657776Y-55172500D02*
X99167224Y-55172500D01*
%TO.C,R14*%
X94007776Y-65927500D02*
X94517224Y-65927500D01*
X94007776Y-66972500D02*
X94517224Y-66972500D01*
%TO.C,C14*%
X31008767Y-56110000D02*
X30716233Y-56110000D01*
X31008767Y-55090000D02*
X30716233Y-55090000D01*
%TO.C,R11*%
X97795276Y-59127500D02*
X98304724Y-59127500D01*
X97795276Y-60172500D02*
X98304724Y-60172500D01*
%TO.C,R25*%
X48767224Y-74522500D02*
X48257776Y-74522500D01*
X48767224Y-73477500D02*
X48257776Y-73477500D01*
%TO.C,R1*%
X41567224Y-59122500D02*
X41057776Y-59122500D01*
X41567224Y-58077500D02*
X41057776Y-58077500D01*
%TO.C,C1*%
X40483767Y-47310000D02*
X40191233Y-47310000D01*
X40483767Y-46290000D02*
X40191233Y-46290000D01*
%TO.C,C10*%
X102903733Y-41040000D02*
X103196267Y-41040000D01*
X102903733Y-42060000D02*
X103196267Y-42060000D01*
%TO.C,C5*%
X88890000Y-36008767D02*
X88890000Y-35716233D01*
X89910000Y-36008767D02*
X89910000Y-35716233D01*
%TO.C,R27*%
X25877500Y-64142224D02*
X25877500Y-63632776D01*
X26922500Y-64142224D02*
X26922500Y-63632776D01*
%TO.C,R31*%
X40254724Y-74522500D02*
X39745276Y-74522500D01*
X40254724Y-73477500D02*
X39745276Y-73477500D01*
%TO.C,R28*%
X25131500Y-67542224D02*
X25131500Y-67032776D01*
X26176500Y-67542224D02*
X26176500Y-67032776D01*
%TO.C,U6*%
X79500000Y-55390000D02*
X81300000Y-55390000D01*
X81300000Y-58610000D02*
X78350000Y-58610000D01*
%TO.C,R26*%
X44857776Y-73477500D02*
X45367224Y-73477500D01*
X44857776Y-74522500D02*
X45367224Y-74522500D01*
%TO.C,R22*%
X60477500Y-63967224D02*
X60477500Y-63457776D01*
X61522500Y-63967224D02*
X61522500Y-63457776D01*
%TO.C,R17*%
X103654724Y-54372500D02*
X103145276Y-54372500D01*
X103654724Y-53327500D02*
X103145276Y-53327500D01*
D11*
%TO.C,U8*%
X34923000Y-65266000D02*
X34923000Y-64966000D01*
X34923000Y-65266000D02*
X29173000Y-65266000D01*
X34923000Y-56841000D02*
X36523000Y-56841000D01*
X34923000Y-56616000D02*
X34923000Y-56841000D01*
X34923000Y-56616000D02*
X29173000Y-56616000D01*
X29173000Y-65266000D02*
X29173000Y-64966000D01*
X29173000Y-56616000D02*
X29173000Y-56916000D01*
D10*
%TO.C,U4*%
X96375000Y-62325000D02*
X96375000Y-69675000D01*
X96375000Y-69675000D02*
X104825000Y-69675000D01*
X97175000Y-61525000D02*
X96375000Y-62325000D01*
X104825000Y-61525000D02*
X97175000Y-61525000D01*
X104825000Y-69675000D02*
X104825000Y-61525000D01*
%TO.C,R21*%
X62677500Y-64054724D02*
X62677500Y-63545276D01*
X63722500Y-64054724D02*
X63722500Y-63545276D01*
%TO.C,R19*%
X93927500Y-44267213D02*
X93927500Y-43757765D01*
X94972500Y-44267213D02*
X94972500Y-43757765D01*
%TO.C,U5*%
X105125000Y-51475000D02*
X105125000Y-44125000D01*
X105125000Y-44125000D02*
X96675000Y-44125000D01*
X104325000Y-52275000D02*
X105125000Y-51475000D01*
X96675000Y-52275000D02*
X104325000Y-52275000D01*
X96675000Y-44125000D02*
X96675000Y-52275000D01*
%TO.C,C8*%
X98346267Y-71010000D02*
X98053733Y-71010000D01*
X98346267Y-69990000D02*
X98053733Y-69990000D01*
%TO.C,R6*%
X34767224Y-55722500D02*
X34257776Y-55722500D01*
X34767224Y-54677500D02*
X34257776Y-54677500D01*
%TO.C,R29*%
X36567224Y-74522500D02*
X36057776Y-74522500D01*
X36567224Y-73477500D02*
X36057776Y-73477500D01*
%TO.C,R5*%
X42077500Y-73342224D02*
X42077500Y-72832776D01*
X43122500Y-73342224D02*
X43122500Y-72832776D01*
%TO.C,C3*%
X75690000Y-41746267D02*
X75690000Y-41453733D01*
X76710000Y-41746267D02*
X76710000Y-41453733D01*
%TD*%
M02*
