%TF.GenerationSoftware,KiCad,Pcbnew,(6.0.2)*%
%TF.CreationDate,2024-02-06T19:16:59+03:00*%
%TF.ProjectId,Pistol_Camera_Driver,50697374-6f6c-45f4-9361-6d6572615f44,rev?*%
%TF.SameCoordinates,Original*%
%TF.FileFunction,Soldermask,Bot*%
%TF.FilePolarity,Negative*%
%FSLAX46Y46*%
G04 Gerber Fmt 4.6, Leading zero omitted, Abs format (unit mm)*
G04 Created by KiCad (PCBNEW (6.0.2)) date 2024-02-06 19:16:59*
%MOMM*%
%LPD*%
G01*
G04 APERTURE LIST*
G04 Aperture macros list*
%AMRoundRect*
0 Rectangle with rounded corners*
0 $1 Rounding radius*
0 $2 $3 $4 $5 $6 $7 $8 $9 X,Y pos of 4 corners*
0 Add a 4 corners polygon primitive as box body*
4,1,4,$2,$3,$4,$5,$6,$7,$8,$9,$2,$3,0*
0 Add four circle primitives for the rounded corners*
1,1,$1+$1,$2,$3*
1,1,$1+$1,$4,$5*
1,1,$1+$1,$6,$7*
1,1,$1+$1,$8,$9*
0 Add four rect primitives between the rounded corners*
20,1,$1+$1,$2,$3,$4,$5,0*
20,1,$1+$1,$4,$5,$6,$7,0*
20,1,$1+$1,$6,$7,$8,$9,0*
20,1,$1+$1,$8,$9,$2,$3,0*%
G04 Aperture macros list end*
%ADD10R,1.700000X1.700000*%
%ADD11O,1.700000X1.700000*%
%ADD12C,1.400000*%
%ADD13C,3.200000*%
%ADD14R,1.600000X1.600000*%
%ADD15C,1.600000*%
%ADD16RoundRect,0.237500X-0.237500X0.250000X-0.237500X-0.250000X0.237500X-0.250000X0.237500X0.250000X0*%
%ADD17R,1.905000X2.000000*%
%ADD18O,1.905000X2.000000*%
%ADD19O,1.600000X4.000000*%
%ADD20RoundRect,0.237500X0.237500X-0.250000X0.237500X0.250000X-0.237500X0.250000X-0.237500X-0.250000X0*%
%ADD21C,1.524000*%
%ADD22R,1.000000X1.000000*%
%ADD23O,1.000000X1.000000*%
%ADD24RoundRect,0.237500X-0.300000X-0.237500X0.300000X-0.237500X0.300000X0.237500X-0.300000X0.237500X0*%
%ADD25RoundRect,0.237500X0.250000X0.237500X-0.250000X0.237500X-0.250000X-0.237500X0.250000X-0.237500X0*%
%ADD26RoundRect,0.237500X0.300000X0.237500X-0.300000X0.237500X-0.300000X-0.237500X0.300000X-0.237500X0*%
%ADD27R,1.100000X4.600000*%
%ADD28R,10.800000X9.400000*%
%ADD29RoundRect,0.237500X-0.250000X-0.237500X0.250000X-0.237500X0.250000X0.237500X-0.250000X0.237500X0*%
%ADD30RoundRect,0.237500X0.237500X-0.300000X0.237500X0.300000X-0.237500X0.300000X-0.237500X-0.300000X0*%
%ADD31R,1.560000X0.650000*%
%ADD32R,0.300000X1.550000*%
%ADD33R,7.800000X3.400000*%
G04 APERTURE END LIST*
D10*
%TO.C,J7*%
X83000000Y-72800000D03*
D11*
X83000000Y-75340000D03*
%TD*%
D10*
%TO.C,J1*%
X55400000Y-73260000D03*
D11*
X55400000Y-75800000D03*
%TD*%
D10*
%TO.C,J12*%
X44200000Y-75800000D03*
D11*
X46740000Y-75800000D03*
X49280000Y-75800000D03*
X51820000Y-75800000D03*
%TD*%
D12*
%TO.C,K1*%
X55150000Y-42140000D03*
X58350000Y-42140000D03*
X60550000Y-42140000D03*
X62750000Y-42140000D03*
X62750000Y-37060000D03*
X60550000Y-37060000D03*
X58350000Y-37060000D03*
X55150000Y-37060000D03*
%TD*%
D10*
%TO.C,J6*%
X79200000Y-72800000D03*
D11*
X79200000Y-75340000D03*
%TD*%
D13*
%TO.C,REF\u002A\u002A*%
X73645000Y-74650000D03*
%TD*%
D10*
%TO.C,J11*%
X64800000Y-73000000D03*
D11*
X64800000Y-75540000D03*
%TD*%
D13*
%TO.C,REF\u002A\u002A*%
X73645000Y-35650000D03*
%TD*%
D10*
%TO.C,J10*%
X68400000Y-73000000D03*
D11*
X68400000Y-75540000D03*
%TD*%
D14*
%TO.C,C4*%
X100850000Y-72524989D03*
D15*
X100850000Y-75024989D03*
%TD*%
D14*
%TO.C,C9*%
X100400000Y-41800000D03*
D15*
X97900000Y-41800000D03*
%TD*%
D10*
%TO.C,J16*%
X33000000Y-72200000D03*
D11*
X35540000Y-72200000D03*
X38080000Y-72200000D03*
X40620000Y-72200000D03*
%TD*%
D16*
%TO.C,R7*%
X42800000Y-63287500D03*
X42800000Y-65112500D03*
%TD*%
%TO.C,R4*%
X35200000Y-63175000D03*
X35200000Y-65000000D03*
%TD*%
D10*
%TO.C,J2*%
X43825000Y-40350000D03*
D11*
X43825000Y-42890000D03*
%TD*%
D10*
%TO.C,J8*%
X90000000Y-74800000D03*
D11*
X87460000Y-74800000D03*
%TD*%
D17*
%TO.C,U1*%
X38990000Y-44550000D03*
D18*
X36450000Y-44550000D03*
X33910000Y-44550000D03*
%TD*%
D19*
%TO.C,U3*%
X27645000Y-68155000D03*
X30185000Y-68155000D03*
X32725000Y-68155000D03*
X35265000Y-68155000D03*
X37805000Y-68155000D03*
X40345000Y-68155000D03*
X42885000Y-68155000D03*
X45425000Y-68155000D03*
X47965000Y-68155000D03*
X50505000Y-68155000D03*
X53045000Y-68155000D03*
X55585000Y-68155000D03*
X58125000Y-68155000D03*
X60665000Y-68155000D03*
X63205000Y-68155000D03*
X65745000Y-68155000D03*
X68285000Y-68155000D03*
X70825000Y-68155000D03*
X73365000Y-68155000D03*
X75905000Y-68155000D03*
X75905000Y-50375000D03*
X73365000Y-50375000D03*
X70825000Y-50375000D03*
X68285000Y-50375000D03*
X65745000Y-50375000D03*
X63205000Y-50375000D03*
X60665000Y-50375000D03*
X58125000Y-50375000D03*
X55585000Y-50375000D03*
X53045000Y-50375000D03*
X50505000Y-50375000D03*
X47965000Y-50375000D03*
X45425000Y-50375000D03*
X42885000Y-50375000D03*
X40345000Y-50375000D03*
X37805000Y-50375000D03*
X35265000Y-50375000D03*
X32725000Y-50375000D03*
X30185000Y-50375000D03*
X27645000Y-50375000D03*
%TD*%
D20*
%TO.C,R2*%
X33400000Y-59975000D03*
X33400000Y-61800000D03*
%TD*%
D13*
%TO.C,REF\u002A\u002A*%
X27645000Y-35650000D03*
%TD*%
D10*
%TO.C,J4*%
X38750000Y-40225000D03*
D11*
X36210000Y-40225000D03*
%TD*%
D10*
%TO.C,J15*%
X33000000Y-75800000D03*
D11*
X35540000Y-75800000D03*
X38080000Y-75800000D03*
X40620000Y-75800000D03*
%TD*%
D13*
%TO.C,REF\u002A\u002A*%
X109645000Y-74650000D03*
%TD*%
D10*
%TO.C,J9*%
X44200000Y-72200000D03*
D11*
X46740000Y-72200000D03*
X49280000Y-72200000D03*
X51820000Y-72200000D03*
%TD*%
D20*
%TO.C,R22*%
X61000000Y-64625000D03*
X61000000Y-62800000D03*
%TD*%
D21*
%TO.C,U7*%
X86810000Y-50310000D03*
X81730000Y-50310000D03*
X79190000Y-50310000D03*
X79190000Y-68090000D03*
X86810000Y-68090000D03*
%TD*%
D20*
%TO.C,R21*%
X63200000Y-64712500D03*
X63200000Y-62887500D03*
%TD*%
%TO.C,R1*%
X35400000Y-61512500D03*
X35400000Y-59687500D03*
%TD*%
D13*
%TO.C,REF\u002A\u002A*%
X27645000Y-74650000D03*
%TD*%
D16*
%TO.C,R6*%
X40400000Y-63200000D03*
X40400000Y-65025000D03*
%TD*%
D22*
%TO.C,J13*%
X67375000Y-40425000D03*
D23*
X67375000Y-39155000D03*
%TD*%
D22*
%TO.C,J3*%
X106530000Y-56924989D03*
D23*
X105260000Y-56924989D03*
X103990000Y-56924989D03*
X102720000Y-56924989D03*
X101450000Y-56924989D03*
X100180000Y-56924989D03*
X98910000Y-56924989D03*
X97640000Y-56924989D03*
%TD*%
D10*
%TO.C,J14*%
X33200000Y-33800000D03*
D11*
X35740000Y-33800000D03*
X38280000Y-33800000D03*
X40820000Y-33800000D03*
%TD*%
D16*
%TO.C,R5*%
X37800000Y-63200000D03*
X37800000Y-65025000D03*
%TD*%
D10*
%TO.C,J5*%
X50000000Y-45200000D03*
D11*
X52540000Y-45200000D03*
X55080000Y-45200000D03*
X57620000Y-45200000D03*
X60160000Y-45200000D03*
%TD*%
D13*
%TO.C,REF\u002A\u002A*%
X109645000Y-35650000D03*
%TD*%
D24*
%TO.C,C12*%
X102750000Y-43450000D03*
X104475000Y-43450000D03*
%TD*%
D16*
%TO.C,R12*%
X89400000Y-46000000D03*
X89400000Y-47825000D03*
%TD*%
D25*
%TO.C,R13*%
X103550000Y-59950000D03*
X101725000Y-59950000D03*
%TD*%
D16*
%TO.C,R16*%
X107450000Y-49924989D03*
X107450000Y-51749989D03*
%TD*%
D26*
%TO.C,C7*%
X102412500Y-70550000D03*
X100687500Y-70550000D03*
%TD*%
D27*
%TO.C,U2*%
X85315000Y-45725000D03*
D28*
X82775000Y-36575000D03*
D27*
X80235000Y-45725000D03*
%TD*%
D20*
%TO.C,R20*%
X83000000Y-54200000D03*
X83000000Y-52375000D03*
%TD*%
D16*
%TO.C,R8*%
X89400000Y-42487500D03*
X89400000Y-44312500D03*
%TD*%
%TO.C,R15*%
X105700000Y-49837500D03*
X105700000Y-51662500D03*
%TD*%
D20*
%TO.C,R3*%
X95450000Y-64462500D03*
X95450000Y-62637500D03*
%TD*%
%TO.C,R10*%
X93800000Y-64462500D03*
X93800000Y-62637500D03*
%TD*%
D24*
%TO.C,C2*%
X33300000Y-46830000D03*
X35025000Y-46830000D03*
%TD*%
D29*
%TO.C,R9*%
X93700000Y-61050000D03*
X95525000Y-61050000D03*
%TD*%
D30*
%TO.C,C6*%
X102800000Y-75600000D03*
X102800000Y-73875000D03*
%TD*%
D24*
%TO.C,C11*%
X99387500Y-43350000D03*
X101112500Y-43350000D03*
%TD*%
D29*
%TO.C,R18*%
X98000000Y-54650000D03*
X99825000Y-54650000D03*
%TD*%
%TO.C,R14*%
X93350000Y-66450000D03*
X95175000Y-66450000D03*
%TD*%
%TO.C,R11*%
X97137500Y-59650000D03*
X98962500Y-59650000D03*
%TD*%
D26*
%TO.C,C1*%
X38512500Y-46880000D03*
X36787500Y-46880000D03*
%TD*%
D24*
%TO.C,C10*%
X102187500Y-41550000D03*
X103912500Y-41550000D03*
%TD*%
D30*
%TO.C,C5*%
X89400000Y-36725000D03*
X89400000Y-35000000D03*
%TD*%
D31*
%TO.C,U6*%
X79050000Y-57950000D03*
X79050000Y-57000000D03*
X79050000Y-56050000D03*
X81750000Y-56050000D03*
X81750000Y-57000000D03*
X81750000Y-57950000D03*
%TD*%
D25*
%TO.C,R17*%
X104312500Y-53850000D03*
X102487500Y-53850000D03*
%TD*%
D32*
%TO.C,U4*%
X97025000Y-62800000D03*
X97675000Y-62800000D03*
X98325000Y-62800000D03*
X98975000Y-62800000D03*
X99625000Y-62800000D03*
X100275000Y-62800000D03*
X100925000Y-62800000D03*
X101575000Y-62800000D03*
X102225000Y-62800000D03*
X102875000Y-62800000D03*
X103525000Y-62800000D03*
X104175000Y-62800000D03*
X104175000Y-68400000D03*
X103525000Y-68400000D03*
X102875000Y-68400000D03*
X102225000Y-68400000D03*
X101575000Y-68400000D03*
X100925000Y-68400000D03*
X100275000Y-68400000D03*
X99625000Y-68400000D03*
X98975000Y-68400000D03*
X98325000Y-68400000D03*
X97675000Y-68400000D03*
X97025000Y-68400000D03*
D33*
X100600000Y-65600000D03*
%TD*%
D20*
%TO.C,R19*%
X94450000Y-44924989D03*
X94450000Y-43099989D03*
%TD*%
D32*
%TO.C,U5*%
X104475000Y-51000000D03*
X103825000Y-51000000D03*
X103175000Y-51000000D03*
X102525000Y-51000000D03*
X101875000Y-51000000D03*
X101225000Y-51000000D03*
X100575000Y-51000000D03*
X99925000Y-51000000D03*
X99275000Y-51000000D03*
X98625000Y-51000000D03*
X97975000Y-51000000D03*
X97325000Y-51000000D03*
X97325000Y-45400000D03*
X97975000Y-45400000D03*
X98625000Y-45400000D03*
X99275000Y-45400000D03*
X99925000Y-45400000D03*
X100575000Y-45400000D03*
X101225000Y-45400000D03*
X101875000Y-45400000D03*
X102525000Y-45400000D03*
X103175000Y-45400000D03*
X103825000Y-45400000D03*
X104475000Y-45400000D03*
D33*
X100900000Y-48200000D03*
%TD*%
D26*
%TO.C,C8*%
X99062500Y-70500000D03*
X97337500Y-70500000D03*
%TD*%
D30*
%TO.C,C3*%
X76200000Y-42462500D03*
X76200000Y-40737500D03*
%TD*%
M02*
